G04 #@! TF.GenerationSoftware,KiCad,Pcbnew,(5.99.0-2290-gd34f8fd4b)*
G04 #@! TF.CreationDate,2020-11-06T19:29:51+01:00*
G04 #@! TF.ProjectId,Tympan-Nya,54796d70-616e-42d4-9e79-612e6b696361,rev?*
G04 #@! TF.SameCoordinates,PX6d878d0PY72e6100*
G04 #@! TF.FileFunction,Other,User*
%FSLAX46Y46*%
G04 Gerber Fmt 4.6, Leading zero omitted, Abs format (unit mm)*
G04 Created by KiCad (PCBNEW (5.99.0-2290-gd34f8fd4b)) date 2020-11-06 19:29:51*
%MOMM*%
%LPD*%
G01*
G04 APERTURE LIST*
%ADD10C,0.050000*%
G04 APERTURE END LIST*
D10*
X-26961600Y45187600D02*
X-26961600Y50687600D01*
X-26961600Y50687600D02*
X-20061600Y50687600D01*
X-20061600Y50687600D02*
X-20061600Y45187600D01*
X-20061600Y45187600D02*
X-26961600Y45187600D01*
X-19990800Y53182800D02*
X-21850800Y53182800D01*
X-19990800Y52242800D02*
X-19990800Y53182800D01*
X-21850800Y52242800D02*
X-19990800Y52242800D01*
X-21850800Y53182800D02*
X-21850800Y52242800D01*
X-35196200Y31711200D02*
X-32096200Y31711200D01*
X-35196200Y31711200D02*
X-35196200Y35411200D01*
X-32096200Y35411200D02*
X-32096200Y31711200D01*
X-32096200Y35411200D02*
X-35196200Y35411200D01*
X-20247800Y19685400D02*
X-20247800Y17825400D01*
X-19307800Y19685400D02*
X-20247800Y19685400D01*
X-19307800Y17825400D02*
X-19307800Y19685400D01*
X-20247800Y17825400D02*
X-19307800Y17825400D01*
X-19231800Y19683000D02*
X-19231800Y17823000D01*
X-18291800Y19683000D02*
X-19231800Y19683000D01*
X-18291800Y17823000D02*
X-18291800Y19683000D01*
X-19231800Y17823000D02*
X-18291800Y17823000D01*
X-21263800Y19683000D02*
X-21263800Y17823000D01*
X-20323800Y19683000D02*
X-21263800Y19683000D01*
X-20323800Y17823000D02*
X-20323800Y19683000D01*
X-21263800Y17823000D02*
X-20323800Y17823000D01*
X-18215800Y19683000D02*
X-18215800Y17823000D01*
X-17275800Y19683000D02*
X-18215800Y19683000D01*
X-17275800Y17823000D02*
X-17275800Y19683000D01*
X-18215800Y17823000D02*
X-17275800Y17823000D01*
X-16519600Y43245600D02*
X-31519600Y43245600D01*
X-16519600Y43245600D02*
X-16519600Y28245600D01*
X-31519600Y28245600D02*
X-31519600Y43245600D01*
X-31519600Y28245600D02*
X-16519600Y28245600D01*
X-24310400Y16733200D02*
X-24310400Y7313200D01*
X-13670400Y16733200D02*
X-13670400Y7313200D01*
X-13670400Y7313200D02*
X-24310400Y7313200D01*
X-13670400Y16733200D02*
X-24310400Y16733200D01*
X-31543000Y41508000D02*
X-35343000Y41508000D01*
X-35343000Y41508000D02*
X-35343000Y37908000D01*
X-35343000Y37908000D02*
X-31543000Y37908000D01*
X-31543000Y37908000D02*
X-31543000Y41508000D01*
X-22219600Y22491800D02*
X-22219600Y26291800D01*
X-22219600Y26291800D02*
X-25819600Y26291800D01*
X-25819600Y26291800D02*
X-25819600Y22491800D01*
X-25819600Y22491800D02*
X-22219600Y22491800D01*
X-28226200Y8732600D02*
X-26366200Y8732600D01*
X-28226200Y9672600D02*
X-28226200Y8732600D01*
X-26366200Y9672600D02*
X-28226200Y9672600D01*
X-26366200Y8732600D02*
X-26366200Y9672600D01*
X-28226200Y7665800D02*
X-26366200Y7665800D01*
X-28226200Y8605800D02*
X-28226200Y7665800D01*
X-26366200Y8605800D02*
X-28226200Y8605800D01*
X-26366200Y7665800D02*
X-26366200Y8605800D01*
X-30563000Y7665800D02*
X-28703000Y7665800D01*
X-30563000Y8605800D02*
X-30563000Y7665800D01*
X-28703000Y8605800D02*
X-30563000Y8605800D01*
X-28703000Y7665800D02*
X-28703000Y8605800D01*
X-13183600Y22677400D02*
X-15043600Y22677400D01*
X-13183600Y21737400D02*
X-13183600Y22677400D01*
X-15043600Y21737400D02*
X-13183600Y21737400D01*
X-15043600Y22677400D02*
X-15043600Y21737400D01*
X-13183600Y23693400D02*
X-15043600Y23693400D01*
X-13183600Y22753400D02*
X-13183600Y23693400D01*
X-15043600Y22753400D02*
X-13183600Y22753400D01*
X-15043600Y23693400D02*
X-15043600Y22753400D01*
X-13183600Y21661400D02*
X-15043600Y21661400D01*
X-13183600Y20721400D02*
X-13183600Y21661400D01*
X-15043600Y20721400D02*
X-13183600Y20721400D01*
X-15043600Y21661400D02*
X-15043600Y20721400D01*
X-21187400Y24427000D02*
X-21187400Y26287000D01*
X-22127400Y24427000D02*
X-21187400Y24427000D01*
X-22127400Y26287000D02*
X-22127400Y24427000D01*
X-21187400Y26287000D02*
X-22127400Y26287000D01*
X-22127400Y24356600D02*
X-22127400Y22496600D01*
X-21187400Y24356600D02*
X-22127400Y24356600D01*
X-21187400Y22496600D02*
X-21187400Y24356600D01*
X-22127400Y22496600D02*
X-21187400Y22496600D01*
X-15091000Y18765800D02*
X-16951000Y18765800D01*
X-15091000Y17825800D02*
X-15091000Y18765800D01*
X-16951000Y17825800D02*
X-15091000Y17825800D01*
X-16951000Y18765800D02*
X-16951000Y17825800D01*
X-29623200Y49855200D02*
X-27763200Y49855200D01*
X-29623200Y50795200D02*
X-29623200Y49855200D01*
X-27763200Y50795200D02*
X-29623200Y50795200D01*
X-27763200Y49855200D02*
X-27763200Y50795200D01*
X-13979800Y20397400D02*
X-16939800Y20397400D01*
X-13979800Y18937400D02*
X-13979800Y20397400D01*
X-16939800Y18937400D02*
X-13979800Y18937400D01*
X-16939800Y20397400D02*
X-16939800Y18937400D01*
X-27784800Y18196600D02*
X-32344800Y18196600D01*
X-27784800Y15956600D02*
X-27784800Y18196600D01*
X-32344800Y15956600D02*
X-27784800Y15956600D01*
X-32344800Y18196600D02*
X-32344800Y15956600D01*
M02*
