G04 #@! TF.GenerationSoftware,KiCad,Pcbnew,(5.99.0-2290-gd34f8fd4b)*
G04 #@! TF.CreationDate,2020-11-06T19:29:50+01:00*
G04 #@! TF.ProjectId,Tympan-Nya,54796d70-616e-42d4-9e79-612e6b696361,rev?*
G04 #@! TF.SameCoordinates,PX6d878d0PY72e6100*
G04 #@! TF.FileFunction,Paste,Bot*
G04 #@! TF.FilePolarity,Positive*
%FSLAX46Y46*%
G04 Gerber Fmt 4.6, Leading zero omitted, Abs format (unit mm)*
G04 Created by KiCad (PCBNEW (5.99.0-2290-gd34f8fd4b)) date 2020-11-06 19:29:50*
%MOMM*%
%LPD*%
G01*
G04 APERTURE LIST*
%ADD10C,0.300000*%
%ADD11R,1.500000X1.000000*%
%ADD12R,0.800000X0.500000*%
%ADD13R,0.800000X0.400000*%
%ADD14C,0.500000*%
%ADD15R,0.300000X1.450000*%
%ADD16R,0.600000X1.450000*%
%ADD17C,0.900000*%
%ADD18C,0.700000*%
%ADD19R,1.060000X0.650000*%
%ADD20R,0.650000X1.060000*%
%ADD21R,1.400000X1.200000*%
%ADD22R,1.100000X1.900000*%
%ADD23R,1.200000X1.600000*%
%ADD24R,0.800000X1.000000*%
%ADD25R,1.700000X2.500000*%
%ADD26R,2.500000X1.700000*%
G04 APERTURE END LIST*
D10*
X-31583217Y50088970D02*
G75*
G02*
X-31948400Y49730600I-615183J261630D01*
G01*
X-32460030Y49735417D02*
G75*
G02*
X-32818400Y50100600I261630J615183D01*
G01*
X-32813583Y50612230D02*
G75*
G02*
X-32448400Y50970600I615183J-261630D01*
G01*
X-31936770Y50965783D02*
G75*
G02*
X-31578400Y50600600I-261630J-615183D01*
G01*
X-14209617Y50088970D02*
G75*
G02*
X-14574800Y49730600I-615183J261630D01*
G01*
X-15086430Y49735417D02*
G75*
G02*
X-15444800Y50100600I261630J615183D01*
G01*
X-15439983Y50612230D02*
G75*
G02*
X-15074800Y50970600I615183J-261630D01*
G01*
X-14563170Y50965783D02*
G75*
G02*
X-14204800Y50600600I-261630J-615183D01*
G01*
D11*
X-25961600Y46337600D03*
X-25961600Y49537600D03*
X-21061600Y46337600D03*
X-21061600Y49537600D03*
G36*
G01*
X-20730800Y52540300D02*
X-20730800Y52885300D01*
G75*
G02*
X-20583300Y53032800I147500J0D01*
G01*
X-20288300Y53032800D01*
G75*
G02*
X-20140800Y52885300I0J-147500D01*
G01*
X-20140800Y52540300D01*
G75*
G02*
X-20288300Y52392800I-147500J0D01*
G01*
X-20583300Y52392800D01*
G75*
G02*
X-20730800Y52540300I0J147500D01*
G01*
G37*
G36*
G01*
X-21700800Y52540300D02*
X-21700800Y52885300D01*
G75*
G02*
X-21553300Y53032800I147500J0D01*
G01*
X-21258300Y53032800D01*
G75*
G02*
X-21110800Y52885300I0J-147500D01*
G01*
X-21110800Y52540300D01*
G75*
G02*
X-21258300Y52392800I-147500J0D01*
G01*
X-21553300Y52392800D01*
G75*
G02*
X-21700800Y52540300I0J147500D01*
G01*
G37*
D12*
X-34546200Y32361200D03*
D13*
X-34546200Y33161200D03*
D12*
X-34546200Y34761200D03*
D13*
X-34546200Y33961200D03*
D12*
X-32746200Y32361200D03*
D13*
X-32746200Y33961200D03*
X-32746200Y33161200D03*
D12*
X-32746200Y34761200D03*
G36*
G01*
X-19605300Y18945400D02*
X-19950300Y18945400D01*
G75*
G02*
X-20097800Y19092900I0J147500D01*
G01*
X-20097800Y19387900D01*
G75*
G02*
X-19950300Y19535400I147500J0D01*
G01*
X-19605300Y19535400D01*
G75*
G02*
X-19457800Y19387900I0J-147500D01*
G01*
X-19457800Y19092900D01*
G75*
G02*
X-19605300Y18945400I-147500J0D01*
G01*
G37*
G36*
G01*
X-19605300Y17975400D02*
X-19950300Y17975400D01*
G75*
G02*
X-20097800Y18122900I0J147500D01*
G01*
X-20097800Y18417900D01*
G75*
G02*
X-19950300Y18565400I147500J0D01*
G01*
X-19605300Y18565400D01*
G75*
G02*
X-19457800Y18417900I0J-147500D01*
G01*
X-19457800Y18122900D01*
G75*
G02*
X-19605300Y17975400I-147500J0D01*
G01*
G37*
G36*
G01*
X-18589300Y18943000D02*
X-18934300Y18943000D01*
G75*
G02*
X-19081800Y19090500I0J147500D01*
G01*
X-19081800Y19385500D01*
G75*
G02*
X-18934300Y19533000I147500J0D01*
G01*
X-18589300Y19533000D01*
G75*
G02*
X-18441800Y19385500I0J-147500D01*
G01*
X-18441800Y19090500D01*
G75*
G02*
X-18589300Y18943000I-147500J0D01*
G01*
G37*
G36*
G01*
X-18589300Y17973000D02*
X-18934300Y17973000D01*
G75*
G02*
X-19081800Y18120500I0J147500D01*
G01*
X-19081800Y18415500D01*
G75*
G02*
X-18934300Y18563000I147500J0D01*
G01*
X-18589300Y18563000D01*
G75*
G02*
X-18441800Y18415500I0J-147500D01*
G01*
X-18441800Y18120500D01*
G75*
G02*
X-18589300Y17973000I-147500J0D01*
G01*
G37*
G36*
G01*
X-20621300Y18943000D02*
X-20966300Y18943000D01*
G75*
G02*
X-21113800Y19090500I0J147500D01*
G01*
X-21113800Y19385500D01*
G75*
G02*
X-20966300Y19533000I147500J0D01*
G01*
X-20621300Y19533000D01*
G75*
G02*
X-20473800Y19385500I0J-147500D01*
G01*
X-20473800Y19090500D01*
G75*
G02*
X-20621300Y18943000I-147500J0D01*
G01*
G37*
G36*
G01*
X-20621300Y17973000D02*
X-20966300Y17973000D01*
G75*
G02*
X-21113800Y18120500I0J147500D01*
G01*
X-21113800Y18415500D01*
G75*
G02*
X-20966300Y18563000I147500J0D01*
G01*
X-20621300Y18563000D01*
G75*
G02*
X-20473800Y18415500I0J-147500D01*
G01*
X-20473800Y18120500D01*
G75*
G02*
X-20621300Y17973000I-147500J0D01*
G01*
G37*
G36*
G01*
X-17573300Y18943000D02*
X-17918300Y18943000D01*
G75*
G02*
X-18065800Y19090500I0J147500D01*
G01*
X-18065800Y19385500D01*
G75*
G02*
X-17918300Y19533000I147500J0D01*
G01*
X-17573300Y19533000D01*
G75*
G02*
X-17425800Y19385500I0J-147500D01*
G01*
X-17425800Y19090500D01*
G75*
G02*
X-17573300Y18943000I-147500J0D01*
G01*
G37*
G36*
G01*
X-17573300Y17973000D02*
X-17918300Y17973000D01*
G75*
G02*
X-18065800Y18120500I0J147500D01*
G01*
X-18065800Y18415500D01*
G75*
G02*
X-17918300Y18563000I147500J0D01*
G01*
X-17573300Y18563000D01*
G75*
G02*
X-17425800Y18415500I0J-147500D01*
G01*
X-17425800Y18120500D01*
G75*
G02*
X-17573300Y17973000I-147500J0D01*
G01*
G37*
D14*
X-18519600Y41245600D03*
X-19519600Y41245600D03*
X-20519600Y41245600D03*
X-21519600Y41245600D03*
X-22519600Y41245600D03*
X-23519600Y41245600D03*
X-24519600Y41245600D03*
X-25519600Y41245600D03*
X-26519600Y41245600D03*
X-27519600Y41245600D03*
X-28519600Y41245600D03*
X-29519600Y41245600D03*
X-18519600Y40245600D03*
X-18519600Y39245600D03*
X-18519600Y38245600D03*
X-18519600Y37245600D03*
X-18519600Y36245600D03*
X-18519600Y35245600D03*
X-18519600Y34245600D03*
X-18519600Y33245600D03*
X-29519600Y40245600D03*
X-28519600Y40245600D03*
X-27519600Y40245600D03*
X-26519600Y40245600D03*
X-25519600Y40245600D03*
X-24519600Y40245600D03*
X-23519600Y40245600D03*
X-22519600Y40245600D03*
X-19519600Y40245600D03*
X-20519600Y40245600D03*
X-21519600Y40245600D03*
X-19519600Y39245600D03*
X-20519600Y39245600D03*
X-21519600Y39245600D03*
X-22519600Y39245600D03*
X-23519600Y39245600D03*
X-24519600Y39245600D03*
X-25519600Y39245600D03*
X-26519600Y39245600D03*
X-19519600Y38245600D03*
X-20519600Y38245600D03*
X-21519600Y38245600D03*
X-22519600Y38245600D03*
X-23519600Y38245600D03*
X-24519600Y38245600D03*
X-25519600Y38245600D03*
X-26519600Y38245600D03*
X-19519600Y37245600D03*
X-20519600Y37245600D03*
X-21519600Y37245600D03*
X-27519600Y39245600D03*
X-27519600Y38245600D03*
X-28519600Y39245600D03*
X-28519600Y38245600D03*
X-29519600Y38245600D03*
X-29519600Y39245600D03*
X-19519600Y36245600D03*
X-20519600Y36245600D03*
X-21519600Y36245600D03*
X-21519600Y35245600D03*
X-20519600Y35245600D03*
X-19519600Y35245600D03*
X-19519600Y34245600D03*
X-20519600Y34245600D03*
X-21519600Y34245600D03*
X-21519600Y33245600D03*
X-20519600Y33245600D03*
X-19519600Y33245600D03*
X-18519600Y32245600D03*
X-19519600Y32245600D03*
X-20519600Y32245600D03*
X-21519600Y32245600D03*
X-21519600Y31245600D03*
X-20519600Y31245600D03*
X-19519600Y31245600D03*
X-18519600Y31245600D03*
X-18519600Y30245600D03*
X-19519600Y30245600D03*
X-20519600Y30245600D03*
X-21519600Y30245600D03*
X-25519600Y37245600D03*
X-24519600Y37245600D03*
X-23519600Y37245600D03*
X-22519600Y37245600D03*
X-22519600Y36245600D03*
X-23519600Y36245600D03*
X-24519600Y36245600D03*
X-25519600Y36245600D03*
X-22519600Y35245600D03*
X-23519600Y35245600D03*
X-24519600Y35245600D03*
X-25519600Y35245600D03*
X-22519600Y34245600D03*
X-23519600Y34245600D03*
X-24519600Y34245600D03*
X-25519600Y34245600D03*
X-22519600Y33245600D03*
X-23519600Y33245600D03*
X-24519600Y33245600D03*
X-25519600Y33245600D03*
X-22519600Y32245600D03*
X-23519600Y32245600D03*
X-24519600Y32245600D03*
X-25519600Y32245600D03*
X-22519600Y31245600D03*
X-23519600Y31245600D03*
X-24519600Y31245600D03*
X-25519600Y31245600D03*
X-22519600Y30245600D03*
X-23519600Y30245600D03*
X-24519600Y30245600D03*
X-25519600Y30245600D03*
X-26519600Y37245600D03*
X-27519600Y37245600D03*
X-28519600Y37245600D03*
X-29519600Y37245600D03*
X-26519600Y36245600D03*
X-27519600Y36245600D03*
X-28519600Y36245600D03*
X-29519600Y36245600D03*
X-26519600Y33245600D03*
X-29519600Y35245600D03*
X-28519600Y35245600D03*
X-27519600Y35245600D03*
X-26519600Y35245600D03*
X-26519600Y34245600D03*
X-27519600Y34245600D03*
X-28519600Y34245600D03*
X-29519600Y34245600D03*
X-27519600Y33245600D03*
X-28519600Y33245600D03*
X-29519600Y33245600D03*
X-26519600Y30245600D03*
X-26519600Y31245600D03*
X-26519600Y32245600D03*
X-27519600Y32245600D03*
X-27519600Y31245600D03*
X-27519600Y30245600D03*
X-28519600Y30245600D03*
X-28519600Y31245600D03*
X-28519600Y32245600D03*
X-29519600Y32245600D03*
X-29519600Y31245600D03*
X-29519600Y30245600D03*
D15*
X-18740400Y15508200D03*
X-20740400Y15508200D03*
X-20240400Y15508200D03*
X-19740400Y15508200D03*
X-19240400Y15508200D03*
X-18240400Y15508200D03*
X-17740400Y15508200D03*
X-17240400Y15508200D03*
D16*
X-22240400Y15508200D03*
X-21440400Y15508200D03*
X-16540400Y15508200D03*
X-15740400Y15508200D03*
X-15740400Y15508200D03*
X-16540400Y15508200D03*
X-21440400Y15508200D03*
X-22240400Y15508200D03*
D17*
X-33463400Y47734600D03*
X-32198400Y47734600D03*
X-30933400Y47734600D03*
D18*
X-33463400Y51140600D03*
X-30933400Y51140600D03*
D17*
X-16089800Y47734600D03*
X-14824800Y47734600D03*
X-13559800Y47734600D03*
D18*
X-16089800Y51140600D03*
X-13559800Y51140600D03*
D19*
X-32343000Y40658000D03*
X-32343000Y39708000D03*
X-32343000Y38758000D03*
X-34543000Y38758000D03*
X-34543000Y40658000D03*
D20*
X-23069600Y23291800D03*
X-24019600Y23291800D03*
X-24969600Y23291800D03*
X-24969600Y25491800D03*
X-23069600Y25491800D03*
G36*
G01*
X-27486200Y9375100D02*
X-27486200Y9030100D01*
G75*
G02*
X-27633700Y8882600I-147500J0D01*
G01*
X-27928700Y8882600D01*
G75*
G02*
X-28076200Y9030100I0J147500D01*
G01*
X-28076200Y9375100D01*
G75*
G02*
X-27928700Y9522600I147500J0D01*
G01*
X-27633700Y9522600D01*
G75*
G02*
X-27486200Y9375100I0J-147500D01*
G01*
G37*
G36*
G01*
X-26516200Y9375100D02*
X-26516200Y9030100D01*
G75*
G02*
X-26663700Y8882600I-147500J0D01*
G01*
X-26958700Y8882600D01*
G75*
G02*
X-27106200Y9030100I0J147500D01*
G01*
X-27106200Y9375100D01*
G75*
G02*
X-26958700Y9522600I147500J0D01*
G01*
X-26663700Y9522600D01*
G75*
G02*
X-26516200Y9375100I0J-147500D01*
G01*
G37*
G36*
G01*
X-27486200Y8308300D02*
X-27486200Y7963300D01*
G75*
G02*
X-27633700Y7815800I-147500J0D01*
G01*
X-27928700Y7815800D01*
G75*
G02*
X-28076200Y7963300I0J147500D01*
G01*
X-28076200Y8308300D01*
G75*
G02*
X-27928700Y8455800I147500J0D01*
G01*
X-27633700Y8455800D01*
G75*
G02*
X-27486200Y8308300I0J-147500D01*
G01*
G37*
G36*
G01*
X-26516200Y8308300D02*
X-26516200Y7963300D01*
G75*
G02*
X-26663700Y7815800I-147500J0D01*
G01*
X-26958700Y7815800D01*
G75*
G02*
X-27106200Y7963300I0J147500D01*
G01*
X-27106200Y8308300D01*
G75*
G02*
X-26958700Y8455800I147500J0D01*
G01*
X-26663700Y8455800D01*
G75*
G02*
X-26516200Y8308300I0J-147500D01*
G01*
G37*
G36*
G01*
X-29823000Y8308300D02*
X-29823000Y7963300D01*
G75*
G02*
X-29970500Y7815800I-147500J0D01*
G01*
X-30265500Y7815800D01*
G75*
G02*
X-30413000Y7963300I0J147500D01*
G01*
X-30413000Y8308300D01*
G75*
G02*
X-30265500Y8455800I147500J0D01*
G01*
X-29970500Y8455800D01*
G75*
G02*
X-29823000Y8308300I0J-147500D01*
G01*
G37*
G36*
G01*
X-28853000Y8308300D02*
X-28853000Y7963300D01*
G75*
G02*
X-29000500Y7815800I-147500J0D01*
G01*
X-29295500Y7815800D01*
G75*
G02*
X-29443000Y7963300I0J147500D01*
G01*
X-29443000Y8308300D01*
G75*
G02*
X-29295500Y8455800I147500J0D01*
G01*
X-29000500Y8455800D01*
G75*
G02*
X-28853000Y8308300I0J-147500D01*
G01*
G37*
G36*
G01*
X-13923600Y22034900D02*
X-13923600Y22379900D01*
G75*
G02*
X-13776100Y22527400I147500J0D01*
G01*
X-13481100Y22527400D01*
G75*
G02*
X-13333600Y22379900I0J-147500D01*
G01*
X-13333600Y22034900D01*
G75*
G02*
X-13481100Y21887400I-147500J0D01*
G01*
X-13776100Y21887400D01*
G75*
G02*
X-13923600Y22034900I0J147500D01*
G01*
G37*
G36*
G01*
X-14893600Y22034900D02*
X-14893600Y22379900D01*
G75*
G02*
X-14746100Y22527400I147500J0D01*
G01*
X-14451100Y22527400D01*
G75*
G02*
X-14303600Y22379900I0J-147500D01*
G01*
X-14303600Y22034900D01*
G75*
G02*
X-14451100Y21887400I-147500J0D01*
G01*
X-14746100Y21887400D01*
G75*
G02*
X-14893600Y22034900I0J147500D01*
G01*
G37*
G36*
G01*
X-13923600Y23050900D02*
X-13923600Y23395900D01*
G75*
G02*
X-13776100Y23543400I147500J0D01*
G01*
X-13481100Y23543400D01*
G75*
G02*
X-13333600Y23395900I0J-147500D01*
G01*
X-13333600Y23050900D01*
G75*
G02*
X-13481100Y22903400I-147500J0D01*
G01*
X-13776100Y22903400D01*
G75*
G02*
X-13923600Y23050900I0J147500D01*
G01*
G37*
G36*
G01*
X-14893600Y23050900D02*
X-14893600Y23395900D01*
G75*
G02*
X-14746100Y23543400I147500J0D01*
G01*
X-14451100Y23543400D01*
G75*
G02*
X-14303600Y23395900I0J-147500D01*
G01*
X-14303600Y23050900D01*
G75*
G02*
X-14451100Y22903400I-147500J0D01*
G01*
X-14746100Y22903400D01*
G75*
G02*
X-14893600Y23050900I0J147500D01*
G01*
G37*
G36*
G01*
X-13923600Y21018900D02*
X-13923600Y21363900D01*
G75*
G02*
X-13776100Y21511400I147500J0D01*
G01*
X-13481100Y21511400D01*
G75*
G02*
X-13333600Y21363900I0J-147500D01*
G01*
X-13333600Y21018900D01*
G75*
G02*
X-13481100Y20871400I-147500J0D01*
G01*
X-13776100Y20871400D01*
G75*
G02*
X-13923600Y21018900I0J147500D01*
G01*
G37*
G36*
G01*
X-14893600Y21018900D02*
X-14893600Y21363900D01*
G75*
G02*
X-14746100Y21511400I147500J0D01*
G01*
X-14451100Y21511400D01*
G75*
G02*
X-14303600Y21363900I0J-147500D01*
G01*
X-14303600Y21018900D01*
G75*
G02*
X-14451100Y20871400I-147500J0D01*
G01*
X-14746100Y20871400D01*
G75*
G02*
X-14893600Y21018900I0J147500D01*
G01*
G37*
G36*
G01*
X-21829900Y25167000D02*
X-21484900Y25167000D01*
G75*
G02*
X-21337400Y25019500I0J-147500D01*
G01*
X-21337400Y24724500D01*
G75*
G02*
X-21484900Y24577000I-147500J0D01*
G01*
X-21829900Y24577000D01*
G75*
G02*
X-21977400Y24724500I0J147500D01*
G01*
X-21977400Y25019500D01*
G75*
G02*
X-21829900Y25167000I147500J0D01*
G01*
G37*
G36*
G01*
X-21829900Y26137000D02*
X-21484900Y26137000D01*
G75*
G02*
X-21337400Y25989500I0J-147500D01*
G01*
X-21337400Y25694500D01*
G75*
G02*
X-21484900Y25547000I-147500J0D01*
G01*
X-21829900Y25547000D01*
G75*
G02*
X-21977400Y25694500I0J147500D01*
G01*
X-21977400Y25989500D01*
G75*
G02*
X-21829900Y26137000I147500J0D01*
G01*
G37*
G36*
G01*
X-21484900Y23616600D02*
X-21829900Y23616600D01*
G75*
G02*
X-21977400Y23764100I0J147500D01*
G01*
X-21977400Y24059100D01*
G75*
G02*
X-21829900Y24206600I147500J0D01*
G01*
X-21484900Y24206600D01*
G75*
G02*
X-21337400Y24059100I0J-147500D01*
G01*
X-21337400Y23764100D01*
G75*
G02*
X-21484900Y23616600I-147500J0D01*
G01*
G37*
G36*
G01*
X-21484900Y22646600D02*
X-21829900Y22646600D01*
G75*
G02*
X-21977400Y22794100I0J147500D01*
G01*
X-21977400Y23089100D01*
G75*
G02*
X-21829900Y23236600I147500J0D01*
G01*
X-21484900Y23236600D01*
G75*
G02*
X-21337400Y23089100I0J-147500D01*
G01*
X-21337400Y22794100D01*
G75*
G02*
X-21484900Y22646600I-147500J0D01*
G01*
G37*
G36*
G01*
X-15831000Y18123300D02*
X-15831000Y18468300D01*
G75*
G02*
X-15683500Y18615800I147500J0D01*
G01*
X-15388500Y18615800D01*
G75*
G02*
X-15241000Y18468300I0J-147500D01*
G01*
X-15241000Y18123300D01*
G75*
G02*
X-15388500Y17975800I-147500J0D01*
G01*
X-15683500Y17975800D01*
G75*
G02*
X-15831000Y18123300I0J147500D01*
G01*
G37*
G36*
G01*
X-16801000Y18123300D02*
X-16801000Y18468300D01*
G75*
G02*
X-16653500Y18615800I147500J0D01*
G01*
X-16358500Y18615800D01*
G75*
G02*
X-16211000Y18468300I0J-147500D01*
G01*
X-16211000Y18123300D01*
G75*
G02*
X-16358500Y17975800I-147500J0D01*
G01*
X-16653500Y17975800D01*
G75*
G02*
X-16801000Y18123300I0J147500D01*
G01*
G37*
G36*
G01*
X-28883200Y50497700D02*
X-28883200Y50152700D01*
G75*
G02*
X-29030700Y50005200I-147500J0D01*
G01*
X-29325700Y50005200D01*
G75*
G02*
X-29473200Y50152700I0J147500D01*
G01*
X-29473200Y50497700D01*
G75*
G02*
X-29325700Y50645200I147500J0D01*
G01*
X-29030700Y50645200D01*
G75*
G02*
X-28883200Y50497700I0J-147500D01*
G01*
G37*
G36*
G01*
X-27913200Y50497700D02*
X-27913200Y50152700D01*
G75*
G02*
X-28060700Y50005200I-147500J0D01*
G01*
X-28355700Y50005200D01*
G75*
G02*
X-28503200Y50152700I0J147500D01*
G01*
X-28503200Y50497700D01*
G75*
G02*
X-28355700Y50645200I147500J0D01*
G01*
X-28060700Y50645200D01*
G75*
G02*
X-27913200Y50497700I0J-147500D01*
G01*
G37*
D21*
X-27974200Y28239800D03*
X-30174200Y28239800D03*
X-30174200Y26639800D03*
X-27974200Y26639800D03*
D22*
X-25117200Y27770000D03*
X-22617200Y27770000D03*
D23*
X-36207380Y11891179D03*
X-36207380Y8691179D03*
X-38707380Y11891179D03*
X-38707380Y8691179D03*
X-33707380Y8691179D03*
X-33707380Y11891179D03*
G36*
G01*
X-15109800Y19411150D02*
X-15109800Y19923650D01*
G75*
G02*
X-14891050Y20142400I218750J0D01*
G01*
X-14453550Y20142400D01*
G75*
G02*
X-14234800Y19923650I0J-218750D01*
G01*
X-14234800Y19411150D01*
G75*
G02*
X-14453550Y19192400I-218750J0D01*
G01*
X-14891050Y19192400D01*
G75*
G02*
X-15109800Y19411150I0J218750D01*
G01*
G37*
G36*
G01*
X-16684800Y19411150D02*
X-16684800Y19923650D01*
G75*
G02*
X-16466050Y20142400I218750J0D01*
G01*
X-16028550Y20142400D01*
G75*
G02*
X-15809800Y19923650I0J-218750D01*
G01*
X-15809800Y19411150D01*
G75*
G02*
X-16028550Y19192400I-218750J0D01*
G01*
X-16466050Y19192400D01*
G75*
G02*
X-16684800Y19411150I0J218750D01*
G01*
G37*
G36*
G01*
X-29289800Y16451600D02*
X-29289800Y17701600D01*
G75*
G02*
X-29039800Y17951600I250000J0D01*
G01*
X-28289800Y17951600D01*
G75*
G02*
X-28039800Y17701600I0J-250000D01*
G01*
X-28039800Y16451600D01*
G75*
G02*
X-28289800Y16201600I-250000J0D01*
G01*
X-29039800Y16201600D01*
G75*
G02*
X-29289800Y16451600I0J250000D01*
G01*
G37*
G36*
G01*
X-32089800Y16451600D02*
X-32089800Y17701600D01*
G75*
G02*
X-31839800Y17951600I250000J0D01*
G01*
X-31089800Y17951600D01*
G75*
G02*
X-30839800Y17701600I0J-250000D01*
G01*
X-30839800Y16451600D01*
G75*
G02*
X-31089800Y16201600I-250000J0D01*
G01*
X-31839800Y16201600D01*
G75*
G02*
X-32089800Y16451600I0J250000D01*
G01*
G37*
D24*
X-29684063Y11064197D03*
X-29684063Y9564197D03*
X-30784063Y9564197D03*
X-30784063Y11064197D03*
D25*
X-35170200Y25553600D03*
X-35170200Y21553600D03*
D26*
X-27842800Y20835800D03*
X-31842800Y20835800D03*
M02*
