G04 #@! TF.GenerationSoftware,KiCad,Pcbnew,(5.99.0-2290-gd34f8fd4b)*
G04 #@! TF.CreationDate,2020-11-06T19:29:51+01:00*
G04 #@! TF.ProjectId,Tympan-Nya,54796d70-616e-42d4-9e79-612e6b696361,rev?*
G04 #@! TF.SameCoordinates,PX6d878d0PY72e6100*
G04 #@! TF.FileFunction,Other,ECO1*
%FSLAX46Y46*%
G04 Gerber Fmt 4.6, Leading zero omitted, Abs format (unit mm)*
G04 Created by KiCad (PCBNEW (5.99.0-2290-gd34f8fd4b)) date 2020-11-06 19:29:51*
%MOMM*%
%LPD*%
G01*
G04 APERTURE LIST*
%ADD10C,0.150000*%
%ADD11C,0.400000*%
G04 APERTURE END LIST*
D10*
X-23512400Y7348400D02*
X-23512400Y52348400D01*
X-22232115Y31996448D02*
X-22898781Y31996448D01*
X-21851162Y32234543D02*
X-22565448Y32472639D01*
X-22565448Y31853591D01*
X-21898781Y30996448D02*
X-21898781Y31472639D01*
X-22374972Y31520258D01*
X-22327353Y31472639D01*
X-22279734Y31377400D01*
X-22279734Y31139305D01*
X-22327353Y31044067D01*
X-22374972Y30996448D01*
X-22470210Y30948829D01*
X-22708305Y30948829D01*
X-22803543Y30996448D01*
X-22851162Y31044067D01*
X-22898781Y31139305D01*
X-22898781Y31377400D01*
X-22851162Y31472639D01*
X-22803543Y31520258D01*
X-22898781Y30520258D02*
X-22232115Y30520258D01*
X-22327353Y30520258D02*
X-22279734Y30472639D01*
X-22232115Y30377400D01*
X-22232115Y30234543D01*
X-22279734Y30139305D01*
X-22374972Y30091686D01*
X-22898781Y30091686D01*
X-22374972Y30091686D02*
X-22279734Y30044067D01*
X-22232115Y29948829D01*
X-22232115Y29805972D01*
X-22279734Y29710734D01*
X-22374972Y29663115D01*
X-22898781Y29663115D01*
X-22898781Y29186924D02*
X-22232115Y29186924D01*
X-22327353Y29186924D02*
X-22279734Y29139305D01*
X-22232115Y29044067D01*
X-22232115Y28901210D01*
X-22279734Y28805972D01*
X-22374972Y28758353D01*
X-22898781Y28758353D01*
X-22374972Y28758353D02*
X-22279734Y28710734D01*
X-22232115Y28615496D01*
X-22232115Y28472639D01*
X-22279734Y28377400D01*
X-22374972Y28329781D01*
X-22898781Y28329781D01*
X-25606839Y53673181D02*
X-25559220Y53720800D01*
X-25463981Y53768420D01*
X-25225886Y53768420D01*
X-25130648Y53720800D01*
X-25083029Y53673181D01*
X-25035410Y53577943D01*
X-25035410Y53482705D01*
X-25083029Y53339848D01*
X-25654458Y52768420D01*
X-25035410Y52768420D01*
X-24654458Y53673181D02*
X-24606839Y53720800D01*
X-24511600Y53768420D01*
X-24273505Y53768420D01*
X-24178267Y53720800D01*
X-24130648Y53673181D01*
X-24083029Y53577943D01*
X-24083029Y53482705D01*
X-24130648Y53339848D01*
X-24702077Y52768420D01*
X-24083029Y52768420D01*
X-23654458Y52768420D02*
X-23654458Y53435086D01*
X-23654458Y53339848D02*
X-23606839Y53387467D01*
X-23511600Y53435086D01*
X-23368743Y53435086D01*
X-23273505Y53387467D01*
X-23225886Y53292229D01*
X-23225886Y52768420D01*
X-23225886Y53292229D02*
X-23178267Y53387467D01*
X-23083029Y53435086D01*
X-22940172Y53435086D01*
X-22844934Y53387467D01*
X-22797315Y53292229D01*
X-22797315Y52768420D01*
X-22321124Y52768420D02*
X-22321124Y53435086D01*
X-22321124Y53339848D02*
X-22273505Y53387467D01*
X-22178267Y53435086D01*
X-22035410Y53435086D01*
X-21940172Y53387467D01*
X-21892553Y53292229D01*
X-21892553Y52768420D01*
X-21892553Y53292229D02*
X-21844934Y53387467D01*
X-21749696Y53435086D01*
X-21606839Y53435086D01*
X-21511600Y53387467D01*
X-21463981Y53292229D01*
X-21463981Y52768420D01*
X-25605258Y6795020D02*
X-24986210Y6795020D01*
X-25319543Y6414067D01*
X-25176686Y6414067D01*
X-25081448Y6366448D01*
X-25033829Y6318829D01*
X-24986210Y6223591D01*
X-24986210Y5985496D01*
X-25033829Y5890258D01*
X-25081448Y5842639D01*
X-25176686Y5795020D01*
X-25462400Y5795020D01*
X-25557639Y5842639D01*
X-25605258Y5890258D01*
X-24414781Y6366448D02*
X-24510020Y6414067D01*
X-24557639Y6461686D01*
X-24605258Y6556924D01*
X-24605258Y6604543D01*
X-24557639Y6699781D01*
X-24510020Y6747400D01*
X-24414781Y6795020D01*
X-24224305Y6795020D01*
X-24129067Y6747400D01*
X-24081448Y6699781D01*
X-24033829Y6604543D01*
X-24033829Y6556924D01*
X-24081448Y6461686D01*
X-24129067Y6414067D01*
X-24224305Y6366448D01*
X-24414781Y6366448D01*
X-24510020Y6318829D01*
X-24557639Y6271210D01*
X-24605258Y6175972D01*
X-24605258Y5985496D01*
X-24557639Y5890258D01*
X-24510020Y5842639D01*
X-24414781Y5795020D01*
X-24224305Y5795020D01*
X-24129067Y5842639D01*
X-24081448Y5890258D01*
X-24033829Y5985496D01*
X-24033829Y6175972D01*
X-24081448Y6271210D01*
X-24129067Y6318829D01*
X-24224305Y6366448D01*
X-23605258Y5795020D02*
X-23605258Y6461686D01*
X-23605258Y6366448D02*
X-23557639Y6414067D01*
X-23462400Y6461686D01*
X-23319543Y6461686D01*
X-23224305Y6414067D01*
X-23176686Y6318829D01*
X-23176686Y5795020D01*
X-23176686Y6318829D02*
X-23129067Y6414067D01*
X-23033829Y6461686D01*
X-22890972Y6461686D01*
X-22795734Y6414067D01*
X-22748115Y6318829D01*
X-22748115Y5795020D01*
X-22271924Y5795020D02*
X-22271924Y6461686D01*
X-22271924Y6366448D02*
X-22224305Y6414067D01*
X-22129067Y6461686D01*
X-21986210Y6461686D01*
X-21890972Y6414067D01*
X-21843353Y6318829D01*
X-21843353Y5795020D01*
X-21843353Y6318829D02*
X-21795734Y6414067D01*
X-21700496Y6461686D01*
X-21557639Y6461686D01*
X-21462400Y6414067D01*
X-21414781Y6318829D01*
X-21414781Y5795020D01*
X-4512400Y7348400D02*
X-12512400Y52348400D01*
X-34511400Y52348400D02*
X-42512400Y7348400D01*
X-42512400Y7348400D02*
X-4512400Y7348400D01*
D11*
X13442742Y31849858D02*
X13728457Y31754620D01*
X13823695Y31659381D01*
X13918933Y31468905D01*
X13918933Y31183191D01*
X13823695Y30992715D01*
X13728457Y30897477D01*
X13537980Y30802239D01*
X12776076Y30802239D01*
X12776076Y32802239D01*
X13442742Y32802239D01*
X13633219Y32707000D01*
X13728457Y32611762D01*
X13823695Y32421286D01*
X13823695Y32230810D01*
X13728457Y32040334D01*
X13633219Y31945096D01*
X13442742Y31849858D01*
X12776076Y31849858D01*
X15633219Y30802239D02*
X15633219Y31849858D01*
X15537980Y32040334D01*
X15347504Y32135572D01*
X14966552Y32135572D01*
X14776076Y32040334D01*
X15633219Y30897477D02*
X15442742Y30802239D01*
X14966552Y30802239D01*
X14776076Y30897477D01*
X14680838Y31087953D01*
X14680838Y31278429D01*
X14776076Y31468905D01*
X14966552Y31564143D01*
X15442742Y31564143D01*
X15633219Y31659381D01*
X16299885Y32135572D02*
X17061790Y32135572D01*
X16585600Y32802239D02*
X16585600Y31087953D01*
X16680838Y30897477D01*
X16871314Y30802239D01*
X17061790Y30802239D01*
X17442742Y32135572D02*
X18204647Y32135572D01*
X17728457Y32802239D02*
X17728457Y31087953D01*
X17823695Y30897477D01*
X18014171Y30802239D01*
X18204647Y30802239D01*
X19633219Y30897477D02*
X19442742Y30802239D01*
X19061790Y30802239D01*
X18871314Y30897477D01*
X18776076Y31087953D01*
X18776076Y31849858D01*
X18871314Y32040334D01*
X19061790Y32135572D01*
X19442742Y32135572D01*
X19633219Y32040334D01*
X19728457Y31849858D01*
X19728457Y31659381D01*
X18776076Y31468905D01*
X20585600Y30802239D02*
X20585600Y32135572D01*
X20585600Y31754620D02*
X20680838Y31945096D01*
X20776076Y32040334D01*
X20966552Y32135572D01*
X21157028Y32135572D01*
X21633219Y32135572D02*
X22109409Y30802239D01*
X22585600Y32135572D02*
X22109409Y30802239D01*
X21918933Y30326048D01*
X21823695Y30230810D01*
X21633219Y30135572D01*
D10*
X2317600Y49768000D02*
X32317600Y11768000D01*
M02*
