G04 #@! TF.GenerationSoftware,KiCad,Pcbnew,(5.99.0-2290-gd34f8fd4b)*
G04 #@! TF.CreationDate,2020-11-06T19:29:50+01:00*
G04 #@! TF.ProjectId,Tympan-Nya,54796d70-616e-42d4-9e79-612e6b696361,rev?*
G04 #@! TF.SameCoordinates,PX6d878d0PY72e6100*
G04 #@! TF.FileFunction,Paste,Top*
G04 #@! TF.FilePolarity,Positive*
%FSLAX46Y46*%
G04 Gerber Fmt 4.6, Leading zero omitted, Abs format (unit mm)*
G04 Created by KiCad (PCBNEW (5.99.0-2290-gd34f8fd4b)) date 2020-11-06 19:29:50*
%MOMM*%
%LPD*%
G01*
G04 APERTURE LIST*
%ADD10R,2.200000X2.800000*%
%ADD11R,2.800000X2.800000*%
%ADD12R,0.650000X1.060000*%
%ADD13R,0.600000X1.000000*%
%ADD14R,1.000000X0.600000*%
%ADD15R,0.500000X0.400000*%
%ADD16R,3.500000X1.000000*%
%ADD17R,3.400000X1.500000*%
G04 APERTURE END LIST*
G36*
G01*
X-22061000Y48658000D02*
X-22581000Y48658000D01*
G75*
G02*
X-22831000Y48908000I0J250000D01*
G01*
X-22831000Y49428000D01*
G75*
G02*
X-22581000Y49678000I250000J0D01*
G01*
X-22061000Y49678000D01*
G75*
G02*
X-21811000Y49428000I0J-250000D01*
G01*
X-21811000Y48908000D01*
G75*
G02*
X-22061000Y48658000I-250000J0D01*
G01*
G37*
G36*
G01*
X-23331000Y48658000D02*
X-23851000Y48658000D01*
G75*
G02*
X-24101000Y48908000I0J250000D01*
G01*
X-24101000Y49428000D01*
G75*
G02*
X-23851000Y49678000I250000J0D01*
G01*
X-23331000Y49678000D01*
G75*
G02*
X-23081000Y49428000I0J-250000D01*
G01*
X-23081000Y48908000D01*
G75*
G02*
X-23331000Y48658000I-250000J0D01*
G01*
G37*
G36*
G01*
X-24601000Y48658000D02*
X-25121000Y48658000D01*
G75*
G02*
X-25371000Y48908000I0J250000D01*
G01*
X-25371000Y49428000D01*
G75*
G02*
X-25121000Y49678000I250000J0D01*
G01*
X-24601000Y49678000D01*
G75*
G02*
X-24351000Y49428000I0J-250000D01*
G01*
X-24351000Y48908000D01*
G75*
G02*
X-24601000Y48658000I-250000J0D01*
G01*
G37*
G36*
G01*
X-22061000Y47388000D02*
X-22581000Y47388000D01*
G75*
G02*
X-22831000Y47638000I0J250000D01*
G01*
X-22831000Y48158000D01*
G75*
G02*
X-22581000Y48408000I250000J0D01*
G01*
X-22061000Y48408000D01*
G75*
G02*
X-21811000Y48158000I0J-250000D01*
G01*
X-21811000Y47638000D01*
G75*
G02*
X-22061000Y47388000I-250000J0D01*
G01*
G37*
G36*
G01*
X-23331000Y47388000D02*
X-23851000Y47388000D01*
G75*
G02*
X-24101000Y47638000I0J250000D01*
G01*
X-24101000Y48158000D01*
G75*
G02*
X-23851000Y48408000I250000J0D01*
G01*
X-23331000Y48408000D01*
G75*
G02*
X-23081000Y48158000I0J-250000D01*
G01*
X-23081000Y47638000D01*
G75*
G02*
X-23331000Y47388000I-250000J0D01*
G01*
G37*
G36*
G01*
X-24601000Y47388000D02*
X-25121000Y47388000D01*
G75*
G02*
X-25371000Y47638000I0J250000D01*
G01*
X-25371000Y48158000D01*
G75*
G02*
X-25121000Y48408000I250000J0D01*
G01*
X-24601000Y48408000D01*
G75*
G02*
X-24351000Y48158000I0J-250000D01*
G01*
X-24351000Y47638000D01*
G75*
G02*
X-24601000Y47388000I-250000J0D01*
G01*
G37*
G36*
G01*
X-22061000Y46118000D02*
X-22581000Y46118000D01*
G75*
G02*
X-22831000Y46368000I0J250000D01*
G01*
X-22831000Y46888000D01*
G75*
G02*
X-22581000Y47138000I250000J0D01*
G01*
X-22061000Y47138000D01*
G75*
G02*
X-21811000Y46888000I0J-250000D01*
G01*
X-21811000Y46368000D01*
G75*
G02*
X-22061000Y46118000I-250000J0D01*
G01*
G37*
G36*
G01*
X-23331000Y46118000D02*
X-23851000Y46118000D01*
G75*
G02*
X-24101000Y46368000I0J250000D01*
G01*
X-24101000Y46888000D01*
G75*
G02*
X-23851000Y47138000I250000J0D01*
G01*
X-23331000Y47138000D01*
G75*
G02*
X-23081000Y46888000I0J-250000D01*
G01*
X-23081000Y46368000D01*
G75*
G02*
X-23331000Y46118000I-250000J0D01*
G01*
G37*
G36*
G01*
X-24601000Y46118000D02*
X-25121000Y46118000D01*
G75*
G02*
X-25371000Y46368000I0J250000D01*
G01*
X-25371000Y46888000D01*
G75*
G02*
X-25121000Y47138000I250000J0D01*
G01*
X-24601000Y47138000D01*
G75*
G02*
X-24351000Y46888000I0J-250000D01*
G01*
X-24351000Y46368000D01*
G75*
G02*
X-24601000Y46118000I-250000J0D01*
G01*
G37*
G36*
G01*
X-25741000Y45998000D02*
X-26391000Y45998000D01*
G75*
G02*
X-26441000Y46048000I0J50000D01*
G01*
X-26441000Y46148000D01*
G75*
G02*
X-26391000Y46198000I50000J0D01*
G01*
X-25741000Y46198000D01*
G75*
G02*
X-25691000Y46148000I0J-50000D01*
G01*
X-25691000Y46048000D01*
G75*
G02*
X-25741000Y45998000I-50000J0D01*
G01*
G37*
G36*
G01*
X-25741000Y46398000D02*
X-26391000Y46398000D01*
G75*
G02*
X-26441000Y46448000I0J50000D01*
G01*
X-26441000Y46548000D01*
G75*
G02*
X-26391000Y46598000I50000J0D01*
G01*
X-25741000Y46598000D01*
G75*
G02*
X-25691000Y46548000I0J-50000D01*
G01*
X-25691000Y46448000D01*
G75*
G02*
X-25741000Y46398000I-50000J0D01*
G01*
G37*
G36*
G01*
X-25741000Y46798000D02*
X-26391000Y46798000D01*
G75*
G02*
X-26441000Y46848000I0J50000D01*
G01*
X-26441000Y46948000D01*
G75*
G02*
X-26391000Y46998000I50000J0D01*
G01*
X-25741000Y46998000D01*
G75*
G02*
X-25691000Y46948000I0J-50000D01*
G01*
X-25691000Y46848000D01*
G75*
G02*
X-25741000Y46798000I-50000J0D01*
G01*
G37*
G36*
G01*
X-25741000Y47198000D02*
X-26391000Y47198000D01*
G75*
G02*
X-26441000Y47248000I0J50000D01*
G01*
X-26441000Y47348000D01*
G75*
G02*
X-26391000Y47398000I50000J0D01*
G01*
X-25741000Y47398000D01*
G75*
G02*
X-25691000Y47348000I0J-50000D01*
G01*
X-25691000Y47248000D01*
G75*
G02*
X-25741000Y47198000I-50000J0D01*
G01*
G37*
G36*
G01*
X-25741000Y47598000D02*
X-26391000Y47598000D01*
G75*
G02*
X-26441000Y47648000I0J50000D01*
G01*
X-26441000Y47748000D01*
G75*
G02*
X-26391000Y47798000I50000J0D01*
G01*
X-25741000Y47798000D01*
G75*
G02*
X-25691000Y47748000I0J-50000D01*
G01*
X-25691000Y47648000D01*
G75*
G02*
X-25741000Y47598000I-50000J0D01*
G01*
G37*
G36*
G01*
X-25741000Y47998000D02*
X-26391000Y47998000D01*
G75*
G02*
X-26441000Y48048000I0J50000D01*
G01*
X-26441000Y48148000D01*
G75*
G02*
X-26391000Y48198000I50000J0D01*
G01*
X-25741000Y48198000D01*
G75*
G02*
X-25691000Y48148000I0J-50000D01*
G01*
X-25691000Y48048000D01*
G75*
G02*
X-25741000Y47998000I-50000J0D01*
G01*
G37*
G36*
G01*
X-25741000Y48398000D02*
X-26391000Y48398000D01*
G75*
G02*
X-26441000Y48448000I0J50000D01*
G01*
X-26441000Y48548000D01*
G75*
G02*
X-26391000Y48598000I50000J0D01*
G01*
X-25741000Y48598000D01*
G75*
G02*
X-25691000Y48548000I0J-50000D01*
G01*
X-25691000Y48448000D01*
G75*
G02*
X-25741000Y48398000I-50000J0D01*
G01*
G37*
G36*
G01*
X-25741000Y48798000D02*
X-26391000Y48798000D01*
G75*
G02*
X-26441000Y48848000I0J50000D01*
G01*
X-26441000Y48948000D01*
G75*
G02*
X-26391000Y48998000I50000J0D01*
G01*
X-25741000Y48998000D01*
G75*
G02*
X-25691000Y48948000I0J-50000D01*
G01*
X-25691000Y48848000D01*
G75*
G02*
X-25741000Y48798000I-50000J0D01*
G01*
G37*
G36*
G01*
X-25741000Y49198000D02*
X-26391000Y49198000D01*
G75*
G02*
X-26441000Y49248000I0J50000D01*
G01*
X-26441000Y49348000D01*
G75*
G02*
X-26391000Y49398000I50000J0D01*
G01*
X-25741000Y49398000D01*
G75*
G02*
X-25691000Y49348000I0J-50000D01*
G01*
X-25691000Y49248000D01*
G75*
G02*
X-25741000Y49198000I-50000J0D01*
G01*
G37*
G36*
G01*
X-25741000Y49598000D02*
X-26391000Y49598000D01*
G75*
G02*
X-26441000Y49648000I0J50000D01*
G01*
X-26441000Y49748000D01*
G75*
G02*
X-26391000Y49798000I50000J0D01*
G01*
X-25741000Y49798000D01*
G75*
G02*
X-25691000Y49748000I0J-50000D01*
G01*
X-25691000Y49648000D01*
G75*
G02*
X-25741000Y49598000I-50000J0D01*
G01*
G37*
G36*
G01*
X-25341000Y49998000D02*
X-25441000Y49998000D01*
G75*
G02*
X-25491000Y50048000I0J50000D01*
G01*
X-25491000Y50698000D01*
G75*
G02*
X-25441000Y50748000I50000J0D01*
G01*
X-25341000Y50748000D01*
G75*
G02*
X-25291000Y50698000I0J-50000D01*
G01*
X-25291000Y50048000D01*
G75*
G02*
X-25341000Y49998000I-50000J0D01*
G01*
G37*
G36*
G01*
X-24941000Y49998000D02*
X-25041000Y49998000D01*
G75*
G02*
X-25091000Y50048000I0J50000D01*
G01*
X-25091000Y50698000D01*
G75*
G02*
X-25041000Y50748000I50000J0D01*
G01*
X-24941000Y50748000D01*
G75*
G02*
X-24891000Y50698000I0J-50000D01*
G01*
X-24891000Y50048000D01*
G75*
G02*
X-24941000Y49998000I-50000J0D01*
G01*
G37*
G36*
G01*
X-24541000Y49998000D02*
X-24641000Y49998000D01*
G75*
G02*
X-24691000Y50048000I0J50000D01*
G01*
X-24691000Y50698000D01*
G75*
G02*
X-24641000Y50748000I50000J0D01*
G01*
X-24541000Y50748000D01*
G75*
G02*
X-24491000Y50698000I0J-50000D01*
G01*
X-24491000Y50048000D01*
G75*
G02*
X-24541000Y49998000I-50000J0D01*
G01*
G37*
G36*
G01*
X-24141000Y49998000D02*
X-24241000Y49998000D01*
G75*
G02*
X-24291000Y50048000I0J50000D01*
G01*
X-24291000Y50698000D01*
G75*
G02*
X-24241000Y50748000I50000J0D01*
G01*
X-24141000Y50748000D01*
G75*
G02*
X-24091000Y50698000I0J-50000D01*
G01*
X-24091000Y50048000D01*
G75*
G02*
X-24141000Y49998000I-50000J0D01*
G01*
G37*
G36*
G01*
X-23741000Y49998000D02*
X-23841000Y49998000D01*
G75*
G02*
X-23891000Y50048000I0J50000D01*
G01*
X-23891000Y50698000D01*
G75*
G02*
X-23841000Y50748000I50000J0D01*
G01*
X-23741000Y50748000D01*
G75*
G02*
X-23691000Y50698000I0J-50000D01*
G01*
X-23691000Y50048000D01*
G75*
G02*
X-23741000Y49998000I-50000J0D01*
G01*
G37*
G36*
G01*
X-23341000Y49998000D02*
X-23441000Y49998000D01*
G75*
G02*
X-23491000Y50048000I0J50000D01*
G01*
X-23491000Y50698000D01*
G75*
G02*
X-23441000Y50748000I50000J0D01*
G01*
X-23341000Y50748000D01*
G75*
G02*
X-23291000Y50698000I0J-50000D01*
G01*
X-23291000Y50048000D01*
G75*
G02*
X-23341000Y49998000I-50000J0D01*
G01*
G37*
G36*
G01*
X-22941000Y49998000D02*
X-23041000Y49998000D01*
G75*
G02*
X-23091000Y50048000I0J50000D01*
G01*
X-23091000Y50698000D01*
G75*
G02*
X-23041000Y50748000I50000J0D01*
G01*
X-22941000Y50748000D01*
G75*
G02*
X-22891000Y50698000I0J-50000D01*
G01*
X-22891000Y50048000D01*
G75*
G02*
X-22941000Y49998000I-50000J0D01*
G01*
G37*
G36*
G01*
X-22541000Y49998000D02*
X-22641000Y49998000D01*
G75*
G02*
X-22691000Y50048000I0J50000D01*
G01*
X-22691000Y50698000D01*
G75*
G02*
X-22641000Y50748000I50000J0D01*
G01*
X-22541000Y50748000D01*
G75*
G02*
X-22491000Y50698000I0J-50000D01*
G01*
X-22491000Y50048000D01*
G75*
G02*
X-22541000Y49998000I-50000J0D01*
G01*
G37*
G36*
G01*
X-22141000Y49998000D02*
X-22241000Y49998000D01*
G75*
G02*
X-22291000Y50048000I0J50000D01*
G01*
X-22291000Y50698000D01*
G75*
G02*
X-22241000Y50748000I50000J0D01*
G01*
X-22141000Y50748000D01*
G75*
G02*
X-22091000Y50698000I0J-50000D01*
G01*
X-22091000Y50048000D01*
G75*
G02*
X-22141000Y49998000I-50000J0D01*
G01*
G37*
G36*
G01*
X-21741000Y49998000D02*
X-21841000Y49998000D01*
G75*
G02*
X-21891000Y50048000I0J50000D01*
G01*
X-21891000Y50698000D01*
G75*
G02*
X-21841000Y50748000I50000J0D01*
G01*
X-21741000Y50748000D01*
G75*
G02*
X-21691000Y50698000I0J-50000D01*
G01*
X-21691000Y50048000D01*
G75*
G02*
X-21741000Y49998000I-50000J0D01*
G01*
G37*
G36*
G01*
X-20791000Y49598000D02*
X-21441000Y49598000D01*
G75*
G02*
X-21491000Y49648000I0J50000D01*
G01*
X-21491000Y49748000D01*
G75*
G02*
X-21441000Y49798000I50000J0D01*
G01*
X-20791000Y49798000D01*
G75*
G02*
X-20741000Y49748000I0J-50000D01*
G01*
X-20741000Y49648000D01*
G75*
G02*
X-20791000Y49598000I-50000J0D01*
G01*
G37*
G36*
G01*
X-20791000Y49198000D02*
X-21441000Y49198000D01*
G75*
G02*
X-21491000Y49248000I0J50000D01*
G01*
X-21491000Y49348000D01*
G75*
G02*
X-21441000Y49398000I50000J0D01*
G01*
X-20791000Y49398000D01*
G75*
G02*
X-20741000Y49348000I0J-50000D01*
G01*
X-20741000Y49248000D01*
G75*
G02*
X-20791000Y49198000I-50000J0D01*
G01*
G37*
G36*
G01*
X-20791000Y48798000D02*
X-21441000Y48798000D01*
G75*
G02*
X-21491000Y48848000I0J50000D01*
G01*
X-21491000Y48948000D01*
G75*
G02*
X-21441000Y48998000I50000J0D01*
G01*
X-20791000Y48998000D01*
G75*
G02*
X-20741000Y48948000I0J-50000D01*
G01*
X-20741000Y48848000D01*
G75*
G02*
X-20791000Y48798000I-50000J0D01*
G01*
G37*
G36*
G01*
X-20791000Y48398000D02*
X-21441000Y48398000D01*
G75*
G02*
X-21491000Y48448000I0J50000D01*
G01*
X-21491000Y48548000D01*
G75*
G02*
X-21441000Y48598000I50000J0D01*
G01*
X-20791000Y48598000D01*
G75*
G02*
X-20741000Y48548000I0J-50000D01*
G01*
X-20741000Y48448000D01*
G75*
G02*
X-20791000Y48398000I-50000J0D01*
G01*
G37*
G36*
G01*
X-20791000Y47998000D02*
X-21441000Y47998000D01*
G75*
G02*
X-21491000Y48048000I0J50000D01*
G01*
X-21491000Y48148000D01*
G75*
G02*
X-21441000Y48198000I50000J0D01*
G01*
X-20791000Y48198000D01*
G75*
G02*
X-20741000Y48148000I0J-50000D01*
G01*
X-20741000Y48048000D01*
G75*
G02*
X-20791000Y47998000I-50000J0D01*
G01*
G37*
G36*
G01*
X-20791000Y47598000D02*
X-21441000Y47598000D01*
G75*
G02*
X-21491000Y47648000I0J50000D01*
G01*
X-21491000Y47748000D01*
G75*
G02*
X-21441000Y47798000I50000J0D01*
G01*
X-20791000Y47798000D01*
G75*
G02*
X-20741000Y47748000I0J-50000D01*
G01*
X-20741000Y47648000D01*
G75*
G02*
X-20791000Y47598000I-50000J0D01*
G01*
G37*
G36*
G01*
X-20791000Y47198000D02*
X-21441000Y47198000D01*
G75*
G02*
X-21491000Y47248000I0J50000D01*
G01*
X-21491000Y47348000D01*
G75*
G02*
X-21441000Y47398000I50000J0D01*
G01*
X-20791000Y47398000D01*
G75*
G02*
X-20741000Y47348000I0J-50000D01*
G01*
X-20741000Y47248000D01*
G75*
G02*
X-20791000Y47198000I-50000J0D01*
G01*
G37*
G36*
G01*
X-20791000Y46798000D02*
X-21441000Y46798000D01*
G75*
G02*
X-21491000Y46848000I0J50000D01*
G01*
X-21491000Y46948000D01*
G75*
G02*
X-21441000Y46998000I50000J0D01*
G01*
X-20791000Y46998000D01*
G75*
G02*
X-20741000Y46948000I0J-50000D01*
G01*
X-20741000Y46848000D01*
G75*
G02*
X-20791000Y46798000I-50000J0D01*
G01*
G37*
G36*
G01*
X-20791000Y46398000D02*
X-21441000Y46398000D01*
G75*
G02*
X-21491000Y46448000I0J50000D01*
G01*
X-21491000Y46548000D01*
G75*
G02*
X-21441000Y46598000I50000J0D01*
G01*
X-20791000Y46598000D01*
G75*
G02*
X-20741000Y46548000I0J-50000D01*
G01*
X-20741000Y46448000D01*
G75*
G02*
X-20791000Y46398000I-50000J0D01*
G01*
G37*
G36*
G01*
X-20791000Y45998000D02*
X-21441000Y45998000D01*
G75*
G02*
X-21491000Y46048000I0J50000D01*
G01*
X-21491000Y46148000D01*
G75*
G02*
X-21441000Y46198000I50000J0D01*
G01*
X-20791000Y46198000D01*
G75*
G02*
X-20741000Y46148000I0J-50000D01*
G01*
X-20741000Y46048000D01*
G75*
G02*
X-20791000Y45998000I-50000J0D01*
G01*
G37*
G36*
G01*
X-21741000Y45048000D02*
X-21841000Y45048000D01*
G75*
G02*
X-21891000Y45098000I0J50000D01*
G01*
X-21891000Y45748000D01*
G75*
G02*
X-21841000Y45798000I50000J0D01*
G01*
X-21741000Y45798000D01*
G75*
G02*
X-21691000Y45748000I0J-50000D01*
G01*
X-21691000Y45098000D01*
G75*
G02*
X-21741000Y45048000I-50000J0D01*
G01*
G37*
G36*
G01*
X-22141000Y45048000D02*
X-22241000Y45048000D01*
G75*
G02*
X-22291000Y45098000I0J50000D01*
G01*
X-22291000Y45748000D01*
G75*
G02*
X-22241000Y45798000I50000J0D01*
G01*
X-22141000Y45798000D01*
G75*
G02*
X-22091000Y45748000I0J-50000D01*
G01*
X-22091000Y45098000D01*
G75*
G02*
X-22141000Y45048000I-50000J0D01*
G01*
G37*
G36*
G01*
X-22541000Y45048000D02*
X-22641000Y45048000D01*
G75*
G02*
X-22691000Y45098000I0J50000D01*
G01*
X-22691000Y45748000D01*
G75*
G02*
X-22641000Y45798000I50000J0D01*
G01*
X-22541000Y45798000D01*
G75*
G02*
X-22491000Y45748000I0J-50000D01*
G01*
X-22491000Y45098000D01*
G75*
G02*
X-22541000Y45048000I-50000J0D01*
G01*
G37*
G36*
G01*
X-22941000Y45048000D02*
X-23041000Y45048000D01*
G75*
G02*
X-23091000Y45098000I0J50000D01*
G01*
X-23091000Y45748000D01*
G75*
G02*
X-23041000Y45798000I50000J0D01*
G01*
X-22941000Y45798000D01*
G75*
G02*
X-22891000Y45748000I0J-50000D01*
G01*
X-22891000Y45098000D01*
G75*
G02*
X-22941000Y45048000I-50000J0D01*
G01*
G37*
G36*
G01*
X-23341000Y45048000D02*
X-23441000Y45048000D01*
G75*
G02*
X-23491000Y45098000I0J50000D01*
G01*
X-23491000Y45748000D01*
G75*
G02*
X-23441000Y45798000I50000J0D01*
G01*
X-23341000Y45798000D01*
G75*
G02*
X-23291000Y45748000I0J-50000D01*
G01*
X-23291000Y45098000D01*
G75*
G02*
X-23341000Y45048000I-50000J0D01*
G01*
G37*
G36*
G01*
X-23741000Y45048000D02*
X-23841000Y45048000D01*
G75*
G02*
X-23891000Y45098000I0J50000D01*
G01*
X-23891000Y45748000D01*
G75*
G02*
X-23841000Y45798000I50000J0D01*
G01*
X-23741000Y45798000D01*
G75*
G02*
X-23691000Y45748000I0J-50000D01*
G01*
X-23691000Y45098000D01*
G75*
G02*
X-23741000Y45048000I-50000J0D01*
G01*
G37*
G36*
G01*
X-24141000Y45048000D02*
X-24241000Y45048000D01*
G75*
G02*
X-24291000Y45098000I0J50000D01*
G01*
X-24291000Y45748000D01*
G75*
G02*
X-24241000Y45798000I50000J0D01*
G01*
X-24141000Y45798000D01*
G75*
G02*
X-24091000Y45748000I0J-50000D01*
G01*
X-24091000Y45098000D01*
G75*
G02*
X-24141000Y45048000I-50000J0D01*
G01*
G37*
G36*
G01*
X-24541000Y45048000D02*
X-24641000Y45048000D01*
G75*
G02*
X-24691000Y45098000I0J50000D01*
G01*
X-24691000Y45748000D01*
G75*
G02*
X-24641000Y45798000I50000J0D01*
G01*
X-24541000Y45798000D01*
G75*
G02*
X-24491000Y45748000I0J-50000D01*
G01*
X-24491000Y45098000D01*
G75*
G02*
X-24541000Y45048000I-50000J0D01*
G01*
G37*
G36*
G01*
X-24941000Y45048000D02*
X-25041000Y45048000D01*
G75*
G02*
X-25091000Y45098000I0J50000D01*
G01*
X-25091000Y45748000D01*
G75*
G02*
X-25041000Y45798000I50000J0D01*
G01*
X-24941000Y45798000D01*
G75*
G02*
X-24891000Y45748000I0J-50000D01*
G01*
X-24891000Y45098000D01*
G75*
G02*
X-24941000Y45048000I-50000J0D01*
G01*
G37*
G36*
G01*
X-25341000Y45048000D02*
X-25441000Y45048000D01*
G75*
G02*
X-25491000Y45098000I0J50000D01*
G01*
X-25491000Y45748000D01*
G75*
G02*
X-25441000Y45798000I50000J0D01*
G01*
X-25341000Y45798000D01*
G75*
G02*
X-25291000Y45748000I0J-50000D01*
G01*
X-25291000Y45098000D01*
G75*
G02*
X-25341000Y45048000I-50000J0D01*
G01*
G37*
G36*
X-15671348Y38448587D02*
G01*
X-14686540Y38622235D01*
X-14391338Y36948061D01*
X-15376146Y36774413D01*
X-15671348Y38448587D01*
G37*
G36*
X-16765331Y44652876D02*
G01*
X-15780523Y44826524D01*
X-15485321Y43152350D01*
X-16470129Y42978702D01*
X-16765331Y44652876D01*
G37*
G36*
X-11929079Y39108450D02*
G01*
X-10944271Y39282098D01*
X-10649069Y37607924D01*
X-11633877Y37434276D01*
X-11929079Y39108450D01*
G37*
G36*
X-13023062Y45312739D02*
G01*
X-12038254Y45486387D01*
X-11743052Y43812213D01*
X-12727860Y43638565D01*
X-13023062Y45312739D01*
G37*
G36*
G01*
X-29462400Y42655350D02*
X-29462400Y43567850D01*
G75*
G02*
X-29218650Y43811600I243750J0D01*
G01*
X-28731150Y43811600D01*
G75*
G02*
X-28487400Y43567850I0J-243750D01*
G01*
X-28487400Y42655350D01*
G75*
G02*
X-28731150Y42411600I-243750J0D01*
G01*
X-29218650Y42411600D01*
G75*
G02*
X-29462400Y42655350I0J243750D01*
G01*
G37*
G36*
G01*
X-31337400Y42655350D02*
X-31337400Y43567850D01*
G75*
G02*
X-31093650Y43811600I243750J0D01*
G01*
X-30606150Y43811600D01*
G75*
G02*
X-30362400Y43567850I0J-243750D01*
G01*
X-30362400Y42655350D01*
G75*
G02*
X-30606150Y42411600I-243750J0D01*
G01*
X-31093650Y42411600D01*
G75*
G02*
X-31337400Y42655350I0J243750D01*
G01*
G37*
G36*
G01*
X-26857200Y43567850D02*
X-26857200Y42655350D01*
G75*
G02*
X-27100950Y42411600I-243750J0D01*
G01*
X-27588450Y42411600D01*
G75*
G02*
X-27832200Y42655350I0J243750D01*
G01*
X-27832200Y43567850D01*
G75*
G02*
X-27588450Y43811600I243750J0D01*
G01*
X-27100950Y43811600D01*
G75*
G02*
X-26857200Y43567850I0J-243750D01*
G01*
G37*
G36*
G01*
X-24982200Y43567850D02*
X-24982200Y42655350D01*
G75*
G02*
X-25225950Y42411600I-243750J0D01*
G01*
X-25713450Y42411600D01*
G75*
G02*
X-25957200Y42655350I0J243750D01*
G01*
X-25957200Y43567850D01*
G75*
G02*
X-25713450Y43811600I243750J0D01*
G01*
X-25225950Y43811600D01*
G75*
G02*
X-24982200Y43567850I0J-243750D01*
G01*
G37*
D10*
X-37710000Y17703200D03*
X-39710000Y10303200D03*
D11*
X-30310000Y10303200D03*
D12*
X-34621600Y33873800D03*
X-32721600Y33873800D03*
X-32721600Y31673800D03*
X-33671600Y31673800D03*
X-34621600Y31673800D03*
G36*
G01*
X-15582200Y34807500D02*
X-15582200Y34932500D01*
G75*
G02*
X-15519700Y34995000I62500J0D01*
G01*
X-14819700Y34995000D01*
G75*
G02*
X-14757200Y34932500I0J-62500D01*
G01*
X-14757200Y34807500D01*
G75*
G02*
X-14819700Y34745000I-62500J0D01*
G01*
X-15519700Y34745000D01*
G75*
G02*
X-15582200Y34807500I0J62500D01*
G01*
G37*
G36*
G01*
X-15582200Y34307500D02*
X-15582200Y34432500D01*
G75*
G02*
X-15519700Y34495000I62500J0D01*
G01*
X-14819700Y34495000D01*
G75*
G02*
X-14757200Y34432500I0J-62500D01*
G01*
X-14757200Y34307500D01*
G75*
G02*
X-14819700Y34245000I-62500J0D01*
G01*
X-15519700Y34245000D01*
G75*
G02*
X-15582200Y34307500I0J62500D01*
G01*
G37*
G36*
G01*
X-15582200Y33807500D02*
X-15582200Y33932500D01*
G75*
G02*
X-15519700Y33995000I62500J0D01*
G01*
X-14819700Y33995000D01*
G75*
G02*
X-14757200Y33932500I0J-62500D01*
G01*
X-14757200Y33807500D01*
G75*
G02*
X-14819700Y33745000I-62500J0D01*
G01*
X-15519700Y33745000D01*
G75*
G02*
X-15582200Y33807500I0J62500D01*
G01*
G37*
G36*
G01*
X-15582200Y33307500D02*
X-15582200Y33432500D01*
G75*
G02*
X-15519700Y33495000I62500J0D01*
G01*
X-14819700Y33495000D01*
G75*
G02*
X-14757200Y33432500I0J-62500D01*
G01*
X-14757200Y33307500D01*
G75*
G02*
X-14819700Y33245000I-62500J0D01*
G01*
X-15519700Y33245000D01*
G75*
G02*
X-15582200Y33307500I0J62500D01*
G01*
G37*
G36*
G01*
X-14582200Y32307500D02*
X-14582200Y33007500D01*
G75*
G02*
X-14519700Y33070000I62500J0D01*
G01*
X-14394700Y33070000D01*
G75*
G02*
X-14332200Y33007500I0J-62500D01*
G01*
X-14332200Y32307500D01*
G75*
G02*
X-14394700Y32245000I-62500J0D01*
G01*
X-14519700Y32245000D01*
G75*
G02*
X-14582200Y32307500I0J62500D01*
G01*
G37*
G36*
G01*
X-14082200Y32307500D02*
X-14082200Y33007500D01*
G75*
G02*
X-14019700Y33070000I62500J0D01*
G01*
X-13894700Y33070000D01*
G75*
G02*
X-13832200Y33007500I0J-62500D01*
G01*
X-13832200Y32307500D01*
G75*
G02*
X-13894700Y32245000I-62500J0D01*
G01*
X-14019700Y32245000D01*
G75*
G02*
X-14082200Y32307500I0J62500D01*
G01*
G37*
G36*
G01*
X-13582200Y32307500D02*
X-13582200Y33007500D01*
G75*
G02*
X-13519700Y33070000I62500J0D01*
G01*
X-13394700Y33070000D01*
G75*
G02*
X-13332200Y33007500I0J-62500D01*
G01*
X-13332200Y32307500D01*
G75*
G02*
X-13394700Y32245000I-62500J0D01*
G01*
X-13519700Y32245000D01*
G75*
G02*
X-13582200Y32307500I0J62500D01*
G01*
G37*
G36*
G01*
X-13082200Y32307500D02*
X-13082200Y33007500D01*
G75*
G02*
X-13019700Y33070000I62500J0D01*
G01*
X-12894700Y33070000D01*
G75*
G02*
X-12832200Y33007500I0J-62500D01*
G01*
X-12832200Y32307500D01*
G75*
G02*
X-12894700Y32245000I-62500J0D01*
G01*
X-13019700Y32245000D01*
G75*
G02*
X-13082200Y32307500I0J62500D01*
G01*
G37*
G36*
G01*
X-12657200Y33307500D02*
X-12657200Y33432500D01*
G75*
G02*
X-12594700Y33495000I62500J0D01*
G01*
X-11894700Y33495000D01*
G75*
G02*
X-11832200Y33432500I0J-62500D01*
G01*
X-11832200Y33307500D01*
G75*
G02*
X-11894700Y33245000I-62500J0D01*
G01*
X-12594700Y33245000D01*
G75*
G02*
X-12657200Y33307500I0J62500D01*
G01*
G37*
G36*
G01*
X-12657200Y33807500D02*
X-12657200Y33932500D01*
G75*
G02*
X-12594700Y33995000I62500J0D01*
G01*
X-11894700Y33995000D01*
G75*
G02*
X-11832200Y33932500I0J-62500D01*
G01*
X-11832200Y33807500D01*
G75*
G02*
X-11894700Y33745000I-62500J0D01*
G01*
X-12594700Y33745000D01*
G75*
G02*
X-12657200Y33807500I0J62500D01*
G01*
G37*
G36*
G01*
X-12657200Y34307500D02*
X-12657200Y34432500D01*
G75*
G02*
X-12594700Y34495000I62500J0D01*
G01*
X-11894700Y34495000D01*
G75*
G02*
X-11832200Y34432500I0J-62500D01*
G01*
X-11832200Y34307500D01*
G75*
G02*
X-11894700Y34245000I-62500J0D01*
G01*
X-12594700Y34245000D01*
G75*
G02*
X-12657200Y34307500I0J62500D01*
G01*
G37*
G36*
G01*
X-12657200Y34807500D02*
X-12657200Y34932500D01*
G75*
G02*
X-12594700Y34995000I62500J0D01*
G01*
X-11894700Y34995000D01*
G75*
G02*
X-11832200Y34932500I0J-62500D01*
G01*
X-11832200Y34807500D01*
G75*
G02*
X-11894700Y34745000I-62500J0D01*
G01*
X-12594700Y34745000D01*
G75*
G02*
X-12657200Y34807500I0J62500D01*
G01*
G37*
G36*
G01*
X-13082200Y35232500D02*
X-13082200Y35932500D01*
G75*
G02*
X-13019700Y35995000I62500J0D01*
G01*
X-12894700Y35995000D01*
G75*
G02*
X-12832200Y35932500I0J-62500D01*
G01*
X-12832200Y35232500D01*
G75*
G02*
X-12894700Y35170000I-62500J0D01*
G01*
X-13019700Y35170000D01*
G75*
G02*
X-13082200Y35232500I0J62500D01*
G01*
G37*
G36*
G01*
X-13582200Y35232500D02*
X-13582200Y35932500D01*
G75*
G02*
X-13519700Y35995000I62500J0D01*
G01*
X-13394700Y35995000D01*
G75*
G02*
X-13332200Y35932500I0J-62500D01*
G01*
X-13332200Y35232500D01*
G75*
G02*
X-13394700Y35170000I-62500J0D01*
G01*
X-13519700Y35170000D01*
G75*
G02*
X-13582200Y35232500I0J62500D01*
G01*
G37*
G36*
G01*
X-14082200Y35232500D02*
X-14082200Y35932500D01*
G75*
G02*
X-14019700Y35995000I62500J0D01*
G01*
X-13894700Y35995000D01*
G75*
G02*
X-13832200Y35932500I0J-62500D01*
G01*
X-13832200Y35232500D01*
G75*
G02*
X-13894700Y35170000I-62500J0D01*
G01*
X-14019700Y35170000D01*
G75*
G02*
X-14082200Y35232500I0J62500D01*
G01*
G37*
G36*
G01*
X-14582200Y35232500D02*
X-14582200Y35932500D01*
G75*
G02*
X-14519700Y35995000I62500J0D01*
G01*
X-14394700Y35995000D01*
G75*
G02*
X-14332200Y35932500I0J-62500D01*
G01*
X-14332200Y35232500D01*
G75*
G02*
X-14394700Y35170000I-62500J0D01*
G01*
X-14519700Y35170000D01*
G75*
G02*
X-14582200Y35232500I0J62500D01*
G01*
G37*
G36*
G01*
X-14477200Y34372500D02*
X-14477200Y34717500D01*
G75*
G02*
X-14304700Y34890000I172500J0D01*
G01*
X-13959700Y34890000D01*
G75*
G02*
X-13787200Y34717500I0J-172500D01*
G01*
X-13787200Y34372500D01*
G75*
G02*
X-13959700Y34200000I-172500J0D01*
G01*
X-14304700Y34200000D01*
G75*
G02*
X-14477200Y34372500I0J172500D01*
G01*
G37*
G36*
G01*
X-14477200Y33522500D02*
X-14477200Y33867500D01*
G75*
G02*
X-14304700Y34040000I172500J0D01*
G01*
X-13959700Y34040000D01*
G75*
G02*
X-13787200Y33867500I0J-172500D01*
G01*
X-13787200Y33522500D01*
G75*
G02*
X-13959700Y33350000I-172500J0D01*
G01*
X-14304700Y33350000D01*
G75*
G02*
X-14477200Y33522500I0J172500D01*
G01*
G37*
G36*
G01*
X-13627200Y34372500D02*
X-13627200Y34717500D01*
G75*
G02*
X-13454700Y34890000I172500J0D01*
G01*
X-13109700Y34890000D01*
G75*
G02*
X-12937200Y34717500I0J-172500D01*
G01*
X-12937200Y34372500D01*
G75*
G02*
X-13109700Y34200000I-172500J0D01*
G01*
X-13454700Y34200000D01*
G75*
G02*
X-13627200Y34372500I0J172500D01*
G01*
G37*
G36*
G01*
X-13627200Y33522500D02*
X-13627200Y33867500D01*
G75*
G02*
X-13454700Y34040000I172500J0D01*
G01*
X-13109700Y34040000D01*
G75*
G02*
X-12937200Y33867500I0J-172500D01*
G01*
X-12937200Y33522500D01*
G75*
G02*
X-13109700Y33350000I-172500J0D01*
G01*
X-13454700Y33350000D01*
G75*
G02*
X-13627200Y33522500I0J172500D01*
G01*
G37*
G36*
G01*
X-21467400Y22545300D02*
X-21467400Y22890300D01*
G75*
G02*
X-21319900Y23037800I147500J0D01*
G01*
X-21024900Y23037800D01*
G75*
G02*
X-20877400Y22890300I0J-147500D01*
G01*
X-20877400Y22545300D01*
G75*
G02*
X-21024900Y22397800I-147500J0D01*
G01*
X-21319900Y22397800D01*
G75*
G02*
X-21467400Y22545300I0J147500D01*
G01*
G37*
G36*
G01*
X-22437400Y22545300D02*
X-22437400Y22890300D01*
G75*
G02*
X-22289900Y23037800I147500J0D01*
G01*
X-21994900Y23037800D01*
G75*
G02*
X-21847400Y22890300I0J-147500D01*
G01*
X-21847400Y22545300D01*
G75*
G02*
X-21994900Y22397800I-147500J0D01*
G01*
X-22289900Y22397800D01*
G75*
G02*
X-22437400Y22545300I0J147500D01*
G01*
G37*
G36*
G01*
X-17554800Y22811700D02*
X-17554800Y22466700D01*
G75*
G02*
X-17702300Y22319200I-147500J0D01*
G01*
X-17997300Y22319200D01*
G75*
G02*
X-18144800Y22466700I0J147500D01*
G01*
X-18144800Y22811700D01*
G75*
G02*
X-17997300Y22959200I147500J0D01*
G01*
X-17702300Y22959200D01*
G75*
G02*
X-17554800Y22811700I0J-147500D01*
G01*
G37*
G36*
G01*
X-16584800Y22811700D02*
X-16584800Y22466700D01*
G75*
G02*
X-16732300Y22319200I-147500J0D01*
G01*
X-17027300Y22319200D01*
G75*
G02*
X-17174800Y22466700I0J147500D01*
G01*
X-17174800Y22811700D01*
G75*
G02*
X-17027300Y22959200I147500J0D01*
G01*
X-16732300Y22959200D01*
G75*
G02*
X-16584800Y22811700I0J-147500D01*
G01*
G37*
G36*
G01*
X-21467400Y21453100D02*
X-21467400Y21798100D01*
G75*
G02*
X-21319900Y21945600I147500J0D01*
G01*
X-21024900Y21945600D01*
G75*
G02*
X-20877400Y21798100I0J-147500D01*
G01*
X-20877400Y21453100D01*
G75*
G02*
X-21024900Y21305600I-147500J0D01*
G01*
X-21319900Y21305600D01*
G75*
G02*
X-21467400Y21453100I0J147500D01*
G01*
G37*
G36*
G01*
X-22437400Y21453100D02*
X-22437400Y21798100D01*
G75*
G02*
X-22289900Y21945600I147500J0D01*
G01*
X-21994900Y21945600D01*
G75*
G02*
X-21847400Y21798100I0J-147500D01*
G01*
X-21847400Y21453100D01*
G75*
G02*
X-21994900Y21305600I-147500J0D01*
G01*
X-22289900Y21305600D01*
G75*
G02*
X-22437400Y21453100I0J147500D01*
G01*
G37*
G36*
G01*
X-17554800Y21798100D02*
X-17554800Y21453100D01*
G75*
G02*
X-17702300Y21305600I-147500J0D01*
G01*
X-17997300Y21305600D01*
G75*
G02*
X-18144800Y21453100I0J147500D01*
G01*
X-18144800Y21798100D01*
G75*
G02*
X-17997300Y21945600I147500J0D01*
G01*
X-17702300Y21945600D01*
G75*
G02*
X-17554800Y21798100I0J-147500D01*
G01*
G37*
G36*
G01*
X-16584800Y21798100D02*
X-16584800Y21453100D01*
G75*
G02*
X-16732300Y21305600I-147500J0D01*
G01*
X-17027300Y21305600D01*
G75*
G02*
X-17174800Y21453100I0J147500D01*
G01*
X-17174800Y21798100D01*
G75*
G02*
X-17027300Y21945600I147500J0D01*
G01*
X-16732300Y21945600D01*
G75*
G02*
X-16584800Y21798100I0J-147500D01*
G01*
G37*
G36*
G01*
X-21416600Y35420700D02*
X-21416600Y35765700D01*
G75*
G02*
X-21269100Y35913200I147500J0D01*
G01*
X-20974100Y35913200D01*
G75*
G02*
X-20826600Y35765700I0J-147500D01*
G01*
X-20826600Y35420700D01*
G75*
G02*
X-20974100Y35273200I-147500J0D01*
G01*
X-21269100Y35273200D01*
G75*
G02*
X-21416600Y35420700I0J147500D01*
G01*
G37*
G36*
G01*
X-22386600Y35420700D02*
X-22386600Y35765700D01*
G75*
G02*
X-22239100Y35913200I147500J0D01*
G01*
X-21944100Y35913200D01*
G75*
G02*
X-21796600Y35765700I0J-147500D01*
G01*
X-21796600Y35420700D01*
G75*
G02*
X-21944100Y35273200I-147500J0D01*
G01*
X-22239100Y35273200D01*
G75*
G02*
X-22386600Y35420700I0J147500D01*
G01*
G37*
G36*
G01*
X-31321600Y37416700D02*
X-31321600Y37071700D01*
G75*
G02*
X-31469100Y36924200I-147500J0D01*
G01*
X-31764100Y36924200D01*
G75*
G02*
X-31911600Y37071700I0J147500D01*
G01*
X-31911600Y37416700D01*
G75*
G02*
X-31764100Y37564200I147500J0D01*
G01*
X-31469100Y37564200D01*
G75*
G02*
X-31321600Y37416700I0J-147500D01*
G01*
G37*
G36*
G01*
X-30351600Y37416700D02*
X-30351600Y37071700D01*
G75*
G02*
X-30499100Y36924200I-147500J0D01*
G01*
X-30794100Y36924200D01*
G75*
G02*
X-30941600Y37071700I0J147500D01*
G01*
X-30941600Y37416700D01*
G75*
G02*
X-30794100Y37564200I147500J0D01*
G01*
X-30499100Y37564200D01*
G75*
G02*
X-30351600Y37416700I0J-147500D01*
G01*
G37*
G36*
G01*
X-28960400Y41389700D02*
X-28960400Y41734700D01*
G75*
G02*
X-28812900Y41882200I147500J0D01*
G01*
X-28517900Y41882200D01*
G75*
G02*
X-28370400Y41734700I0J-147500D01*
G01*
X-28370400Y41389700D01*
G75*
G02*
X-28517900Y41242200I-147500J0D01*
G01*
X-28812900Y41242200D01*
G75*
G02*
X-28960400Y41389700I0J147500D01*
G01*
G37*
G36*
G01*
X-29930400Y41389700D02*
X-29930400Y41734700D01*
G75*
G02*
X-29782900Y41882200I147500J0D01*
G01*
X-29487900Y41882200D01*
G75*
G02*
X-29340400Y41734700I0J-147500D01*
G01*
X-29340400Y41389700D01*
G75*
G02*
X-29487900Y41242200I-147500J0D01*
G01*
X-29782900Y41242200D01*
G75*
G02*
X-29930400Y41389700I0J147500D01*
G01*
G37*
G36*
G01*
X-27359200Y41734700D02*
X-27359200Y41389700D01*
G75*
G02*
X-27506700Y41242200I-147500J0D01*
G01*
X-27801700Y41242200D01*
G75*
G02*
X-27949200Y41389700I0J147500D01*
G01*
X-27949200Y41734700D01*
G75*
G02*
X-27801700Y41882200I147500J0D01*
G01*
X-27506700Y41882200D01*
G75*
G02*
X-27359200Y41734700I0J-147500D01*
G01*
G37*
G36*
G01*
X-26389200Y41734700D02*
X-26389200Y41389700D01*
G75*
G02*
X-26536700Y41242200I-147500J0D01*
G01*
X-26831700Y41242200D01*
G75*
G02*
X-26979200Y41389700I0J147500D01*
G01*
X-26979200Y41734700D01*
G75*
G02*
X-26831700Y41882200I147500J0D01*
G01*
X-26536700Y41882200D01*
G75*
G02*
X-26389200Y41734700I0J-147500D01*
G01*
G37*
G36*
G01*
X-36180900Y32482200D02*
X-35835900Y32482200D01*
G75*
G02*
X-35688400Y32334700I0J-147500D01*
G01*
X-35688400Y32039700D01*
G75*
G02*
X-35835900Y31892200I-147500J0D01*
G01*
X-36180900Y31892200D01*
G75*
G02*
X-36328400Y32039700I0J147500D01*
G01*
X-36328400Y32334700D01*
G75*
G02*
X-36180900Y32482200I147500J0D01*
G01*
G37*
G36*
G01*
X-36180900Y33452200D02*
X-35835900Y33452200D01*
G75*
G02*
X-35688400Y33304700I0J-147500D01*
G01*
X-35688400Y33009700D01*
G75*
G02*
X-35835900Y32862200I-147500J0D01*
G01*
X-36180900Y32862200D01*
G75*
G02*
X-36328400Y33009700I0J147500D01*
G01*
X-36328400Y33304700D01*
G75*
G02*
X-36180900Y33452200I147500J0D01*
G01*
G37*
G36*
G01*
X-20255100Y21918200D02*
X-19910100Y21918200D01*
G75*
G02*
X-19762600Y21770700I0J-147500D01*
G01*
X-19762600Y21475700D01*
G75*
G02*
X-19910100Y21328200I-147500J0D01*
G01*
X-20255100Y21328200D01*
G75*
G02*
X-20402600Y21475700I0J147500D01*
G01*
X-20402600Y21770700D01*
G75*
G02*
X-20255100Y21918200I147500J0D01*
G01*
G37*
G36*
G01*
X-20255100Y22888200D02*
X-19910100Y22888200D01*
G75*
G02*
X-19762600Y22740700I0J-147500D01*
G01*
X-19762600Y22445700D01*
G75*
G02*
X-19910100Y22298200I-147500J0D01*
G01*
X-20255100Y22298200D01*
G75*
G02*
X-20402600Y22445700I0J147500D01*
G01*
X-20402600Y22740700D01*
G75*
G02*
X-20255100Y22888200I147500J0D01*
G01*
G37*
G36*
G01*
X-19137500Y21915800D02*
X-18792500Y21915800D01*
G75*
G02*
X-18645000Y21768300I0J-147500D01*
G01*
X-18645000Y21473300D01*
G75*
G02*
X-18792500Y21325800I-147500J0D01*
G01*
X-19137500Y21325800D01*
G75*
G02*
X-19285000Y21473300I0J147500D01*
G01*
X-19285000Y21768300D01*
G75*
G02*
X-19137500Y21915800I147500J0D01*
G01*
G37*
G36*
G01*
X-19137500Y22885800D02*
X-18792500Y22885800D01*
G75*
G02*
X-18645000Y22738300I0J-147500D01*
G01*
X-18645000Y22443300D01*
G75*
G02*
X-18792500Y22295800I-147500J0D01*
G01*
X-19137500Y22295800D01*
G75*
G02*
X-19285000Y22443300I0J147500D01*
G01*
X-19285000Y22738300D01*
G75*
G02*
X-19137500Y22885800I147500J0D01*
G01*
G37*
G36*
G01*
X-24061819Y37135086D02*
X-24406819Y37135086D01*
G75*
G02*
X-24554319Y37282586I0J147500D01*
G01*
X-24554319Y37577586D01*
G75*
G02*
X-24406819Y37725086I147500J0D01*
G01*
X-24061819Y37725086D01*
G75*
G02*
X-23914319Y37577586I0J-147500D01*
G01*
X-23914319Y37282586D01*
G75*
G02*
X-24061819Y37135086I-147500J0D01*
G01*
G37*
G36*
G01*
X-24061819Y36165086D02*
X-24406819Y36165086D01*
G75*
G02*
X-24554319Y36312586I0J147500D01*
G01*
X-24554319Y36607586D01*
G75*
G02*
X-24406819Y36755086I147500J0D01*
G01*
X-24061819Y36755086D01*
G75*
G02*
X-23914319Y36607586I0J-147500D01*
G01*
X-23914319Y36312586D01*
G75*
G02*
X-24061819Y36165086I-147500J0D01*
G01*
G37*
G36*
G01*
X-25375020Y36739607D02*
X-25720020Y36739607D01*
G75*
G02*
X-25867520Y36887107I0J147500D01*
G01*
X-25867520Y37182107D01*
G75*
G02*
X-25720020Y37329607I147500J0D01*
G01*
X-25375020Y37329607D01*
G75*
G02*
X-25227520Y37182107I0J-147500D01*
G01*
X-25227520Y36887107D01*
G75*
G02*
X-25375020Y36739607I-147500J0D01*
G01*
G37*
G36*
G01*
X-25375020Y35769607D02*
X-25720020Y35769607D01*
G75*
G02*
X-25867520Y35917107I0J147500D01*
G01*
X-25867520Y36212107D01*
G75*
G02*
X-25720020Y36359607I147500J0D01*
G01*
X-25375020Y36359607D01*
G75*
G02*
X-25227520Y36212107I0J-147500D01*
G01*
X-25227520Y35917107D01*
G75*
G02*
X-25375020Y35769607I-147500J0D01*
G01*
G37*
G36*
G01*
X-25004900Y34260200D02*
X-24659900Y34260200D01*
G75*
G02*
X-24512400Y34112700I0J-147500D01*
G01*
X-24512400Y33817700D01*
G75*
G02*
X-24659900Y33670200I-147500J0D01*
G01*
X-25004900Y33670200D01*
G75*
G02*
X-25152400Y33817700I0J147500D01*
G01*
X-25152400Y34112700D01*
G75*
G02*
X-25004900Y34260200I147500J0D01*
G01*
G37*
G36*
G01*
X-25004900Y35230200D02*
X-24659900Y35230200D01*
G75*
G02*
X-24512400Y35082700I0J-147500D01*
G01*
X-24512400Y34787700D01*
G75*
G02*
X-24659900Y34640200I-147500J0D01*
G01*
X-25004900Y34640200D01*
G75*
G02*
X-25152400Y34787700I0J147500D01*
G01*
X-25152400Y35082700D01*
G75*
G02*
X-25004900Y35230200I147500J0D01*
G01*
G37*
G36*
G01*
X-26097100Y34260200D02*
X-25752100Y34260200D01*
G75*
G02*
X-25604600Y34112700I0J-147500D01*
G01*
X-25604600Y33817700D01*
G75*
G02*
X-25752100Y33670200I-147500J0D01*
G01*
X-26097100Y33670200D01*
G75*
G02*
X-26244600Y33817700I0J147500D01*
G01*
X-26244600Y34112700D01*
G75*
G02*
X-26097100Y34260200I147500J0D01*
G01*
G37*
G36*
G01*
X-26097100Y35230200D02*
X-25752100Y35230200D01*
G75*
G02*
X-25604600Y35082700I0J-147500D01*
G01*
X-25604600Y34787700D01*
G75*
G02*
X-25752100Y34640200I-147500J0D01*
G01*
X-26097100Y34640200D01*
G75*
G02*
X-26244600Y34787700I0J147500D01*
G01*
X-26244600Y35082700D01*
G75*
G02*
X-26097100Y35230200I147500J0D01*
G01*
G37*
G36*
G01*
X-21416600Y33363300D02*
X-21416600Y33708300D01*
G75*
G02*
X-21269100Y33855800I147500J0D01*
G01*
X-20974100Y33855800D01*
G75*
G02*
X-20826600Y33708300I0J-147500D01*
G01*
X-20826600Y33363300D01*
G75*
G02*
X-20974100Y33215800I-147500J0D01*
G01*
X-21269100Y33215800D01*
G75*
G02*
X-21416600Y33363300I0J147500D01*
G01*
G37*
G36*
G01*
X-22386600Y33363300D02*
X-22386600Y33708300D01*
G75*
G02*
X-22239100Y33855800I147500J0D01*
G01*
X-21944100Y33855800D01*
G75*
G02*
X-21796600Y33708300I0J-147500D01*
G01*
X-21796600Y33363300D01*
G75*
G02*
X-21944100Y33215800I-147500J0D01*
G01*
X-22239100Y33215800D01*
G75*
G02*
X-22386600Y33363300I0J147500D01*
G01*
G37*
G36*
G01*
X-23912700Y34260200D02*
X-23567700Y34260200D01*
G75*
G02*
X-23420200Y34112700I0J-147500D01*
G01*
X-23420200Y33817700D01*
G75*
G02*
X-23567700Y33670200I-147500J0D01*
G01*
X-23912700Y33670200D01*
G75*
G02*
X-24060200Y33817700I0J147500D01*
G01*
X-24060200Y34112700D01*
G75*
G02*
X-23912700Y34260200I147500J0D01*
G01*
G37*
G36*
G01*
X-23912700Y35230200D02*
X-23567700Y35230200D01*
G75*
G02*
X-23420200Y35082700I0J-147500D01*
G01*
X-23420200Y34787700D01*
G75*
G02*
X-23567700Y34640200I-147500J0D01*
G01*
X-23912700Y34640200D01*
G75*
G02*
X-24060200Y34787700I0J147500D01*
G01*
X-24060200Y35082700D01*
G75*
G02*
X-23912700Y35230200I147500J0D01*
G01*
G37*
G36*
G01*
X-33329200Y41897700D02*
X-33329200Y42242700D01*
G75*
G02*
X-33181700Y42390200I147500J0D01*
G01*
X-32886700Y42390200D01*
G75*
G02*
X-32739200Y42242700I0J-147500D01*
G01*
X-32739200Y41897700D01*
G75*
G02*
X-32886700Y41750200I-147500J0D01*
G01*
X-33181700Y41750200D01*
G75*
G02*
X-33329200Y41897700I0J147500D01*
G01*
G37*
G36*
G01*
X-34299200Y41897700D02*
X-34299200Y42242700D01*
G75*
G02*
X-34151700Y42390200I147500J0D01*
G01*
X-33856700Y42390200D01*
G75*
G02*
X-33709200Y42242700I0J-147500D01*
G01*
X-33709200Y41897700D01*
G75*
G02*
X-33856700Y41750200I-147500J0D01*
G01*
X-34151700Y41750200D01*
G75*
G02*
X-34299200Y41897700I0J147500D01*
G01*
G37*
G36*
G01*
X-31035300Y39364600D02*
X-31380300Y39364600D01*
G75*
G02*
X-31527800Y39512100I0J147500D01*
G01*
X-31527800Y39807100D01*
G75*
G02*
X-31380300Y39954600I147500J0D01*
G01*
X-31035300Y39954600D01*
G75*
G02*
X-30887800Y39807100I0J-147500D01*
G01*
X-30887800Y39512100D01*
G75*
G02*
X-31035300Y39364600I-147500J0D01*
G01*
G37*
G36*
G01*
X-31035300Y38394600D02*
X-31380300Y38394600D01*
G75*
G02*
X-31527800Y38542100I0J147500D01*
G01*
X-31527800Y38837100D01*
G75*
G02*
X-31380300Y38984600I147500J0D01*
G01*
X-31035300Y38984600D01*
G75*
G02*
X-30887800Y38837100I0J-147500D01*
G01*
X-30887800Y38542100D01*
G75*
G02*
X-31035300Y38394600I-147500J0D01*
G01*
G37*
G36*
G01*
X-32439200Y48922900D02*
X-32439200Y48577900D01*
G75*
G02*
X-32586700Y48430400I-147500J0D01*
G01*
X-32881700Y48430400D01*
G75*
G02*
X-33029200Y48577900I0J147500D01*
G01*
X-33029200Y48922900D01*
G75*
G02*
X-32881700Y49070400I147500J0D01*
G01*
X-32586700Y49070400D01*
G75*
G02*
X-32439200Y48922900I0J-147500D01*
G01*
G37*
G36*
G01*
X-31469200Y48922900D02*
X-31469200Y48577900D01*
G75*
G02*
X-31616700Y48430400I-147500J0D01*
G01*
X-31911700Y48430400D01*
G75*
G02*
X-32059200Y48577900I0J147500D01*
G01*
X-32059200Y48922900D01*
G75*
G02*
X-31911700Y49070400I147500J0D01*
G01*
X-31616700Y49070400D01*
G75*
G02*
X-31469200Y48922900I0J-147500D01*
G01*
G37*
G36*
G01*
X-32059200Y47511100D02*
X-32059200Y47856100D01*
G75*
G02*
X-31911700Y48003600I147500J0D01*
G01*
X-31616700Y48003600D01*
G75*
G02*
X-31469200Y47856100I0J-147500D01*
G01*
X-31469200Y47511100D01*
G75*
G02*
X-31616700Y47363600I-147500J0D01*
G01*
X-31911700Y47363600D01*
G75*
G02*
X-32059200Y47511100I0J147500D01*
G01*
G37*
G36*
G01*
X-33029200Y47511100D02*
X-33029200Y47856100D01*
G75*
G02*
X-32881700Y48003600I147500J0D01*
G01*
X-32586700Y48003600D01*
G75*
G02*
X-32439200Y47856100I0J-147500D01*
G01*
X-32439200Y47511100D01*
G75*
G02*
X-32586700Y47363600I-147500J0D01*
G01*
X-32881700Y47363600D01*
G75*
G02*
X-33029200Y47511100I0J147500D01*
G01*
G37*
G36*
G01*
X-14685600Y48577900D02*
X-14685600Y48922900D01*
G75*
G02*
X-14538100Y49070400I147500J0D01*
G01*
X-14243100Y49070400D01*
G75*
G02*
X-14095600Y48922900I0J-147500D01*
G01*
X-14095600Y48577900D01*
G75*
G02*
X-14243100Y48430400I-147500J0D01*
G01*
X-14538100Y48430400D01*
G75*
G02*
X-14685600Y48577900I0J147500D01*
G01*
G37*
G36*
G01*
X-15655600Y48577900D02*
X-15655600Y48922900D01*
G75*
G02*
X-15508100Y49070400I147500J0D01*
G01*
X-15213100Y49070400D01*
G75*
G02*
X-15065600Y48922900I0J-147500D01*
G01*
X-15065600Y48577900D01*
G75*
G02*
X-15213100Y48430400I-147500J0D01*
G01*
X-15508100Y48430400D01*
G75*
G02*
X-15655600Y48577900I0J147500D01*
G01*
G37*
G36*
G01*
X-14685600Y47511100D02*
X-14685600Y47856100D01*
G75*
G02*
X-14538100Y48003600I147500J0D01*
G01*
X-14243100Y48003600D01*
G75*
G02*
X-14095600Y47856100I0J-147500D01*
G01*
X-14095600Y47511100D01*
G75*
G02*
X-14243100Y47363600I-147500J0D01*
G01*
X-14538100Y47363600D01*
G75*
G02*
X-14685600Y47511100I0J147500D01*
G01*
G37*
G36*
G01*
X-15655600Y47511100D02*
X-15655600Y47856100D01*
G75*
G02*
X-15508100Y48003600I147500J0D01*
G01*
X-15213100Y48003600D01*
G75*
G02*
X-15065600Y47856100I0J-147500D01*
G01*
X-15065600Y47511100D01*
G75*
G02*
X-15213100Y47363600I-147500J0D01*
G01*
X-15508100Y47363600D01*
G75*
G02*
X-15655600Y47511100I0J147500D01*
G01*
G37*
G36*
G01*
X-12401914Y28520468D02*
X-12741672Y28460560D01*
G75*
G02*
X-12912544Y28580206I-25613J145259D01*
G01*
X-12963770Y28870724D01*
G75*
G02*
X-12844124Y29041596I145259J25613D01*
G01*
X-12504366Y29101504D01*
G75*
G02*
X-12333494Y28981858I25613J-145259D01*
G01*
X-12282268Y28691340D01*
G75*
G02*
X-12401914Y28520468I-145259J-25613D01*
G01*
G37*
G36*
G01*
X-12233476Y27565204D02*
X-12573234Y27505296D01*
G75*
G02*
X-12744106Y27624942I-25613J145259D01*
G01*
X-12795332Y27915460D01*
G75*
G02*
X-12675686Y28086332I145259J25613D01*
G01*
X-12335928Y28146240D01*
G75*
G02*
X-12165056Y28026594I25613J-145259D01*
G01*
X-12113830Y27736076D01*
G75*
G02*
X-12233476Y27565204I-145259J-25613D01*
G01*
G37*
G36*
G01*
X-20375200Y51371900D02*
X-20375200Y51716900D01*
G75*
G02*
X-20227700Y51864400I147500J0D01*
G01*
X-19932700Y51864400D01*
G75*
G02*
X-19785200Y51716900I0J-147500D01*
G01*
X-19785200Y51371900D01*
G75*
G02*
X-19932700Y51224400I-147500J0D01*
G01*
X-20227700Y51224400D01*
G75*
G02*
X-20375200Y51371900I0J147500D01*
G01*
G37*
G36*
G01*
X-21345200Y51371900D02*
X-21345200Y51716900D01*
G75*
G02*
X-21197700Y51864400I147500J0D01*
G01*
X-20902700Y51864400D01*
G75*
G02*
X-20755200Y51716900I0J-147500D01*
G01*
X-20755200Y51371900D01*
G75*
G02*
X-20902700Y51224400I-147500J0D01*
G01*
X-21197700Y51224400D01*
G75*
G02*
X-21345200Y51371900I0J147500D01*
G01*
G37*
G36*
G01*
X-27943400Y46128900D02*
X-27943400Y45783900D01*
G75*
G02*
X-28090900Y45636400I-147500J0D01*
G01*
X-28385900Y45636400D01*
G75*
G02*
X-28533400Y45783900I0J147500D01*
G01*
X-28533400Y46128900D01*
G75*
G02*
X-28385900Y46276400I147500J0D01*
G01*
X-28090900Y46276400D01*
G75*
G02*
X-27943400Y46128900I0J-147500D01*
G01*
G37*
G36*
G01*
X-26973400Y46128900D02*
X-26973400Y45783900D01*
G75*
G02*
X-27120900Y45636400I-147500J0D01*
G01*
X-27415900Y45636400D01*
G75*
G02*
X-27563400Y45783900I0J147500D01*
G01*
X-27563400Y46128900D01*
G75*
G02*
X-27415900Y46276400I147500J0D01*
G01*
X-27120900Y46276400D01*
G75*
G02*
X-26973400Y46128900I0J-147500D01*
G01*
G37*
G36*
G01*
X-27968800Y45062100D02*
X-27968800Y44717100D01*
G75*
G02*
X-28116300Y44569600I-147500J0D01*
G01*
X-28411300Y44569600D01*
G75*
G02*
X-28558800Y44717100I0J147500D01*
G01*
X-28558800Y45062100D01*
G75*
G02*
X-28411300Y45209600I147500J0D01*
G01*
X-28116300Y45209600D01*
G75*
G02*
X-27968800Y45062100I0J-147500D01*
G01*
G37*
G36*
G01*
X-26998800Y45062100D02*
X-26998800Y44717100D01*
G75*
G02*
X-27146300Y44569600I-147500J0D01*
G01*
X-27441300Y44569600D01*
G75*
G02*
X-27588800Y44717100I0J147500D01*
G01*
X-27588800Y45062100D01*
G75*
G02*
X-27441300Y45209600I147500J0D01*
G01*
X-27146300Y45209600D01*
G75*
G02*
X-26998800Y45062100I0J-147500D01*
G01*
G37*
G36*
G01*
X-28155826Y48365125D02*
X-28155826Y48020125D01*
G75*
G02*
X-28303326Y47872625I-147500J0D01*
G01*
X-28598326Y47872625D01*
G75*
G02*
X-28745826Y48020125I0J147500D01*
G01*
X-28745826Y48365125D01*
G75*
G02*
X-28598326Y48512625I147500J0D01*
G01*
X-28303326Y48512625D01*
G75*
G02*
X-28155826Y48365125I0J-147500D01*
G01*
G37*
G36*
G01*
X-27185826Y48365125D02*
X-27185826Y48020125D01*
G75*
G02*
X-27333326Y47872625I-147500J0D01*
G01*
X-27628326Y47872625D01*
G75*
G02*
X-27775826Y48020125I0J147500D01*
G01*
X-27775826Y48365125D01*
G75*
G02*
X-27628326Y48512625I147500J0D01*
G01*
X-27333326Y48512625D01*
G75*
G02*
X-27185826Y48365125I0J-147500D01*
G01*
G37*
G36*
G01*
X-25062404Y52208759D02*
X-25407404Y52208759D01*
G75*
G02*
X-25554904Y52356259I0J147500D01*
G01*
X-25554904Y52651259D01*
G75*
G02*
X-25407404Y52798759I147500J0D01*
G01*
X-25062404Y52798759D01*
G75*
G02*
X-24914904Y52651259I0J-147500D01*
G01*
X-24914904Y52356259D01*
G75*
G02*
X-25062404Y52208759I-147500J0D01*
G01*
G37*
G36*
G01*
X-25062404Y51238759D02*
X-25407404Y51238759D01*
G75*
G02*
X-25554904Y51386259I0J147500D01*
G01*
X-25554904Y51681259D01*
G75*
G02*
X-25407404Y51828759I147500J0D01*
G01*
X-25062404Y51828759D01*
G75*
G02*
X-24914904Y51681259I0J-147500D01*
G01*
X-24914904Y51386259D01*
G75*
G02*
X-25062404Y51238759I-147500J0D01*
G01*
G37*
G36*
G01*
X-21314000Y44401700D02*
X-21314000Y44056700D01*
G75*
G02*
X-21461500Y43909200I-147500J0D01*
G01*
X-21756500Y43909200D01*
G75*
G02*
X-21904000Y44056700I0J147500D01*
G01*
X-21904000Y44401700D01*
G75*
G02*
X-21756500Y44549200I147500J0D01*
G01*
X-21461500Y44549200D01*
G75*
G02*
X-21314000Y44401700I0J-147500D01*
G01*
G37*
G36*
G01*
X-20344000Y44401700D02*
X-20344000Y44056700D01*
G75*
G02*
X-20491500Y43909200I-147500J0D01*
G01*
X-20786500Y43909200D01*
G75*
G02*
X-20934000Y44056700I0J147500D01*
G01*
X-20934000Y44401700D01*
G75*
G02*
X-20786500Y44549200I147500J0D01*
G01*
X-20491500Y44549200D01*
G75*
G02*
X-20344000Y44401700I0J-147500D01*
G01*
G37*
G36*
G01*
X-27443300Y51811600D02*
X-27098300Y51811600D01*
G75*
G02*
X-26950800Y51664100I0J-147500D01*
G01*
X-26950800Y51369100D01*
G75*
G02*
X-27098300Y51221600I-147500J0D01*
G01*
X-27443300Y51221600D01*
G75*
G02*
X-27590800Y51369100I0J147500D01*
G01*
X-27590800Y51664100D01*
G75*
G02*
X-27443300Y51811600I147500J0D01*
G01*
G37*
G36*
G01*
X-27443300Y52781600D02*
X-27098300Y52781600D01*
G75*
G02*
X-26950800Y52634100I0J-147500D01*
G01*
X-26950800Y52339100D01*
G75*
G02*
X-27098300Y52191600I-147500J0D01*
G01*
X-27443300Y52191600D01*
G75*
G02*
X-27590800Y52339100I0J147500D01*
G01*
X-27590800Y52634100D01*
G75*
G02*
X-27443300Y52781600I147500J0D01*
G01*
G37*
G36*
G01*
X-26427300Y51811600D02*
X-26082300Y51811600D01*
G75*
G02*
X-25934800Y51664100I0J-147500D01*
G01*
X-25934800Y51369100D01*
G75*
G02*
X-26082300Y51221600I-147500J0D01*
G01*
X-26427300Y51221600D01*
G75*
G02*
X-26574800Y51369100I0J147500D01*
G01*
X-26574800Y51664100D01*
G75*
G02*
X-26427300Y51811600I147500J0D01*
G01*
G37*
G36*
G01*
X-26427300Y52781600D02*
X-26082300Y52781600D01*
G75*
G02*
X-25934800Y52634100I0J-147500D01*
G01*
X-25934800Y52339100D01*
G75*
G02*
X-26082300Y52191600I-147500J0D01*
G01*
X-26427300Y52191600D01*
G75*
G02*
X-26574800Y52339100I0J147500D01*
G01*
X-26574800Y52634100D01*
G75*
G02*
X-26427300Y52781600I147500J0D01*
G01*
G37*
G36*
G01*
X-27563400Y46799900D02*
X-27563400Y47144900D01*
G75*
G02*
X-27415900Y47292400I147500J0D01*
G01*
X-27120900Y47292400D01*
G75*
G02*
X-26973400Y47144900I0J-147500D01*
G01*
X-26973400Y46799900D01*
G75*
G02*
X-27120900Y46652400I-147500J0D01*
G01*
X-27415900Y46652400D01*
G75*
G02*
X-27563400Y46799900I0J147500D01*
G01*
G37*
G36*
G01*
X-28533400Y46799900D02*
X-28533400Y47144900D01*
G75*
G02*
X-28385900Y47292400I147500J0D01*
G01*
X-28090900Y47292400D01*
G75*
G02*
X-27943400Y47144900I0J-147500D01*
G01*
X-27943400Y46799900D01*
G75*
G02*
X-28090900Y46652400I-147500J0D01*
G01*
X-28385900Y46652400D01*
G75*
G02*
X-28533400Y46799900I0J147500D01*
G01*
G37*
G36*
G01*
X-21728300Y37206600D02*
X-21383300Y37206600D01*
G75*
G02*
X-21235800Y37059100I0J-147500D01*
G01*
X-21235800Y36764100D01*
G75*
G02*
X-21383300Y36616600I-147500J0D01*
G01*
X-21728300Y36616600D01*
G75*
G02*
X-21875800Y36764100I0J147500D01*
G01*
X-21875800Y37059100D01*
G75*
G02*
X-21728300Y37206600I147500J0D01*
G01*
G37*
G36*
G01*
X-21728300Y38176600D02*
X-21383300Y38176600D01*
G75*
G02*
X-21235800Y38029100I0J-147500D01*
G01*
X-21235800Y37734100D01*
G75*
G02*
X-21383300Y37586600I-147500J0D01*
G01*
X-21728300Y37586600D01*
G75*
G02*
X-21875800Y37734100I0J147500D01*
G01*
X-21875800Y38029100D01*
G75*
G02*
X-21728300Y38176600I147500J0D01*
G01*
G37*
G36*
G01*
X-22475500Y37586600D02*
X-22820500Y37586600D01*
G75*
G02*
X-22968000Y37734100I0J147500D01*
G01*
X-22968000Y38029100D01*
G75*
G02*
X-22820500Y38176600I147500J0D01*
G01*
X-22475500Y38176600D01*
G75*
G02*
X-22328000Y38029100I0J-147500D01*
G01*
X-22328000Y37734100D01*
G75*
G02*
X-22475500Y37586600I-147500J0D01*
G01*
G37*
G36*
G01*
X-22475500Y36616600D02*
X-22820500Y36616600D01*
G75*
G02*
X-22968000Y36764100I0J147500D01*
G01*
X-22968000Y37059100D01*
G75*
G02*
X-22820500Y37206600I147500J0D01*
G01*
X-22475500Y37206600D01*
G75*
G02*
X-22328000Y37059100I0J-147500D01*
G01*
X-22328000Y36764100D01*
G75*
G02*
X-22475500Y36616600I-147500J0D01*
G01*
G37*
G36*
G01*
X-21416600Y34404700D02*
X-21416600Y34749700D01*
G75*
G02*
X-21269100Y34897200I147500J0D01*
G01*
X-20974100Y34897200D01*
G75*
G02*
X-20826600Y34749700I0J-147500D01*
G01*
X-20826600Y34404700D01*
G75*
G02*
X-20974100Y34257200I-147500J0D01*
G01*
X-21269100Y34257200D01*
G75*
G02*
X-21416600Y34404700I0J147500D01*
G01*
G37*
G36*
G01*
X-22386600Y34404700D02*
X-22386600Y34749700D01*
G75*
G02*
X-22239100Y34897200I147500J0D01*
G01*
X-21944100Y34897200D01*
G75*
G02*
X-21796600Y34749700I0J-147500D01*
G01*
X-21796600Y34404700D01*
G75*
G02*
X-21944100Y34257200I-147500J0D01*
G01*
X-22239100Y34257200D01*
G75*
G02*
X-22386600Y34404700I0J147500D01*
G01*
G37*
D13*
X-8387000Y19857200D03*
X-9187000Y19857200D03*
X-9987000Y19857200D03*
X-10787000Y19857200D03*
X-11587000Y19857200D03*
X-12387000Y19857200D03*
X-13187000Y19857200D03*
X-13987000Y19857200D03*
X-14787000Y19857200D03*
X-15587000Y19857200D03*
X-16387000Y19857200D03*
X-17187000Y19857200D03*
X-17987000Y19857200D03*
X-18787000Y19857200D03*
X-19587000Y19857200D03*
X-20387000Y19857200D03*
X-21187000Y19857200D03*
X-21987000Y19857200D03*
X-22787000Y19857200D03*
X-23587000Y19857200D03*
X-24387000Y19857200D03*
D14*
X-25387000Y18857200D03*
X-25387000Y18057200D03*
X-25387000Y17257200D03*
X-25387000Y16457200D03*
X-25387000Y15657200D03*
X-25387000Y14857200D03*
X-25387000Y14057200D03*
X-25387000Y13257200D03*
X-25387000Y12457200D03*
X-25387000Y11657200D03*
X-25387000Y10857200D03*
X-25387000Y10057200D03*
X-25387000Y9257200D03*
D13*
X-24387000Y8257200D03*
X-23587000Y8257200D03*
X-22787000Y8257200D03*
X-21987000Y8257200D03*
X-21187000Y8257200D03*
X-20387000Y8257200D03*
X-19587000Y8257200D03*
X-18787000Y8257200D03*
X-17987000Y8257200D03*
X-17187000Y8257200D03*
X-16387000Y8257200D03*
X-15587000Y8257200D03*
X-14787000Y8257200D03*
X-13987000Y8257200D03*
X-13187000Y8257200D03*
X-12387000Y8257200D03*
X-11587000Y8257200D03*
D15*
X-32944600Y36233800D03*
X-34144600Y36233800D03*
X-32944600Y36933800D03*
X-34144600Y36933800D03*
D16*
X-29404400Y27271400D03*
X-29404400Y25271400D03*
D17*
X-34954400Y29621400D03*
X-34954400Y22921400D03*
M02*
