G04 #@! TF.GenerationSoftware,KiCad,Pcbnew,(5.99.0-2290-gd34f8fd4b)*
G04 #@! TF.CreationDate,2020-11-06T19:29:51+01:00*
G04 #@! TF.ProjectId,Tympan-Nya,54796d70-616e-42d4-9e79-612e6b696361,rev?*
G04 #@! TF.SameCoordinates,PX6d878d0PY72e6100*
G04 #@! TF.FileFunction,Other,User*
%FSLAX46Y46*%
G04 Gerber Fmt 4.6, Leading zero omitted, Abs format (unit mm)*
G04 Created by KiCad (PCBNEW (5.99.0-2290-gd34f8fd4b)) date 2020-11-06 19:29:51*
%MOMM*%
%LPD*%
G01*
G04 APERTURE LIST*
%ADD10C,0.050000*%
G04 APERTURE END LIST*
D10*
X-26691000Y50998000D02*
X-26691000Y44798000D01*
X-20491000Y50998000D02*
X-26691000Y50998000D01*
X-20491000Y44798000D02*
X-20491000Y50998000D01*
X-26691000Y44798000D02*
X-20491000Y44798000D01*
X-17399628Y44794888D02*
X-11490781Y45836777D01*
X-15923619Y36424023D02*
X-17399628Y44794888D01*
X-10014772Y37465912D02*
X-15923619Y36424023D01*
X-11490781Y45836777D02*
X-10014772Y37465912D01*
X-28232400Y42161600D02*
X-31592400Y42161600D01*
X-28232400Y44061600D02*
X-28232400Y42161600D01*
X-31592400Y44061600D02*
X-28232400Y44061600D01*
X-31592400Y42161600D02*
X-31592400Y44061600D01*
X-28087200Y44061600D02*
X-24727200Y44061600D01*
X-28087200Y42161600D02*
X-28087200Y44061600D01*
X-24727200Y42161600D02*
X-28087200Y42161600D01*
X-24727200Y44061600D02*
X-24727200Y42161600D01*
X-45110000Y19603200D02*
X-27110000Y19603200D01*
X-27110000Y19603200D02*
X-27110000Y8403200D01*
X-27110000Y8403200D02*
X-45110000Y8403200D01*
X-45110000Y8403200D02*
X-45110000Y19603200D01*
X-31871600Y30873800D02*
X-35471600Y30873800D01*
X-31871600Y34673800D02*
X-31871600Y30873800D01*
X-35471600Y34673800D02*
X-31871600Y34673800D01*
X-35471600Y30873800D02*
X-35471600Y34673800D01*
X-8970513Y32242821D02*
X-12515821Y31617687D01*
X-7468456Y23724234D02*
X-8970513Y32242821D01*
X-11013764Y23099100D02*
X-7468456Y23724234D01*
X-12515821Y31617687D02*
X-11013764Y23099100D01*
X-15827200Y36240000D02*
X-15827200Y32000000D01*
X-15827200Y32000000D02*
X-11587200Y32000000D01*
X-11587200Y32000000D02*
X-11587200Y36240000D01*
X-11587200Y36240000D02*
X-15827200Y36240000D01*
X-20727400Y22247800D02*
X-22587400Y22247800D01*
X-20727400Y23187800D02*
X-20727400Y22247800D01*
X-22587400Y23187800D02*
X-20727400Y23187800D01*
X-22587400Y22247800D02*
X-22587400Y23187800D01*
X-18294800Y23109200D02*
X-16434800Y23109200D01*
X-18294800Y22169200D02*
X-18294800Y23109200D01*
X-16434800Y22169200D02*
X-18294800Y22169200D01*
X-16434800Y23109200D02*
X-16434800Y22169200D01*
X-20727400Y21155600D02*
X-22587400Y21155600D01*
X-20727400Y22095600D02*
X-20727400Y21155600D01*
X-22587400Y22095600D02*
X-20727400Y22095600D01*
X-22587400Y21155600D02*
X-22587400Y22095600D01*
X-18294800Y22095600D02*
X-16434800Y22095600D01*
X-18294800Y21155600D02*
X-18294800Y22095600D01*
X-16434800Y21155600D02*
X-18294800Y21155600D01*
X-16434800Y22095600D02*
X-16434800Y21155600D01*
X-20676600Y35123200D02*
X-22536600Y35123200D01*
X-20676600Y36063200D02*
X-20676600Y35123200D01*
X-22536600Y36063200D02*
X-20676600Y36063200D01*
X-22536600Y35123200D02*
X-22536600Y36063200D01*
X-32061600Y37714200D02*
X-30201600Y37714200D01*
X-32061600Y36774200D02*
X-32061600Y37714200D01*
X-30201600Y36774200D02*
X-32061600Y36774200D01*
X-30201600Y37714200D02*
X-30201600Y36774200D01*
X-28220400Y41092200D02*
X-30080400Y41092200D01*
X-28220400Y42032200D02*
X-28220400Y41092200D01*
X-30080400Y42032200D02*
X-28220400Y42032200D01*
X-30080400Y41092200D02*
X-30080400Y42032200D01*
X-28099200Y42032200D02*
X-26239200Y42032200D01*
X-28099200Y41092200D02*
X-28099200Y42032200D01*
X-26239200Y41092200D02*
X-28099200Y41092200D01*
X-26239200Y42032200D02*
X-26239200Y41092200D01*
X-36478400Y31742200D02*
X-36478400Y33602200D01*
X-35538400Y31742200D02*
X-36478400Y31742200D01*
X-35538400Y33602200D02*
X-35538400Y31742200D01*
X-36478400Y33602200D02*
X-35538400Y33602200D01*
X-20552600Y21178200D02*
X-20552600Y23038200D01*
X-19612600Y21178200D02*
X-20552600Y21178200D01*
X-19612600Y23038200D02*
X-19612600Y21178200D01*
X-20552600Y23038200D02*
X-19612600Y23038200D01*
X-19435000Y21175800D02*
X-19435000Y23035800D01*
X-18495000Y21175800D02*
X-19435000Y21175800D01*
X-18495000Y23035800D02*
X-18495000Y21175800D01*
X-19435000Y23035800D02*
X-18495000Y23035800D01*
X-23764319Y37875086D02*
X-23764319Y36015086D01*
X-24704319Y37875086D02*
X-23764319Y37875086D01*
X-24704319Y36015086D02*
X-24704319Y37875086D01*
X-23764319Y36015086D02*
X-24704319Y36015086D01*
X-25077520Y37479607D02*
X-25077520Y35619607D01*
X-26017520Y37479607D02*
X-25077520Y37479607D01*
X-26017520Y35619607D02*
X-26017520Y37479607D01*
X-25077520Y35619607D02*
X-26017520Y35619607D01*
X-25302400Y33520200D02*
X-25302400Y35380200D01*
X-24362400Y33520200D02*
X-25302400Y33520200D01*
X-24362400Y35380200D02*
X-24362400Y33520200D01*
X-25302400Y35380200D02*
X-24362400Y35380200D01*
X-26394600Y33520200D02*
X-26394600Y35380200D01*
X-25454600Y33520200D02*
X-26394600Y33520200D01*
X-25454600Y35380200D02*
X-25454600Y33520200D01*
X-26394600Y35380200D02*
X-25454600Y35380200D01*
X-20676600Y33065800D02*
X-22536600Y33065800D01*
X-20676600Y34005800D02*
X-20676600Y33065800D01*
X-22536600Y34005800D02*
X-20676600Y34005800D01*
X-22536600Y33065800D02*
X-22536600Y34005800D01*
X-24210200Y33520200D02*
X-24210200Y35380200D01*
X-23270200Y33520200D02*
X-24210200Y33520200D01*
X-23270200Y35380200D02*
X-23270200Y33520200D01*
X-24210200Y35380200D02*
X-23270200Y35380200D01*
X-32589200Y41600200D02*
X-34449200Y41600200D01*
X-32589200Y42540200D02*
X-32589200Y41600200D01*
X-34449200Y42540200D02*
X-32589200Y42540200D01*
X-34449200Y41600200D02*
X-34449200Y42540200D01*
X-30737800Y40104600D02*
X-30737800Y38244600D01*
X-31677800Y40104600D02*
X-30737800Y40104600D01*
X-31677800Y38244600D02*
X-31677800Y40104600D01*
X-30737800Y38244600D02*
X-31677800Y38244600D01*
X-33179200Y49220400D02*
X-31319200Y49220400D01*
X-33179200Y48280400D02*
X-33179200Y49220400D01*
X-31319200Y48280400D02*
X-33179200Y48280400D01*
X-31319200Y49220400D02*
X-31319200Y48280400D01*
X-31319200Y47213600D02*
X-33179200Y47213600D01*
X-31319200Y48153600D02*
X-31319200Y47213600D01*
X-33179200Y48153600D02*
X-31319200Y48153600D01*
X-33179200Y47213600D02*
X-33179200Y48153600D01*
X-13945600Y48280400D02*
X-15805600Y48280400D01*
X-13945600Y49220400D02*
X-13945600Y48280400D01*
X-15805600Y49220400D02*
X-13945600Y49220400D01*
X-15805600Y48280400D02*
X-15805600Y49220400D01*
X-13945600Y47213600D02*
X-15805600Y47213600D01*
X-13945600Y48153600D02*
X-13945600Y47213600D01*
X-15805600Y48153600D02*
X-13945600Y48153600D01*
X-15805600Y47213600D02*
X-15805600Y48153600D01*
X-12237433Y29300886D02*
X-11914448Y27469143D01*
X-13163152Y29137657D02*
X-12237433Y29300886D01*
X-12840167Y27305914D02*
X-13163152Y29137657D01*
X-11914448Y27469143D02*
X-12840167Y27305914D01*
X-19635200Y51074400D02*
X-21495200Y51074400D01*
X-19635200Y52014400D02*
X-19635200Y51074400D01*
X-21495200Y52014400D02*
X-19635200Y52014400D01*
X-21495200Y51074400D02*
X-21495200Y52014400D01*
X-28683400Y46426400D02*
X-26823400Y46426400D01*
X-28683400Y45486400D02*
X-28683400Y46426400D01*
X-26823400Y45486400D02*
X-28683400Y45486400D01*
X-26823400Y46426400D02*
X-26823400Y45486400D01*
X-28708800Y45359600D02*
X-26848800Y45359600D01*
X-28708800Y44419600D02*
X-28708800Y45359600D01*
X-26848800Y44419600D02*
X-28708800Y44419600D01*
X-26848800Y45359600D02*
X-26848800Y44419600D01*
X-28895826Y48662625D02*
X-27035826Y48662625D01*
X-28895826Y47722625D02*
X-28895826Y48662625D01*
X-27035826Y47722625D02*
X-28895826Y47722625D01*
X-27035826Y48662625D02*
X-27035826Y47722625D01*
X-24764904Y52948759D02*
X-24764904Y51088759D01*
X-25704904Y52948759D02*
X-24764904Y52948759D01*
X-25704904Y51088759D02*
X-25704904Y52948759D01*
X-24764904Y51088759D02*
X-25704904Y51088759D01*
X-22054000Y44699200D02*
X-20194000Y44699200D01*
X-22054000Y43759200D02*
X-22054000Y44699200D01*
X-20194000Y43759200D02*
X-22054000Y43759200D01*
X-20194000Y44699200D02*
X-20194000Y43759200D01*
X-27740800Y51071600D02*
X-27740800Y52931600D01*
X-26800800Y51071600D02*
X-27740800Y51071600D01*
X-26800800Y52931600D02*
X-26800800Y51071600D01*
X-27740800Y52931600D02*
X-26800800Y52931600D01*
X-26724800Y51071600D02*
X-26724800Y52931600D01*
X-25784800Y51071600D02*
X-26724800Y51071600D01*
X-25784800Y52931600D02*
X-25784800Y51071600D01*
X-26724800Y52931600D02*
X-25784800Y52931600D01*
X-26823400Y46502400D02*
X-28683400Y46502400D01*
X-26823400Y47442400D02*
X-26823400Y46502400D01*
X-28683400Y47442400D02*
X-26823400Y47442400D01*
X-28683400Y46502400D02*
X-28683400Y47442400D01*
X-22025800Y36466600D02*
X-22025800Y38326600D01*
X-21085800Y36466600D02*
X-22025800Y36466600D01*
X-21085800Y38326600D02*
X-21085800Y36466600D01*
X-22025800Y38326600D02*
X-21085800Y38326600D01*
X-22178000Y38326600D02*
X-22178000Y36466600D01*
X-23118000Y38326600D02*
X-22178000Y38326600D01*
X-23118000Y36466600D02*
X-23118000Y38326600D01*
X-22178000Y36466600D02*
X-23118000Y36466600D01*
X-20676600Y34107200D02*
X-22536600Y34107200D01*
X-20676600Y35047200D02*
X-20676600Y34107200D01*
X-22536600Y35047200D02*
X-20676600Y35047200D01*
X-22536600Y34107200D02*
X-22536600Y35047200D01*
M02*
