G04 #@! TF.GenerationSoftware,KiCad,Pcbnew,(5.99.0-2290-gd34f8fd4b)*
G04 #@! TF.CreationDate,2020-11-06T19:29:51+01:00*
G04 #@! TF.ProjectId,Tympan-Nya,54796d70-616e-42d4-9e79-612e6b696361,rev?*
G04 #@! TF.SameCoordinates,PX6d878d0PY72e6100*
G04 #@! TF.FileFunction,Soldermask,Bot*
G04 #@! TF.FilePolarity,Negative*
%FSLAX46Y46*%
G04 Gerber Fmt 4.6, Leading zero omitted, Abs format (unit mm)*
G04 Created by KiCad (PCBNEW (5.99.0-2290-gd34f8fd4b)) date 2020-11-06 19:29:51*
%MOMM*%
%LPD*%
G01*
G04 APERTURE LIST*
%ADD10C,0.300000*%
%ADD11C,0.400000*%
%ADD12C,0.700000*%
%ADD13O,1.100000X1.700000*%
%ADD14C,0.750000*%
%ADD15O,1.100000X2.200000*%
%ADD16C,1.000000*%
%ADD17C,0.800000*%
%ADD18C,1.800000*%
G04 APERTURE END LIST*
G36*
X-13832227Y36520111D02*
G01*
X-14585270Y36387329D01*
X-14599702Y36469181D01*
X-14603869Y36498090D01*
X-14597961Y36530197D01*
X-14565432Y36552254D01*
X-14493299Y36571289D01*
X-14368578Y36594333D01*
X-14345660Y36598430D01*
X-14233011Y36620428D01*
X-14154254Y36638920D01*
X-14125247Y36650258D01*
X-14125443Y36651007D01*
X-14147193Y36685847D01*
X-14192919Y36748043D01*
X-14226459Y36799537D01*
X-14267348Y36927782D01*
X-14103505Y36927782D01*
X-14075760Y36813453D01*
X-14005714Y36727683D01*
X-13957963Y36702007D01*
X-13895339Y36691055D01*
X-13803463Y36696697D01*
X-13664647Y36718455D01*
X-13534029Y36743830D01*
X-13443041Y36769813D01*
X-13386286Y36800963D01*
X-13347304Y36843779D01*
X-13311751Y36938482D01*
X-13320816Y37055267D01*
X-13373731Y37163364D01*
X-13463800Y37239999D01*
X-13502512Y37255299D01*
X-13636853Y37272653D01*
X-13787799Y37255799D01*
X-13928768Y37209479D01*
X-14033180Y37138433D01*
X-14087344Y37046643D01*
X-14103505Y36927782D01*
X-14267348Y36927782D01*
X-14272638Y36944372D01*
X-14264116Y37093920D01*
X-14203829Y37230570D01*
X-14094717Y37336712D01*
X-14004749Y37379962D01*
X-13863517Y37422271D01*
X-13708596Y37450564D01*
X-13564806Y37460517D01*
X-13456965Y37447807D01*
X-13424788Y37436483D01*
X-13286068Y37349957D01*
X-13193501Y37224391D01*
X-13153867Y37072717D01*
X-13173947Y36907870D01*
X-13189659Y36851001D01*
X-13187452Y36810998D01*
X-13154208Y36795930D01*
X-13122958Y36778512D01*
X-13090911Y36719402D01*
X-13090477Y36716880D01*
X-13089601Y36695714D01*
X-13099959Y36677736D01*
X-13129305Y36660863D01*
X-13185394Y36643009D01*
X-13275977Y36622092D01*
X-13408808Y36596026D01*
X-13591640Y36562726D01*
X-13635808Y36554902D01*
X-13832227Y36520111D01*
G37*
G36*
X-14123737Y39322087D02*
G01*
X-14250635Y39306762D01*
X-14421231Y39319798D01*
X-14556399Y39381975D01*
X-14664660Y39496033D01*
X-14707090Y39565330D01*
X-14765960Y39737754D01*
X-14759538Y39908693D01*
X-14687642Y40073624D01*
X-14651992Y40123556D01*
X-14620453Y40138751D01*
X-14581606Y40110167D01*
X-14564291Y40091261D01*
X-14550642Y40043189D01*
X-14579296Y39971685D01*
X-14580420Y39969569D01*
X-14614932Y39840726D01*
X-14594499Y39712356D01*
X-14528432Y39600365D01*
X-14426050Y39520659D01*
X-14296669Y39489146D01*
X-14186660Y39487480D01*
X-14289917Y40073087D01*
X-14140230Y40073087D01*
X-14138403Y40020235D01*
X-14126494Y39923158D01*
X-14106210Y39797056D01*
X-14096865Y39745804D01*
X-14073168Y39630287D01*
X-14052920Y39550675D01*
X-14039716Y39521830D01*
X-14036848Y39522682D01*
X-13993171Y39545642D01*
X-13922343Y39589012D01*
X-13902907Y39602446D01*
X-13819992Y39697158D01*
X-13790713Y39805821D01*
X-13812430Y39912287D01*
X-13882507Y40000406D01*
X-13998307Y40054028D01*
X-14018242Y40058421D01*
X-14097032Y40073788D01*
X-14137859Y40078427D01*
X-14140230Y40073087D01*
X-14289917Y40073087D01*
X-14315111Y40215967D01*
X-14199466Y40236358D01*
X-14129370Y40244865D01*
X-13956979Y40229526D01*
X-13813653Y40163393D01*
X-13708859Y40052249D01*
X-13652069Y39901885D01*
X-13643247Y39772784D01*
X-13681279Y39610895D01*
X-13776120Y39479258D01*
X-13924646Y39381709D01*
X-14010476Y39356004D01*
X-14123737Y39322087D01*
G37*
G36*
X-14673972Y40468812D02*
G01*
X-14660920Y40426987D01*
X-14674195Y40346393D01*
X-14722978Y40288027D01*
X-14756081Y40286345D01*
X-14817962Y40313879D01*
X-14863220Y40347376D01*
X-14881128Y40379792D01*
X-14873466Y40435463D01*
X-14857492Y40466468D01*
X-14798249Y40500013D01*
X-14726469Y40502569D01*
X-14673972Y40468812D01*
G37*
G36*
X-13915004Y41339000D02*
G01*
X-13893542Y41271349D01*
X-13892975Y41268160D01*
X-13874550Y41207126D01*
X-13834935Y41184353D01*
X-13752001Y41186590D01*
X-13675992Y41188886D01*
X-13627944Y41167827D01*
X-13601194Y41109867D01*
X-13595142Y41088540D01*
X-13591644Y41041424D01*
X-13624345Y41016476D01*
X-13708097Y40998179D01*
X-13739988Y40992353D01*
X-13807346Y40972933D01*
X-13829921Y40939985D01*
X-13823916Y40876481D01*
X-13818339Y40833423D01*
X-13831815Y40784711D01*
X-13888449Y40763824D01*
X-13921688Y40759958D01*
X-13965587Y40777644D01*
X-13987151Y40844944D01*
X-14003999Y40940497D01*
X-14418142Y40878666D01*
X-14558486Y40858112D01*
X-14688707Y40841443D01*
X-14776178Y40835621D01*
X-14833734Y40840809D01*
X-14874210Y40857166D01*
X-14910441Y40884854D01*
X-14911560Y40885834D01*
X-14973041Y40966584D01*
X-14998558Y41056222D01*
X-14986420Y41134345D01*
X-14934937Y41180550D01*
X-14915387Y41185881D01*
X-14868670Y41176153D01*
X-14838652Y41113131D01*
X-14811879Y41022986D01*
X-14425546Y41081596D01*
X-14039213Y41140205D01*
X-14056716Y41239468D01*
X-14062466Y41284201D01*
X-14048808Y41332466D01*
X-13992365Y41353163D01*
X-13958386Y41357052D01*
X-13915004Y41339000D01*
G37*
G36*
X-14570349Y41324904D02*
G01*
X-14744800Y41344174D01*
X-14900661Y41405939D01*
X-15020643Y41508912D01*
X-15055102Y41558057D01*
X-15117938Y41710264D01*
X-15120334Y41768654D01*
X-14964705Y41768654D01*
X-14919488Y41654502D01*
X-14820397Y41564628D01*
X-14739120Y41527049D01*
X-14648359Y41514934D01*
X-14525528Y41529223D01*
X-14491306Y41535823D01*
X-14321579Y41592606D01*
X-14211129Y41679100D01*
X-14160120Y41795183D01*
X-14158731Y41804564D01*
X-14170686Y41938402D01*
X-14239968Y42046057D01*
X-14359317Y42115845D01*
X-14394108Y42125091D01*
X-14534218Y42131742D01*
X-14683518Y42103254D01*
X-14817372Y42046252D01*
X-14911141Y41967369D01*
X-14952363Y41890731D01*
X-14964705Y41768654D01*
X-15120334Y41768654D01*
X-15124160Y41861877D01*
X-15080591Y42004756D01*
X-14994053Y42130762D01*
X-14871372Y42231756D01*
X-14719371Y42299596D01*
X-14544875Y42326144D01*
X-14354705Y42303262D01*
X-14240754Y42258427D01*
X-14116561Y42158632D01*
X-14035687Y42027371D01*
X-14000572Y41877641D01*
X-14013656Y41722438D01*
X-14077374Y41574761D01*
X-14194166Y41447606D01*
X-14234844Y41418970D01*
X-14394601Y41349408D01*
X-14491441Y41335906D01*
X-14570349Y41324904D01*
G37*
G36*
X-13269697Y37733346D02*
G01*
X-14350150Y37542833D01*
X-14379015Y37706537D01*
X-13298562Y37897050D01*
X-13269697Y37733346D01*
G37*
G36*
X-13479711Y38884207D02*
G01*
X-13461030Y38818452D01*
X-13458077Y38773587D01*
X-13476067Y38719462D01*
X-13527600Y38655492D01*
X-13622390Y38566504D01*
X-13800248Y38408125D01*
X-13578418Y38317125D01*
X-13466445Y38268393D01*
X-13393734Y38225808D01*
X-13356018Y38181932D01*
X-13338780Y38125137D01*
X-13336426Y38112206D01*
X-13329664Y38070350D01*
X-13334896Y38047412D01*
X-13361965Y38044805D01*
X-13420711Y38063946D01*
X-13520976Y38106249D01*
X-13672601Y38173127D01*
X-13933880Y38288352D01*
X-14136871Y38088437D01*
X-14171230Y38054639D01*
X-14263162Y37964622D01*
X-14334001Y37895854D01*
X-14370644Y37861079D01*
X-14372717Y37859415D01*
X-14399271Y37871400D01*
X-14420624Y37942513D01*
X-14426216Y37996663D01*
X-14412717Y38051412D01*
X-14367014Y38110091D01*
X-14278738Y38190850D01*
X-14201907Y38260680D01*
X-14142835Y38321500D01*
X-14121755Y38353566D01*
X-14148329Y38374120D01*
X-14221744Y38410286D01*
X-14324923Y38452777D01*
X-14397183Y38481632D01*
X-14479354Y38523857D01*
X-14522115Y38567560D01*
X-14540986Y38625121D01*
X-14547747Y38693967D01*
X-14540132Y38724655D01*
X-14529304Y38722291D01*
X-14469066Y38699888D01*
X-14369939Y38658795D01*
X-14246532Y38604966D01*
X-13970781Y38482128D01*
X-13746813Y38693080D01*
X-13694153Y38742204D01*
X-13601479Y38826117D01*
X-13532831Y38884870D01*
X-13500187Y38908025D01*
X-13479711Y38884207D01*
G37*
G36*
X-13506394Y39075726D02*
G01*
X-14586848Y38885213D01*
X-14615713Y39048918D01*
X-13535260Y39239431D01*
X-13506394Y39075726D01*
G37*
G36*
X-14370068Y43869056D02*
G01*
X-14351011Y43847665D01*
X-14341271Y43810547D01*
X-14339079Y43794266D01*
X-14343875Y43761520D01*
X-14370484Y43730259D01*
X-14428780Y43693681D01*
X-14528643Y43644987D01*
X-14679946Y43577378D01*
X-14703461Y43567022D01*
X-14875827Y43489933D01*
X-14992827Y43434242D01*
X-15059898Y43396313D01*
X-15082479Y43372511D01*
X-15066009Y43359199D01*
X-15015925Y43352739D01*
X-14978237Y43349496D01*
X-14873688Y43338227D01*
X-14734633Y43321655D01*
X-14580764Y43302073D01*
X-14467402Y43286428D01*
X-14351341Y43266286D01*
X-14281264Y43245541D01*
X-14245212Y43220237D01*
X-14231220Y43186416D01*
X-14229837Y43174728D01*
X-14236979Y43142313D01*
X-14267872Y43107481D01*
X-14331564Y43063643D01*
X-14437104Y43004212D01*
X-14593541Y42922598D01*
X-14615070Y42911521D01*
X-14751782Y42839787D01*
X-14861037Y42780093D01*
X-14932190Y42738393D01*
X-14954598Y42720640D01*
X-14917682Y42713614D01*
X-14832703Y42704140D01*
X-14718359Y42694355D01*
X-14543653Y42680851D01*
X-14380930Y42666459D01*
X-14267595Y42652589D01*
X-14194283Y42637141D01*
X-14151628Y42618014D01*
X-14130262Y42593107D01*
X-14120822Y42560318D01*
X-14120724Y42507116D01*
X-14144196Y42474195D01*
X-14164855Y42473081D01*
X-14226565Y42476101D01*
X-14330569Y42485245D01*
X-14482781Y42501106D01*
X-14689112Y42524273D01*
X-14955479Y42555339D01*
X-15021018Y42563353D01*
X-15136705Y42581065D01*
X-15205077Y42600694D01*
X-15239517Y42627190D01*
X-15253415Y42665502D01*
X-15255394Y42685337D01*
X-15246749Y42717989D01*
X-15214769Y42752971D01*
X-15150399Y42797088D01*
X-15044583Y42857148D01*
X-14888261Y42939960D01*
X-14509603Y43137822D01*
X-14934811Y43194767D01*
X-15092292Y43216386D01*
X-15217056Y43236187D01*
X-15295987Y43254475D01*
X-15339775Y43274747D01*
X-15359110Y43300490D01*
X-15364681Y43335201D01*
X-15364935Y43341261D01*
X-15360613Y43374742D01*
X-15339936Y43406909D01*
X-15294190Y43443779D01*
X-15214655Y43491379D01*
X-15092619Y43555726D01*
X-14919362Y43642844D01*
X-14889938Y43657494D01*
X-14702228Y43750145D01*
X-14564523Y43815265D01*
X-14468687Y43855217D01*
X-14406581Y43872361D01*
X-14370068Y43869056D01*
G37*
G36*
X-14633674Y44773633D02*
G01*
X-14551468Y44721816D01*
X-14498416Y44638419D01*
X-14466678Y44521046D01*
X-14465780Y44515575D01*
X-14465107Y44394730D01*
X-14490887Y44278246D01*
X-14504369Y44243572D01*
X-14522888Y44185936D01*
X-14513076Y44167539D01*
X-14472002Y44171859D01*
X-14419335Y44163022D01*
X-14392568Y44101468D01*
X-14378136Y44019616D01*
X-15458589Y43829103D01*
X-15493228Y44025548D01*
X-15085821Y44097385D01*
X-14956741Y44120478D01*
X-14826439Y44145992D01*
X-14741434Y44167734D01*
X-14689933Y44189768D01*
X-14660146Y44216160D01*
X-14640278Y44250976D01*
X-14639370Y44252949D01*
X-14616214Y44353491D01*
X-14624411Y44460758D01*
X-14658909Y44551009D01*
X-14714656Y44600510D01*
X-14770425Y44603901D01*
X-14877346Y44596330D01*
X-15018759Y44579028D01*
X-15179006Y44553579D01*
X-15574051Y44483922D01*
X-15608690Y44680369D01*
X-15214746Y44749832D01*
X-15133646Y44763602D01*
X-14916920Y44792128D01*
X-14752878Y44796272D01*
X-14633674Y44773633D01*
G37*
G36*
X-12951893Y37945074D02*
G01*
X-12921588Y37905069D01*
X-12910419Y37835371D01*
X-12939471Y37778883D01*
X-12996431Y37753339D01*
X-13068981Y37776474D01*
X-13099781Y37808058D01*
X-13110174Y37878861D01*
X-13061540Y37952105D01*
X-13057383Y37955708D01*
X-13006260Y37978483D01*
X-12951893Y37945074D01*
G37*
G36*
X-13188591Y39287455D02*
G01*
X-13158286Y39247449D01*
X-13147117Y39177751D01*
X-13176169Y39121263D01*
X-13233129Y39095720D01*
X-13305679Y39118854D01*
X-13336479Y39150439D01*
X-13346872Y39221242D01*
X-13298238Y39294486D01*
X-13294081Y39298088D01*
X-13242958Y39320864D01*
X-13188591Y39287455D01*
G37*
G36*
X-11134393Y38047188D02*
G01*
X-11118801Y37979677D01*
X-11118157Y37975997D01*
X-11114098Y37936260D01*
X-11123711Y37902920D01*
X-11156078Y37868604D01*
X-11220288Y37825936D01*
X-11325424Y37767544D01*
X-11480573Y37686051D01*
X-11859305Y37488605D01*
X-11460751Y37430043D01*
X-11459703Y37429889D01*
X-11302811Y37405620D01*
X-11169657Y37382772D01*
X-11074282Y37363907D01*
X-11030731Y37351587D01*
X-11009640Y37319065D01*
X-10995545Y37247764D01*
X-10991825Y37163833D01*
X-11545379Y37262315D01*
X-11701353Y37289523D01*
X-11872270Y37316849D01*
X-11995367Y37332062D01*
X-12080751Y37335976D01*
X-12138533Y37329399D01*
X-12178820Y37313145D01*
X-12251610Y37260883D01*
X-12326925Y37165017D01*
X-12341577Y37064671D01*
X-12340005Y37054687D01*
X-12349637Y36998435D01*
X-12409892Y36973461D01*
X-12445381Y36969538D01*
X-12487716Y36988348D01*
X-12508972Y37056734D01*
X-12513822Y37093847D01*
X-12509630Y37165696D01*
X-12481281Y37234843D01*
X-12422868Y37306660D01*
X-12328489Y37386509D01*
X-12192236Y37479761D01*
X-12008205Y37591782D01*
X-11770492Y37727939D01*
X-11709841Y37762053D01*
X-11533623Y37860895D01*
X-11380651Y37946296D01*
X-11259588Y38013443D01*
X-11179098Y38057523D01*
X-11147845Y38073726D01*
X-11134393Y38047188D01*
G37*
G36*
X-11196959Y37080110D02*
G01*
X-11053971Y37016161D01*
X-10948875Y36912652D01*
X-10884305Y36782363D01*
X-10862894Y36638072D01*
X-10887275Y36492558D01*
X-10960082Y36358597D01*
X-11083949Y36248970D01*
X-11113063Y36231816D01*
X-11298712Y36158455D01*
X-11489408Y36137346D01*
X-11669688Y36168430D01*
X-11824094Y36251653D01*
X-11848772Y36271953D01*
X-11913546Y36338670D01*
X-11951354Y36415900D01*
X-11977508Y36531584D01*
X-11989679Y36609194D01*
X-11991059Y36696080D01*
X-11965144Y36770445D01*
X-11905039Y36863898D01*
X-11831086Y36957648D01*
X-11759468Y37015518D01*
X-11708403Y37013066D01*
X-11679857Y36949547D01*
X-11682078Y36888394D01*
X-11737256Y36817546D01*
X-11758223Y36801654D01*
X-11829402Y36705327D01*
X-11845885Y36592509D01*
X-11808423Y36479842D01*
X-11717763Y36383967D01*
X-11669028Y36352420D01*
X-11602487Y36326260D01*
X-11522703Y36323500D01*
X-11404067Y36340600D01*
X-11370224Y36346975D01*
X-11198384Y36398221D01*
X-11086452Y36472435D01*
X-11031256Y36572680D01*
X-11029623Y36702015D01*
X-11039562Y36740026D01*
X-11092722Y36829982D01*
X-11169606Y36892032D01*
X-11250512Y36907819D01*
X-11289421Y36923117D01*
X-11317332Y36999589D01*
X-11324294Y37054425D01*
X-11310181Y37089273D01*
X-11257497Y37091021D01*
X-11196959Y37080110D01*
G37*
G36*
X-12233531Y37983567D02*
G01*
X-12247964Y38065420D01*
X-12247766Y38120505D01*
X-12213286Y38155932D01*
X-12179177Y38168810D01*
X-12178336Y38205228D01*
X-12234193Y38268414D01*
X-12250994Y38288692D01*
X-12291773Y38372365D01*
X-12309948Y38438802D01*
X-12176101Y38438802D01*
X-12137623Y38364474D01*
X-12036325Y38263092D01*
X-11989697Y38233843D01*
X-11930980Y38219807D01*
X-11845769Y38223507D01*
X-11714975Y38243797D01*
X-11585535Y38269299D01*
X-11503396Y38295155D01*
X-11450212Y38329595D01*
X-11407443Y38380886D01*
X-11394679Y38400665D01*
X-11357399Y38521410D01*
X-11382472Y38641083D01*
X-11467716Y38746447D01*
X-11495902Y38766060D01*
X-11612126Y38805267D01*
X-11749565Y38808092D01*
X-11890905Y38779360D01*
X-12018832Y38723896D01*
X-12116033Y38646527D01*
X-12165195Y38552075D01*
X-12175251Y38484583D01*
X-12176101Y38438802D01*
X-12309948Y38438802D01*
X-12320788Y38478421D01*
X-12331812Y38572024D01*
X-12318175Y38659151D01*
X-12268012Y38747736D01*
X-12169265Y38850967D01*
X-12024108Y38935720D01*
X-11857995Y38985113D01*
X-11685732Y38998208D01*
X-11522126Y38974067D01*
X-11381985Y38911752D01*
X-11280114Y38810325D01*
X-11263912Y38784425D01*
X-11213347Y38678580D01*
X-11204332Y38579186D01*
X-11232583Y38454150D01*
X-11273108Y38321710D01*
X-10998339Y38370159D01*
X-10869484Y38392182D01*
X-10785207Y38402261D01*
X-10739545Y38397441D01*
X-10718765Y38376135D01*
X-10709138Y38336756D01*
X-10694705Y38254904D01*
X-11686109Y38080093D01*
X-12233531Y37983567D01*
G37*
G36*
X-11752292Y39127062D02*
G01*
X-11932611Y39085545D01*
X-12110412Y39089392D01*
X-12270081Y39138329D01*
X-12396000Y39232085D01*
X-12407131Y39245806D01*
X-12460531Y39350964D01*
X-12499224Y39495480D01*
X-12501195Y39506513D01*
X-12515257Y39625261D01*
X-12504549Y39712310D01*
X-12465847Y39796756D01*
X-12451365Y39820870D01*
X-12404381Y39887884D01*
X-12372519Y39917079D01*
X-12354223Y39916588D01*
X-12321130Y39879362D01*
X-12315159Y39802657D01*
X-12338924Y39703107D01*
X-12354380Y39653213D01*
X-12360379Y39511139D01*
X-12308990Y39392533D01*
X-12206448Y39307154D01*
X-12058984Y39264759D01*
X-11951055Y39253411D01*
X-12044298Y39782221D01*
X-11867771Y39782221D01*
X-11860181Y39702995D01*
X-11838501Y39572374D01*
X-11837245Y39565294D01*
X-11808846Y39430264D01*
X-11781527Y39344518D01*
X-11757950Y39316507D01*
X-11720611Y39330558D01*
X-11645899Y39382133D01*
X-11578517Y39448831D01*
X-11544224Y39507619D01*
X-11539794Y39561068D01*
X-11565791Y39674434D01*
X-11629640Y39770698D01*
X-11718047Y39833409D01*
X-11817717Y39846111D01*
X-11836486Y39841703D01*
X-11860222Y39823855D01*
X-11867771Y39782221D01*
X-12044298Y39782221D01*
X-12083031Y40001882D01*
X-11996791Y40017089D01*
X-11974651Y40020487D01*
X-11816259Y40020737D01*
X-11663571Y39985588D01*
X-11544857Y39921046D01*
X-11534401Y39912029D01*
X-11434751Y39783817D01*
X-11390221Y39635553D01*
X-11400074Y39481977D01*
X-11463574Y39337829D01*
X-11579984Y39217852D01*
X-11585072Y39214214D01*
X-11726881Y39140306D01*
X-11752292Y39127062D01*
G37*
G36*
X-11629341Y40740366D02*
G01*
X-11592696Y40712675D01*
X-11575818Y40637677D01*
X-11579227Y40539955D01*
X-11607880Y40454790D01*
X-11629967Y40417883D01*
X-11635558Y40389950D01*
X-11599836Y40390913D01*
X-11561182Y40382575D01*
X-11531219Y40318615D01*
X-11516786Y40236762D01*
X-12597238Y40046249D01*
X-12626104Y40209955D01*
X-12239385Y40278144D01*
X-12203859Y40284438D01*
X-12046264Y40313936D01*
X-11939207Y40338567D01*
X-11869841Y40362578D01*
X-11825316Y40390216D01*
X-11792783Y40425724D01*
X-11758595Y40492415D01*
X-11753263Y40620610D01*
X-11753453Y40621687D01*
X-11761917Y40698613D01*
X-11742062Y40731748D01*
X-11681762Y40741618D01*
X-11629341Y40740366D01*
G37*
G36*
X-11626475Y40858841D02*
G01*
X-12711277Y40667562D01*
X-12722309Y40851290D01*
X-12191854Y40954100D01*
X-11661400Y41056909D01*
X-11626475Y40858841D01*
G37*
G36*
X-12443371Y41083070D02*
G01*
X-12563636Y41082525D01*
X-12691602Y41141059D01*
X-12760631Y41198250D01*
X-12805173Y41270426D01*
X-12832388Y41379854D01*
X-12838599Y41424533D01*
X-12840657Y41534286D01*
X-12829935Y41583420D01*
X-12677728Y41583420D01*
X-12677421Y41458273D01*
X-12675168Y41446116D01*
X-12637176Y41337368D01*
X-12572340Y41285349D01*
X-12472968Y41283484D01*
X-12433630Y41294583D01*
X-12358505Y41358909D01*
X-12326261Y41472973D01*
X-12337344Y41635619D01*
X-12355602Y41730523D01*
X-12375922Y41782716D01*
X-12409097Y41797892D01*
X-12467522Y41790828D01*
X-12541605Y41763208D01*
X-12633428Y41678712D01*
X-12677728Y41583420D01*
X-12829935Y41583420D01*
X-12823731Y41611850D01*
X-12797403Y41672135D01*
X-12797560Y41718545D01*
X-12842556Y41724700D01*
X-12879336Y41737207D01*
X-12907756Y41807282D01*
X-12923844Y41898525D01*
X-12487826Y41962544D01*
X-12301413Y41987764D01*
X-12141806Y42003036D01*
X-12032808Y42004128D01*
X-11966841Y41991461D01*
X-11935031Y41975779D01*
X-11835524Y41884920D01*
X-11769077Y41756547D01*
X-11739944Y41608751D01*
X-11752381Y41459626D01*
X-11810642Y41327264D01*
X-11825554Y41307064D01*
X-11887707Y41240357D01*
X-11938791Y41208879D01*
X-11981324Y41219621D01*
X-12001485Y41271444D01*
X-11990129Y41347733D01*
X-11946599Y41429892D01*
X-11930603Y41454658D01*
X-11897976Y41563082D01*
X-11904101Y41678584D01*
X-11948778Y41770469D01*
X-11989637Y41796531D01*
X-12069459Y41821114D01*
X-12151253Y41830490D01*
X-12203667Y41818723D01*
X-12211382Y41798025D01*
X-12212699Y41725595D01*
X-12200475Y41624930D01*
X-12189836Y41527756D01*
X-12204041Y41365036D01*
X-12256049Y41231740D01*
X-12338334Y41135280D01*
X-12438093Y41085694D01*
X-12443371Y41083070D01*
G37*
G36*
X-12814668Y42320496D02*
G01*
X-12781337Y42239065D01*
X-12776652Y42205058D01*
X-12787595Y42152120D01*
X-12840894Y42130100D01*
X-12893079Y42125641D01*
X-12942966Y42134608D01*
X-12972016Y42176256D01*
X-12974145Y42249183D01*
X-12937303Y42309904D01*
X-12872565Y42341166D01*
X-12814668Y42320496D01*
G37*
G36*
X-12370690Y43534354D02*
G01*
X-12281626Y43508238D01*
X-12188363Y43457657D01*
X-12092897Y43364203D01*
X-12023433Y43223364D01*
X-12003754Y43066729D01*
X-12035566Y42911471D01*
X-12120575Y42774764D01*
X-12238428Y42682921D01*
X-12395218Y42618504D01*
X-12567741Y42589044D01*
X-12738633Y42595596D01*
X-12890528Y42639217D01*
X-13006064Y42720960D01*
X-13024688Y42743572D01*
X-13090178Y42874644D01*
X-13117800Y43028537D01*
X-13105653Y43180901D01*
X-13051837Y43307387D01*
X-13007080Y43363356D01*
X-12930192Y43428768D01*
X-12866500Y43444824D01*
X-12825721Y43407233D01*
X-12822848Y43388902D01*
X-12844122Y43315079D01*
X-12901394Y43221109D01*
X-12952671Y43140235D01*
X-12983751Y43026223D01*
X-12951451Y42926080D01*
X-12855068Y42833942D01*
X-12760478Y42783890D01*
X-12632950Y42770851D01*
X-12458145Y42803872D01*
X-12304845Y42857969D01*
X-12208200Y42931571D01*
X-12163489Y43028542D01*
X-12165987Y43152742D01*
X-12188129Y43208806D01*
X-12248996Y43284494D01*
X-12324875Y43340470D01*
X-12393524Y43356788D01*
X-12427507Y43374347D01*
X-12453447Y43442817D01*
X-12459375Y43489799D01*
X-12443866Y43527906D01*
X-12383695Y43535261D01*
X-12370690Y43534354D01*
G37*
G36*
X-11676136Y43820872D02*
G01*
X-13219312Y43548768D01*
X-13230344Y43732498D01*
X-11710987Y44018525D01*
X-11676136Y43820872D01*
G37*
G36*
X-12319249Y44787760D02*
G01*
X-12723437Y44716491D01*
X-12727611Y44715754D01*
X-12900646Y44683872D01*
X-13019712Y44657821D01*
X-13096415Y44634019D01*
X-13142362Y44608880D01*
X-13169157Y44578820D01*
X-13210755Y44475851D01*
X-13209913Y44353949D01*
X-13156048Y44251737D01*
X-13152468Y44247942D01*
X-13122611Y44220158D01*
X-13088366Y44203832D01*
X-13037522Y44199033D01*
X-12957870Y44205826D01*
X-12837200Y44224283D01*
X-12663303Y44254469D01*
X-12238426Y44329387D01*
X-12202914Y44127991D01*
X-12666082Y44057314D01*
X-12759627Y44043080D01*
X-12915875Y44020331D01*
X-13024341Y44007903D01*
X-13097227Y44005955D01*
X-13146729Y44014646D01*
X-13185048Y44034135D01*
X-13224386Y44064581D01*
X-13273558Y44117700D01*
X-13334677Y44244966D01*
X-13358242Y44394504D01*
X-13338490Y44542199D01*
X-13320737Y44605996D01*
X-13323774Y44637623D01*
X-13355522Y44638796D01*
X-13390926Y44648740D01*
X-13419908Y44711841D01*
X-13434340Y44793693D01*
X-12353888Y44984206D01*
X-12319249Y44787760D01*
G37*
G36*
X-13468979Y44990140D02*
G01*
X-13483412Y45071992D01*
X-13483213Y45127077D01*
X-13448733Y45162504D01*
X-13414624Y45175382D01*
X-13413784Y45211800D01*
X-13469640Y45274986D01*
X-13477270Y45282759D01*
X-13525715Y45370887D01*
X-13551031Y45472611D01*
X-13403389Y45472611D01*
X-13378973Y45377358D01*
X-13357211Y45343730D01*
X-13301401Y45286707D01*
X-13227892Y45259740D01*
X-13121389Y45259284D01*
X-12966591Y45281794D01*
X-12841750Y45305415D01*
X-12738399Y45331902D01*
X-12675235Y45362875D01*
X-12638151Y45405763D01*
X-12613041Y45467994D01*
X-12600737Y45591925D01*
X-12643159Y45706167D01*
X-12732706Y45789361D01*
X-12859470Y45827072D01*
X-12920455Y45826739D01*
X-13048010Y45806888D01*
X-13177616Y45768539D01*
X-13286465Y45719146D01*
X-13351746Y45666166D01*
X-13388908Y45585765D01*
X-13403389Y45472611D01*
X-13551031Y45472611D01*
X-13555767Y45491640D01*
X-13562723Y45616294D01*
X-13541878Y45716123D01*
X-13497940Y45781535D01*
X-13390899Y45875440D01*
X-13253328Y45952335D01*
X-13106612Y45998355D01*
X-12956471Y46015149D01*
X-12767738Y45998641D01*
X-12619153Y45935231D01*
X-12514854Y45826977D01*
X-12458979Y45675941D01*
X-12458644Y45674030D01*
X-12449924Y45535929D01*
X-12481318Y45437907D01*
X-12531537Y45357989D01*
X-11964792Y45457922D01*
X-11930153Y45261476D01*
X-12931864Y45084848D01*
X-13468979Y44990140D01*
G37*
G36*
X-11300072Y41088302D02*
G01*
X-11259889Y41038683D01*
X-11260248Y40960983D01*
X-11304632Y40903545D01*
X-11376290Y40889806D01*
X-11414867Y40911570D01*
X-11440228Y40988832D01*
X-11440744Y41001497D01*
X-11425036Y41064215D01*
X-11363558Y41090875D01*
X-11300072Y41088302D01*
G37*
D10*
X-31523150Y50350600D02*
G75*
G03*
X-31523150Y50350600I-675250J0D01*
G01*
X-14149550Y50350600D02*
G75*
G03*
X-14149550Y50350600I-675250J0D01*
G01*
G36*
X-13832227Y36520111D02*
G01*
X-14585270Y36387329D01*
X-14599702Y36469181D01*
X-14603869Y36498090D01*
X-14597961Y36530197D01*
X-14565432Y36552254D01*
X-14493299Y36571289D01*
X-14368578Y36594333D01*
X-14345660Y36598430D01*
X-14233011Y36620428D01*
X-14154254Y36638920D01*
X-14125247Y36650258D01*
X-14125443Y36651007D01*
X-14147193Y36685847D01*
X-14192919Y36748043D01*
X-14226459Y36799537D01*
X-14267348Y36927782D01*
X-14103505Y36927782D01*
X-14075760Y36813453D01*
X-14005714Y36727683D01*
X-13957963Y36702007D01*
X-13895339Y36691055D01*
X-13803463Y36696697D01*
X-13664647Y36718455D01*
X-13534029Y36743830D01*
X-13443041Y36769813D01*
X-13386286Y36800963D01*
X-13347304Y36843779D01*
X-13311751Y36938482D01*
X-13320816Y37055267D01*
X-13373731Y37163364D01*
X-13463800Y37239999D01*
X-13502512Y37255299D01*
X-13636853Y37272653D01*
X-13787799Y37255799D01*
X-13928768Y37209479D01*
X-14033180Y37138433D01*
X-14087344Y37046643D01*
X-14103505Y36927782D01*
X-14267348Y36927782D01*
X-14272638Y36944372D01*
X-14264116Y37093920D01*
X-14203829Y37230570D01*
X-14094717Y37336712D01*
X-14004749Y37379962D01*
X-13863517Y37422271D01*
X-13708596Y37450564D01*
X-13564806Y37460517D01*
X-13456965Y37447807D01*
X-13424788Y37436483D01*
X-13286068Y37349957D01*
X-13193501Y37224391D01*
X-13153867Y37072717D01*
X-13173947Y36907870D01*
X-13189659Y36851001D01*
X-13187452Y36810998D01*
X-13154208Y36795930D01*
X-13122958Y36778512D01*
X-13090911Y36719402D01*
X-13090477Y36716880D01*
X-13089601Y36695714D01*
X-13099959Y36677736D01*
X-13129305Y36660863D01*
X-13185394Y36643009D01*
X-13275977Y36622092D01*
X-13408808Y36596026D01*
X-13591640Y36562726D01*
X-13635808Y36554902D01*
X-13832227Y36520111D01*
G37*
G36*
X-14123737Y39322087D02*
G01*
X-14250635Y39306762D01*
X-14421231Y39319798D01*
X-14556399Y39381975D01*
X-14664660Y39496033D01*
X-14707090Y39565330D01*
X-14765960Y39737754D01*
X-14759538Y39908693D01*
X-14687642Y40073624D01*
X-14651992Y40123556D01*
X-14620453Y40138751D01*
X-14581606Y40110167D01*
X-14564291Y40091261D01*
X-14550642Y40043189D01*
X-14579296Y39971685D01*
X-14580420Y39969569D01*
X-14614932Y39840726D01*
X-14594499Y39712356D01*
X-14528432Y39600365D01*
X-14426050Y39520659D01*
X-14296669Y39489146D01*
X-14186660Y39487480D01*
X-14289917Y40073087D01*
X-14140230Y40073087D01*
X-14138403Y40020235D01*
X-14126494Y39923158D01*
X-14106210Y39797056D01*
X-14096865Y39745804D01*
X-14073168Y39630287D01*
X-14052920Y39550675D01*
X-14039716Y39521830D01*
X-14036848Y39522682D01*
X-13993171Y39545642D01*
X-13922343Y39589012D01*
X-13902907Y39602446D01*
X-13819992Y39697158D01*
X-13790713Y39805821D01*
X-13812430Y39912287D01*
X-13882507Y40000406D01*
X-13998307Y40054028D01*
X-14018242Y40058421D01*
X-14097032Y40073788D01*
X-14137859Y40078427D01*
X-14140230Y40073087D01*
X-14289917Y40073087D01*
X-14315111Y40215967D01*
X-14199466Y40236358D01*
X-14129370Y40244865D01*
X-13956979Y40229526D01*
X-13813653Y40163393D01*
X-13708859Y40052249D01*
X-13652069Y39901885D01*
X-13643247Y39772784D01*
X-13681279Y39610895D01*
X-13776120Y39479258D01*
X-13924646Y39381709D01*
X-14010476Y39356004D01*
X-14123737Y39322087D01*
G37*
G36*
X-14673972Y40468812D02*
G01*
X-14660920Y40426987D01*
X-14674195Y40346393D01*
X-14722978Y40288027D01*
X-14756081Y40286345D01*
X-14817962Y40313879D01*
X-14863220Y40347376D01*
X-14881128Y40379792D01*
X-14873466Y40435463D01*
X-14857492Y40466468D01*
X-14798249Y40500013D01*
X-14726469Y40502569D01*
X-14673972Y40468812D01*
G37*
G36*
X-13915004Y41339000D02*
G01*
X-13893542Y41271349D01*
X-13892975Y41268160D01*
X-13874550Y41207126D01*
X-13834935Y41184353D01*
X-13752001Y41186590D01*
X-13675992Y41188886D01*
X-13627944Y41167827D01*
X-13601194Y41109867D01*
X-13595142Y41088540D01*
X-13591644Y41041424D01*
X-13624345Y41016476D01*
X-13708097Y40998179D01*
X-13739988Y40992353D01*
X-13807346Y40972933D01*
X-13829921Y40939985D01*
X-13823916Y40876481D01*
X-13818339Y40833423D01*
X-13831815Y40784711D01*
X-13888449Y40763824D01*
X-13921688Y40759958D01*
X-13965587Y40777644D01*
X-13987151Y40844944D01*
X-14003999Y40940497D01*
X-14418142Y40878666D01*
X-14558486Y40858112D01*
X-14688707Y40841443D01*
X-14776178Y40835621D01*
X-14833734Y40840809D01*
X-14874210Y40857166D01*
X-14910441Y40884854D01*
X-14911560Y40885834D01*
X-14973041Y40966584D01*
X-14998558Y41056222D01*
X-14986420Y41134345D01*
X-14934937Y41180550D01*
X-14915387Y41185881D01*
X-14868670Y41176153D01*
X-14838652Y41113131D01*
X-14811879Y41022986D01*
X-14425546Y41081596D01*
X-14039213Y41140205D01*
X-14056716Y41239468D01*
X-14062466Y41284201D01*
X-14048808Y41332466D01*
X-13992365Y41353163D01*
X-13958386Y41357052D01*
X-13915004Y41339000D01*
G37*
G36*
X-14570349Y41324904D02*
G01*
X-14744800Y41344174D01*
X-14900661Y41405939D01*
X-15020643Y41508912D01*
X-15055102Y41558057D01*
X-15117938Y41710264D01*
X-15120334Y41768654D01*
X-14964705Y41768654D01*
X-14919488Y41654502D01*
X-14820397Y41564628D01*
X-14739120Y41527049D01*
X-14648359Y41514934D01*
X-14525528Y41529223D01*
X-14491306Y41535823D01*
X-14321579Y41592606D01*
X-14211129Y41679100D01*
X-14160120Y41795183D01*
X-14158731Y41804564D01*
X-14170686Y41938402D01*
X-14239968Y42046057D01*
X-14359317Y42115845D01*
X-14394108Y42125091D01*
X-14534218Y42131742D01*
X-14683518Y42103254D01*
X-14817372Y42046252D01*
X-14911141Y41967369D01*
X-14952363Y41890731D01*
X-14964705Y41768654D01*
X-15120334Y41768654D01*
X-15124160Y41861877D01*
X-15080591Y42004756D01*
X-14994053Y42130762D01*
X-14871372Y42231756D01*
X-14719371Y42299596D01*
X-14544875Y42326144D01*
X-14354705Y42303262D01*
X-14240754Y42258427D01*
X-14116561Y42158632D01*
X-14035687Y42027371D01*
X-14000572Y41877641D01*
X-14013656Y41722438D01*
X-14077374Y41574761D01*
X-14194166Y41447606D01*
X-14234844Y41418970D01*
X-14394601Y41349408D01*
X-14491441Y41335906D01*
X-14570349Y41324904D01*
G37*
G36*
X-13269697Y37733346D02*
G01*
X-14350150Y37542833D01*
X-14379015Y37706537D01*
X-13298562Y37897050D01*
X-13269697Y37733346D01*
G37*
G36*
X-13479711Y38884207D02*
G01*
X-13461030Y38818452D01*
X-13458077Y38773587D01*
X-13476067Y38719462D01*
X-13527600Y38655492D01*
X-13622390Y38566504D01*
X-13800248Y38408125D01*
X-13578418Y38317125D01*
X-13466445Y38268393D01*
X-13393734Y38225808D01*
X-13356018Y38181932D01*
X-13338780Y38125137D01*
X-13336426Y38112206D01*
X-13329664Y38070350D01*
X-13334896Y38047412D01*
X-13361965Y38044805D01*
X-13420711Y38063946D01*
X-13520976Y38106249D01*
X-13672601Y38173127D01*
X-13933880Y38288352D01*
X-14136871Y38088437D01*
X-14171230Y38054639D01*
X-14263162Y37964622D01*
X-14334001Y37895854D01*
X-14370644Y37861079D01*
X-14372717Y37859415D01*
X-14399271Y37871400D01*
X-14420624Y37942513D01*
X-14426216Y37996663D01*
X-14412717Y38051412D01*
X-14367014Y38110091D01*
X-14278738Y38190850D01*
X-14201907Y38260680D01*
X-14142835Y38321500D01*
X-14121755Y38353566D01*
X-14148329Y38374120D01*
X-14221744Y38410286D01*
X-14324923Y38452777D01*
X-14397183Y38481632D01*
X-14479354Y38523857D01*
X-14522115Y38567560D01*
X-14540986Y38625121D01*
X-14547747Y38693967D01*
X-14540132Y38724655D01*
X-14529304Y38722291D01*
X-14469066Y38699888D01*
X-14369939Y38658795D01*
X-14246532Y38604966D01*
X-13970781Y38482128D01*
X-13746813Y38693080D01*
X-13694153Y38742204D01*
X-13601479Y38826117D01*
X-13532831Y38884870D01*
X-13500187Y38908025D01*
X-13479711Y38884207D01*
G37*
G36*
X-13506394Y39075726D02*
G01*
X-14586848Y38885213D01*
X-14615713Y39048918D01*
X-13535260Y39239431D01*
X-13506394Y39075726D01*
G37*
G36*
X-14370068Y43869056D02*
G01*
X-14351011Y43847665D01*
X-14341271Y43810547D01*
X-14339079Y43794266D01*
X-14343875Y43761520D01*
X-14370484Y43730259D01*
X-14428780Y43693681D01*
X-14528643Y43644987D01*
X-14679946Y43577378D01*
X-14703461Y43567022D01*
X-14875827Y43489933D01*
X-14992827Y43434242D01*
X-15059898Y43396313D01*
X-15082479Y43372511D01*
X-15066009Y43359199D01*
X-15015925Y43352739D01*
X-14978237Y43349496D01*
X-14873688Y43338227D01*
X-14734633Y43321655D01*
X-14580764Y43302073D01*
X-14467402Y43286428D01*
X-14351341Y43266286D01*
X-14281264Y43245541D01*
X-14245212Y43220237D01*
X-14231220Y43186416D01*
X-14229837Y43174728D01*
X-14236979Y43142313D01*
X-14267872Y43107481D01*
X-14331564Y43063643D01*
X-14437104Y43004212D01*
X-14593541Y42922598D01*
X-14615070Y42911521D01*
X-14751782Y42839787D01*
X-14861037Y42780093D01*
X-14932190Y42738393D01*
X-14954598Y42720640D01*
X-14917682Y42713614D01*
X-14832703Y42704140D01*
X-14718359Y42694355D01*
X-14543653Y42680851D01*
X-14380930Y42666459D01*
X-14267595Y42652589D01*
X-14194283Y42637141D01*
X-14151628Y42618014D01*
X-14130262Y42593107D01*
X-14120822Y42560318D01*
X-14120724Y42507116D01*
X-14144196Y42474195D01*
X-14164855Y42473081D01*
X-14226565Y42476101D01*
X-14330569Y42485245D01*
X-14482781Y42501106D01*
X-14689112Y42524273D01*
X-14955479Y42555339D01*
X-15021018Y42563353D01*
X-15136705Y42581065D01*
X-15205077Y42600694D01*
X-15239517Y42627190D01*
X-15253415Y42665502D01*
X-15255394Y42685337D01*
X-15246749Y42717989D01*
X-15214769Y42752971D01*
X-15150399Y42797088D01*
X-15044583Y42857148D01*
X-14888261Y42939960D01*
X-14509603Y43137822D01*
X-14934811Y43194767D01*
X-15092292Y43216386D01*
X-15217056Y43236187D01*
X-15295987Y43254475D01*
X-15339775Y43274747D01*
X-15359110Y43300490D01*
X-15364681Y43335201D01*
X-15364935Y43341261D01*
X-15360613Y43374742D01*
X-15339936Y43406909D01*
X-15294190Y43443779D01*
X-15214655Y43491379D01*
X-15092619Y43555726D01*
X-14919362Y43642844D01*
X-14889938Y43657494D01*
X-14702228Y43750145D01*
X-14564523Y43815265D01*
X-14468687Y43855217D01*
X-14406581Y43872361D01*
X-14370068Y43869056D01*
G37*
G36*
X-14633674Y44773633D02*
G01*
X-14551468Y44721816D01*
X-14498416Y44638419D01*
X-14466678Y44521046D01*
X-14465780Y44515575D01*
X-14465107Y44394730D01*
X-14490887Y44278246D01*
X-14504369Y44243572D01*
X-14522888Y44185936D01*
X-14513076Y44167539D01*
X-14472002Y44171859D01*
X-14419335Y44163022D01*
X-14392568Y44101468D01*
X-14378136Y44019616D01*
X-15458589Y43829103D01*
X-15493228Y44025548D01*
X-15085821Y44097385D01*
X-14956741Y44120478D01*
X-14826439Y44145992D01*
X-14741434Y44167734D01*
X-14689933Y44189768D01*
X-14660146Y44216160D01*
X-14640278Y44250976D01*
X-14639370Y44252949D01*
X-14616214Y44353491D01*
X-14624411Y44460758D01*
X-14658909Y44551009D01*
X-14714656Y44600510D01*
X-14770425Y44603901D01*
X-14877346Y44596330D01*
X-15018759Y44579028D01*
X-15179006Y44553579D01*
X-15574051Y44483922D01*
X-15608690Y44680369D01*
X-15214746Y44749832D01*
X-15133646Y44763602D01*
X-14916920Y44792128D01*
X-14752878Y44796272D01*
X-14633674Y44773633D01*
G37*
G36*
X-12951893Y37945074D02*
G01*
X-12921588Y37905069D01*
X-12910419Y37835371D01*
X-12939471Y37778883D01*
X-12996431Y37753339D01*
X-13068981Y37776474D01*
X-13099781Y37808058D01*
X-13110174Y37878861D01*
X-13061540Y37952105D01*
X-13057383Y37955708D01*
X-13006260Y37978483D01*
X-12951893Y37945074D01*
G37*
G36*
X-13188591Y39287455D02*
G01*
X-13158286Y39247449D01*
X-13147117Y39177751D01*
X-13176169Y39121263D01*
X-13233129Y39095720D01*
X-13305679Y39118854D01*
X-13336479Y39150439D01*
X-13346872Y39221242D01*
X-13298238Y39294486D01*
X-13294081Y39298088D01*
X-13242958Y39320864D01*
X-13188591Y39287455D01*
G37*
G36*
X-11134393Y38047188D02*
G01*
X-11118801Y37979677D01*
X-11118157Y37975997D01*
X-11114098Y37936260D01*
X-11123711Y37902920D01*
X-11156078Y37868604D01*
X-11220288Y37825936D01*
X-11325424Y37767544D01*
X-11480573Y37686051D01*
X-11859305Y37488605D01*
X-11460751Y37430043D01*
X-11459703Y37429889D01*
X-11302811Y37405620D01*
X-11169657Y37382772D01*
X-11074282Y37363907D01*
X-11030731Y37351587D01*
X-11009640Y37319065D01*
X-10995545Y37247764D01*
X-10991825Y37163833D01*
X-11545379Y37262315D01*
X-11701353Y37289523D01*
X-11872270Y37316849D01*
X-11995367Y37332062D01*
X-12080751Y37335976D01*
X-12138533Y37329399D01*
X-12178820Y37313145D01*
X-12251610Y37260883D01*
X-12326925Y37165017D01*
X-12341577Y37064671D01*
X-12340005Y37054687D01*
X-12349637Y36998435D01*
X-12409892Y36973461D01*
X-12445381Y36969538D01*
X-12487716Y36988348D01*
X-12508972Y37056734D01*
X-12513822Y37093847D01*
X-12509630Y37165696D01*
X-12481281Y37234843D01*
X-12422868Y37306660D01*
X-12328489Y37386509D01*
X-12192236Y37479761D01*
X-12008205Y37591782D01*
X-11770492Y37727939D01*
X-11709841Y37762053D01*
X-11533623Y37860895D01*
X-11380651Y37946296D01*
X-11259588Y38013443D01*
X-11179098Y38057523D01*
X-11147845Y38073726D01*
X-11134393Y38047188D01*
G37*
G36*
X-11196959Y37080110D02*
G01*
X-11053971Y37016161D01*
X-10948875Y36912652D01*
X-10884305Y36782363D01*
X-10862894Y36638072D01*
X-10887275Y36492558D01*
X-10960082Y36358597D01*
X-11083949Y36248970D01*
X-11113063Y36231816D01*
X-11298712Y36158455D01*
X-11489408Y36137346D01*
X-11669688Y36168430D01*
X-11824094Y36251653D01*
X-11848772Y36271953D01*
X-11913546Y36338670D01*
X-11951354Y36415900D01*
X-11977508Y36531584D01*
X-11989679Y36609194D01*
X-11991059Y36696080D01*
X-11965144Y36770445D01*
X-11905039Y36863898D01*
X-11831086Y36957648D01*
X-11759468Y37015518D01*
X-11708403Y37013066D01*
X-11679857Y36949547D01*
X-11682078Y36888394D01*
X-11737256Y36817546D01*
X-11758223Y36801654D01*
X-11829402Y36705327D01*
X-11845885Y36592509D01*
X-11808423Y36479842D01*
X-11717763Y36383967D01*
X-11669028Y36352420D01*
X-11602487Y36326260D01*
X-11522703Y36323500D01*
X-11404067Y36340600D01*
X-11370224Y36346975D01*
X-11198384Y36398221D01*
X-11086452Y36472435D01*
X-11031256Y36572680D01*
X-11029623Y36702015D01*
X-11039562Y36740026D01*
X-11092722Y36829982D01*
X-11169606Y36892032D01*
X-11250512Y36907819D01*
X-11289421Y36923117D01*
X-11317332Y36999589D01*
X-11324294Y37054425D01*
X-11310181Y37089273D01*
X-11257497Y37091021D01*
X-11196959Y37080110D01*
G37*
G36*
X-12233531Y37983567D02*
G01*
X-12247964Y38065420D01*
X-12247766Y38120505D01*
X-12213286Y38155932D01*
X-12179177Y38168810D01*
X-12178336Y38205228D01*
X-12234193Y38268414D01*
X-12250994Y38288692D01*
X-12291773Y38372365D01*
X-12309948Y38438802D01*
X-12176101Y38438802D01*
X-12137623Y38364474D01*
X-12036325Y38263092D01*
X-11989697Y38233843D01*
X-11930980Y38219807D01*
X-11845769Y38223507D01*
X-11714975Y38243797D01*
X-11585535Y38269299D01*
X-11503396Y38295155D01*
X-11450212Y38329595D01*
X-11407443Y38380886D01*
X-11394679Y38400665D01*
X-11357399Y38521410D01*
X-11382472Y38641083D01*
X-11467716Y38746447D01*
X-11495902Y38766060D01*
X-11612126Y38805267D01*
X-11749565Y38808092D01*
X-11890905Y38779360D01*
X-12018832Y38723896D01*
X-12116033Y38646527D01*
X-12165195Y38552075D01*
X-12175251Y38484583D01*
X-12176101Y38438802D01*
X-12309948Y38438802D01*
X-12320788Y38478421D01*
X-12331812Y38572024D01*
X-12318175Y38659151D01*
X-12268012Y38747736D01*
X-12169265Y38850967D01*
X-12024108Y38935720D01*
X-11857995Y38985113D01*
X-11685732Y38998208D01*
X-11522126Y38974067D01*
X-11381985Y38911752D01*
X-11280114Y38810325D01*
X-11263912Y38784425D01*
X-11213347Y38678580D01*
X-11204332Y38579186D01*
X-11232583Y38454150D01*
X-11273108Y38321710D01*
X-10998339Y38370159D01*
X-10869484Y38392182D01*
X-10785207Y38402261D01*
X-10739545Y38397441D01*
X-10718765Y38376135D01*
X-10709138Y38336756D01*
X-10694705Y38254904D01*
X-11686109Y38080093D01*
X-12233531Y37983567D01*
G37*
G36*
X-11752292Y39127062D02*
G01*
X-11932611Y39085545D01*
X-12110412Y39089392D01*
X-12270081Y39138329D01*
X-12396000Y39232085D01*
X-12407131Y39245806D01*
X-12460531Y39350964D01*
X-12499224Y39495480D01*
X-12501195Y39506513D01*
X-12515257Y39625261D01*
X-12504549Y39712310D01*
X-12465847Y39796756D01*
X-12451365Y39820870D01*
X-12404381Y39887884D01*
X-12372519Y39917079D01*
X-12354223Y39916588D01*
X-12321130Y39879362D01*
X-12315159Y39802657D01*
X-12338924Y39703107D01*
X-12354380Y39653213D01*
X-12360379Y39511139D01*
X-12308990Y39392533D01*
X-12206448Y39307154D01*
X-12058984Y39264759D01*
X-11951055Y39253411D01*
X-12044298Y39782221D01*
X-11867771Y39782221D01*
X-11860181Y39702995D01*
X-11838501Y39572374D01*
X-11837245Y39565294D01*
X-11808846Y39430264D01*
X-11781527Y39344518D01*
X-11757950Y39316507D01*
X-11720611Y39330558D01*
X-11645899Y39382133D01*
X-11578517Y39448831D01*
X-11544224Y39507619D01*
X-11539794Y39561068D01*
X-11565791Y39674434D01*
X-11629640Y39770698D01*
X-11718047Y39833409D01*
X-11817717Y39846111D01*
X-11836486Y39841703D01*
X-11860222Y39823855D01*
X-11867771Y39782221D01*
X-12044298Y39782221D01*
X-12083031Y40001882D01*
X-11996791Y40017089D01*
X-11974651Y40020487D01*
X-11816259Y40020737D01*
X-11663571Y39985588D01*
X-11544857Y39921046D01*
X-11534401Y39912029D01*
X-11434751Y39783817D01*
X-11390221Y39635553D01*
X-11400074Y39481977D01*
X-11463574Y39337829D01*
X-11579984Y39217852D01*
X-11585072Y39214214D01*
X-11726881Y39140306D01*
X-11752292Y39127062D01*
G37*
G36*
X-11629341Y40740366D02*
G01*
X-11592696Y40712675D01*
X-11575818Y40637677D01*
X-11579227Y40539955D01*
X-11607880Y40454790D01*
X-11629967Y40417883D01*
X-11635558Y40389950D01*
X-11599836Y40390913D01*
X-11561182Y40382575D01*
X-11531219Y40318615D01*
X-11516786Y40236762D01*
X-12597238Y40046249D01*
X-12626104Y40209955D01*
X-12239385Y40278144D01*
X-12203859Y40284438D01*
X-12046264Y40313936D01*
X-11939207Y40338567D01*
X-11869841Y40362578D01*
X-11825316Y40390216D01*
X-11792783Y40425724D01*
X-11758595Y40492415D01*
X-11753263Y40620610D01*
X-11753453Y40621687D01*
X-11761917Y40698613D01*
X-11742062Y40731748D01*
X-11681762Y40741618D01*
X-11629341Y40740366D01*
G37*
G36*
X-11626475Y40858841D02*
G01*
X-12711277Y40667562D01*
X-12722309Y40851290D01*
X-12191854Y40954100D01*
X-11661400Y41056909D01*
X-11626475Y40858841D01*
G37*
G36*
X-12443371Y41083070D02*
G01*
X-12563636Y41082525D01*
X-12691602Y41141059D01*
X-12760631Y41198250D01*
X-12805173Y41270426D01*
X-12832388Y41379854D01*
X-12838599Y41424533D01*
X-12840657Y41534286D01*
X-12829935Y41583420D01*
X-12677728Y41583420D01*
X-12677421Y41458273D01*
X-12675168Y41446116D01*
X-12637176Y41337368D01*
X-12572340Y41285349D01*
X-12472968Y41283484D01*
X-12433630Y41294583D01*
X-12358505Y41358909D01*
X-12326261Y41472973D01*
X-12337344Y41635619D01*
X-12355602Y41730523D01*
X-12375922Y41782716D01*
X-12409097Y41797892D01*
X-12467522Y41790828D01*
X-12541605Y41763208D01*
X-12633428Y41678712D01*
X-12677728Y41583420D01*
X-12829935Y41583420D01*
X-12823731Y41611850D01*
X-12797403Y41672135D01*
X-12797560Y41718545D01*
X-12842556Y41724700D01*
X-12879336Y41737207D01*
X-12907756Y41807282D01*
X-12923844Y41898525D01*
X-12487826Y41962544D01*
X-12301413Y41987764D01*
X-12141806Y42003036D01*
X-12032808Y42004128D01*
X-11966841Y41991461D01*
X-11935031Y41975779D01*
X-11835524Y41884920D01*
X-11769077Y41756547D01*
X-11739944Y41608751D01*
X-11752381Y41459626D01*
X-11810642Y41327264D01*
X-11825554Y41307064D01*
X-11887707Y41240357D01*
X-11938791Y41208879D01*
X-11981324Y41219621D01*
X-12001485Y41271444D01*
X-11990129Y41347733D01*
X-11946599Y41429892D01*
X-11930603Y41454658D01*
X-11897976Y41563082D01*
X-11904101Y41678584D01*
X-11948778Y41770469D01*
X-11989637Y41796531D01*
X-12069459Y41821114D01*
X-12151253Y41830490D01*
X-12203667Y41818723D01*
X-12211382Y41798025D01*
X-12212699Y41725595D01*
X-12200475Y41624930D01*
X-12189836Y41527756D01*
X-12204041Y41365036D01*
X-12256049Y41231740D01*
X-12338334Y41135280D01*
X-12438093Y41085694D01*
X-12443371Y41083070D01*
G37*
G36*
X-12814668Y42320496D02*
G01*
X-12781337Y42239065D01*
X-12776652Y42205058D01*
X-12787595Y42152120D01*
X-12840894Y42130100D01*
X-12893079Y42125641D01*
X-12942966Y42134608D01*
X-12972016Y42176256D01*
X-12974145Y42249183D01*
X-12937303Y42309904D01*
X-12872565Y42341166D01*
X-12814668Y42320496D01*
G37*
G36*
X-12370690Y43534354D02*
G01*
X-12281626Y43508238D01*
X-12188363Y43457657D01*
X-12092897Y43364203D01*
X-12023433Y43223364D01*
X-12003754Y43066729D01*
X-12035566Y42911471D01*
X-12120575Y42774764D01*
X-12238428Y42682921D01*
X-12395218Y42618504D01*
X-12567741Y42589044D01*
X-12738633Y42595596D01*
X-12890528Y42639217D01*
X-13006064Y42720960D01*
X-13024688Y42743572D01*
X-13090178Y42874644D01*
X-13117800Y43028537D01*
X-13105653Y43180901D01*
X-13051837Y43307387D01*
X-13007080Y43363356D01*
X-12930192Y43428768D01*
X-12866500Y43444824D01*
X-12825721Y43407233D01*
X-12822848Y43388902D01*
X-12844122Y43315079D01*
X-12901394Y43221109D01*
X-12952671Y43140235D01*
X-12983751Y43026223D01*
X-12951451Y42926080D01*
X-12855068Y42833942D01*
X-12760478Y42783890D01*
X-12632950Y42770851D01*
X-12458145Y42803872D01*
X-12304845Y42857969D01*
X-12208200Y42931571D01*
X-12163489Y43028542D01*
X-12165987Y43152742D01*
X-12188129Y43208806D01*
X-12248996Y43284494D01*
X-12324875Y43340470D01*
X-12393524Y43356788D01*
X-12427507Y43374347D01*
X-12453447Y43442817D01*
X-12459375Y43489799D01*
X-12443866Y43527906D01*
X-12383695Y43535261D01*
X-12370690Y43534354D01*
G37*
G36*
X-11676136Y43820872D02*
G01*
X-13219312Y43548768D01*
X-13230344Y43732498D01*
X-11710987Y44018525D01*
X-11676136Y43820872D01*
G37*
G36*
X-12319249Y44787760D02*
G01*
X-12723437Y44716491D01*
X-12727611Y44715754D01*
X-12900646Y44683872D01*
X-13019712Y44657821D01*
X-13096415Y44634019D01*
X-13142362Y44608880D01*
X-13169157Y44578820D01*
X-13210755Y44475851D01*
X-13209913Y44353949D01*
X-13156048Y44251737D01*
X-13152468Y44247942D01*
X-13122611Y44220158D01*
X-13088366Y44203832D01*
X-13037522Y44199033D01*
X-12957870Y44205826D01*
X-12837200Y44224283D01*
X-12663303Y44254469D01*
X-12238426Y44329387D01*
X-12202914Y44127991D01*
X-12666082Y44057314D01*
X-12759627Y44043080D01*
X-12915875Y44020331D01*
X-13024341Y44007903D01*
X-13097227Y44005955D01*
X-13146729Y44014646D01*
X-13185048Y44034135D01*
X-13224386Y44064581D01*
X-13273558Y44117700D01*
X-13334677Y44244966D01*
X-13358242Y44394504D01*
X-13338490Y44542199D01*
X-13320737Y44605996D01*
X-13323774Y44637623D01*
X-13355522Y44638796D01*
X-13390926Y44648740D01*
X-13419908Y44711841D01*
X-13434340Y44793693D01*
X-12353888Y44984206D01*
X-12319249Y44787760D01*
G37*
G36*
X-13468979Y44990140D02*
G01*
X-13483412Y45071992D01*
X-13483213Y45127077D01*
X-13448733Y45162504D01*
X-13414624Y45175382D01*
X-13413784Y45211800D01*
X-13469640Y45274986D01*
X-13477270Y45282759D01*
X-13525715Y45370887D01*
X-13551031Y45472611D01*
X-13403389Y45472611D01*
X-13378973Y45377358D01*
X-13357211Y45343730D01*
X-13301401Y45286707D01*
X-13227892Y45259740D01*
X-13121389Y45259284D01*
X-12966591Y45281794D01*
X-12841750Y45305415D01*
X-12738399Y45331902D01*
X-12675235Y45362875D01*
X-12638151Y45405763D01*
X-12613041Y45467994D01*
X-12600737Y45591925D01*
X-12643159Y45706167D01*
X-12732706Y45789361D01*
X-12859470Y45827072D01*
X-12920455Y45826739D01*
X-13048010Y45806888D01*
X-13177616Y45768539D01*
X-13286465Y45719146D01*
X-13351746Y45666166D01*
X-13388908Y45585765D01*
X-13403389Y45472611D01*
X-13551031Y45472611D01*
X-13555767Y45491640D01*
X-13562723Y45616294D01*
X-13541878Y45716123D01*
X-13497940Y45781535D01*
X-13390899Y45875440D01*
X-13253328Y45952335D01*
X-13106612Y45998355D01*
X-12956471Y46015149D01*
X-12767738Y45998641D01*
X-12619153Y45935231D01*
X-12514854Y45826977D01*
X-12458979Y45675941D01*
X-12458644Y45674030D01*
X-12449924Y45535929D01*
X-12481318Y45437907D01*
X-12531537Y45357989D01*
X-11964792Y45457922D01*
X-11930153Y45261476D01*
X-12931864Y45084848D01*
X-13468979Y44990140D01*
G37*
G36*
X-11300072Y41088302D02*
G01*
X-11259889Y41038683D01*
X-11260248Y40960983D01*
X-11304632Y40903545D01*
X-11376290Y40889806D01*
X-11414867Y40911570D01*
X-11440228Y40988832D01*
X-11440744Y41001497D01*
X-11425036Y41064215D01*
X-11363558Y41090875D01*
X-11300072Y41088302D01*
G37*
X-31523150Y50350600D02*
G75*
G03*
X-31523150Y50350600I-675250J0D01*
G01*
X-14149550Y50350600D02*
G75*
G03*
X-14149550Y50350600I-675250J0D01*
G01*
D11*
X-35950000Y34480000D03*
X-10350000Y34480000D03*
X-33550000Y52480000D03*
X-13550000Y52480000D03*
X-38050000Y21880000D03*
X-41250000Y8380000D03*
X-5950000Y8380000D03*
X-9050000Y21880000D03*
G36*
G01*
X-26761600Y45842600D02*
X-26761600Y46832600D01*
G75*
G02*
X-26706600Y46887600I55000J0D01*
G01*
X-25216600Y46887600D01*
G75*
G02*
X-25161600Y46832600I0J-55000D01*
G01*
X-25161600Y45842600D01*
G75*
G02*
X-25216600Y45787600I-55000J0D01*
G01*
X-26706600Y45787600D01*
G75*
G02*
X-26761600Y45842600I0J55000D01*
G01*
G37*
G36*
G01*
X-26761600Y49042600D02*
X-26761600Y50032600D01*
G75*
G02*
X-26706600Y50087600I55000J0D01*
G01*
X-25216600Y50087600D01*
G75*
G02*
X-25161600Y50032600I0J-55000D01*
G01*
X-25161600Y49042600D01*
G75*
G02*
X-25216600Y48987600I-55000J0D01*
G01*
X-26706600Y48987600D01*
G75*
G02*
X-26761600Y49042600I0J55000D01*
G01*
G37*
G36*
G01*
X-21861600Y45842600D02*
X-21861600Y46832600D01*
G75*
G02*
X-21806600Y46887600I55000J0D01*
G01*
X-20316600Y46887600D01*
G75*
G02*
X-20261600Y46832600I0J-55000D01*
G01*
X-20261600Y45842600D01*
G75*
G02*
X-20316600Y45787600I-55000J0D01*
G01*
X-21806600Y45787600D01*
G75*
G02*
X-21861600Y45842600I0J55000D01*
G01*
G37*
G36*
G01*
X-21861600Y49042600D02*
X-21861600Y50032600D01*
G75*
G02*
X-21806600Y50087600I55000J0D01*
G01*
X-20316600Y50087600D01*
G75*
G02*
X-20261600Y50032600I0J-55000D01*
G01*
X-20261600Y49042600D01*
G75*
G02*
X-20316600Y48987600I-55000J0D01*
G01*
X-21806600Y48987600D01*
G75*
G02*
X-21861600Y49042600I0J55000D01*
G01*
G37*
G36*
G01*
X-20780800Y52515300D02*
X-20780800Y52910300D01*
G75*
G02*
X-20608300Y53082800I172500J0D01*
G01*
X-20263300Y53082800D01*
G75*
G02*
X-20090800Y52910300I0J-172500D01*
G01*
X-20090800Y52515300D01*
G75*
G02*
X-20263300Y52342800I-172500J0D01*
G01*
X-20608300Y52342800D01*
G75*
G02*
X-20780800Y52515300I0J172500D01*
G01*
G37*
G36*
G01*
X-21750800Y52515300D02*
X-21750800Y52910300D01*
G75*
G02*
X-21578300Y53082800I172500J0D01*
G01*
X-21233300Y53082800D01*
G75*
G02*
X-21060800Y52910300I0J-172500D01*
G01*
X-21060800Y52515300D01*
G75*
G02*
X-21233300Y52342800I-172500J0D01*
G01*
X-21578300Y52342800D01*
G75*
G02*
X-21750800Y52515300I0J172500D01*
G01*
G37*
G36*
G01*
X-34096200Y32601200D02*
X-34096200Y32121200D01*
G75*
G02*
X-34156200Y32061200I-60000J0D01*
G01*
X-34936200Y32061200D01*
G75*
G02*
X-34996200Y32121200I0J60000D01*
G01*
X-34996200Y32601200D01*
G75*
G02*
X-34936200Y32661200I60000J0D01*
G01*
X-34156200Y32661200D01*
G75*
G02*
X-34096200Y32601200I0J-60000D01*
G01*
G37*
G36*
G01*
X-34096200Y33348700D02*
X-34096200Y32973700D01*
G75*
G02*
X-34158700Y32911200I-62500J0D01*
G01*
X-34933700Y32911200D01*
G75*
G02*
X-34996200Y32973700I0J62500D01*
G01*
X-34996200Y33348700D01*
G75*
G02*
X-34933700Y33411200I62500J0D01*
G01*
X-34158700Y33411200D01*
G75*
G02*
X-34096200Y33348700I0J-62500D01*
G01*
G37*
G36*
G01*
X-34096200Y35001200D02*
X-34096200Y34521200D01*
G75*
G02*
X-34156200Y34461200I-60000J0D01*
G01*
X-34936200Y34461200D01*
G75*
G02*
X-34996200Y34521200I0J60000D01*
G01*
X-34996200Y35001200D01*
G75*
G02*
X-34936200Y35061200I60000J0D01*
G01*
X-34156200Y35061200D01*
G75*
G02*
X-34096200Y35001200I0J-60000D01*
G01*
G37*
G36*
G01*
X-34096200Y34148700D02*
X-34096200Y33773700D01*
G75*
G02*
X-34158700Y33711200I-62500J0D01*
G01*
X-34933700Y33711200D01*
G75*
G02*
X-34996200Y33773700I0J62500D01*
G01*
X-34996200Y34148700D01*
G75*
G02*
X-34933700Y34211200I62500J0D01*
G01*
X-34158700Y34211200D01*
G75*
G02*
X-34096200Y34148700I0J-62500D01*
G01*
G37*
G36*
G01*
X-32296200Y32601200D02*
X-32296200Y32121200D01*
G75*
G02*
X-32356200Y32061200I-60000J0D01*
G01*
X-33136200Y32061200D01*
G75*
G02*
X-33196200Y32121200I0J60000D01*
G01*
X-33196200Y32601200D01*
G75*
G02*
X-33136200Y32661200I60000J0D01*
G01*
X-32356200Y32661200D01*
G75*
G02*
X-32296200Y32601200I0J-60000D01*
G01*
G37*
G36*
G01*
X-32296200Y34148700D02*
X-32296200Y33773700D01*
G75*
G02*
X-32358700Y33711200I-62500J0D01*
G01*
X-33133700Y33711200D01*
G75*
G02*
X-33196200Y33773700I0J62500D01*
G01*
X-33196200Y34148700D01*
G75*
G02*
X-33133700Y34211200I62500J0D01*
G01*
X-32358700Y34211200D01*
G75*
G02*
X-32296200Y34148700I0J-62500D01*
G01*
G37*
G36*
G01*
X-32296200Y33348700D02*
X-32296200Y32973700D01*
G75*
G02*
X-32358700Y32911200I-62500J0D01*
G01*
X-33133700Y32911200D01*
G75*
G02*
X-33196200Y32973700I0J62500D01*
G01*
X-33196200Y33348700D01*
G75*
G02*
X-33133700Y33411200I62500J0D01*
G01*
X-32358700Y33411200D01*
G75*
G02*
X-32296200Y33348700I0J-62500D01*
G01*
G37*
G36*
G01*
X-32296200Y35001200D02*
X-32296200Y34521200D01*
G75*
G02*
X-32356200Y34461200I-60000J0D01*
G01*
X-33136200Y34461200D01*
G75*
G02*
X-33196200Y34521200I0J60000D01*
G01*
X-33196200Y35001200D01*
G75*
G02*
X-33136200Y35061200I60000J0D01*
G01*
X-32356200Y35061200D01*
G75*
G02*
X-32296200Y35001200I0J-60000D01*
G01*
G37*
G36*
G01*
X-19580300Y18895400D02*
X-19975300Y18895400D01*
G75*
G02*
X-20147800Y19067900I0J172500D01*
G01*
X-20147800Y19412900D01*
G75*
G02*
X-19975300Y19585400I172500J0D01*
G01*
X-19580300Y19585400D01*
G75*
G02*
X-19407800Y19412900I0J-172500D01*
G01*
X-19407800Y19067900D01*
G75*
G02*
X-19580300Y18895400I-172500J0D01*
G01*
G37*
G36*
G01*
X-19580300Y17925400D02*
X-19975300Y17925400D01*
G75*
G02*
X-20147800Y18097900I0J172500D01*
G01*
X-20147800Y18442900D01*
G75*
G02*
X-19975300Y18615400I172500J0D01*
G01*
X-19580300Y18615400D01*
G75*
G02*
X-19407800Y18442900I0J-172500D01*
G01*
X-19407800Y18097900D01*
G75*
G02*
X-19580300Y17925400I-172500J0D01*
G01*
G37*
G36*
G01*
X-18564300Y18893000D02*
X-18959300Y18893000D01*
G75*
G02*
X-19131800Y19065500I0J172500D01*
G01*
X-19131800Y19410500D01*
G75*
G02*
X-18959300Y19583000I172500J0D01*
G01*
X-18564300Y19583000D01*
G75*
G02*
X-18391800Y19410500I0J-172500D01*
G01*
X-18391800Y19065500D01*
G75*
G02*
X-18564300Y18893000I-172500J0D01*
G01*
G37*
G36*
G01*
X-18564300Y17923000D02*
X-18959300Y17923000D01*
G75*
G02*
X-19131800Y18095500I0J172500D01*
G01*
X-19131800Y18440500D01*
G75*
G02*
X-18959300Y18613000I172500J0D01*
G01*
X-18564300Y18613000D01*
G75*
G02*
X-18391800Y18440500I0J-172500D01*
G01*
X-18391800Y18095500D01*
G75*
G02*
X-18564300Y17923000I-172500J0D01*
G01*
G37*
G36*
G01*
X-20596300Y18893000D02*
X-20991300Y18893000D01*
G75*
G02*
X-21163800Y19065500I0J172500D01*
G01*
X-21163800Y19410500D01*
G75*
G02*
X-20991300Y19583000I172500J0D01*
G01*
X-20596300Y19583000D01*
G75*
G02*
X-20423800Y19410500I0J-172500D01*
G01*
X-20423800Y19065500D01*
G75*
G02*
X-20596300Y18893000I-172500J0D01*
G01*
G37*
G36*
G01*
X-20596300Y17923000D02*
X-20991300Y17923000D01*
G75*
G02*
X-21163800Y18095500I0J172500D01*
G01*
X-21163800Y18440500D01*
G75*
G02*
X-20991300Y18613000I172500J0D01*
G01*
X-20596300Y18613000D01*
G75*
G02*
X-20423800Y18440500I0J-172500D01*
G01*
X-20423800Y18095500D01*
G75*
G02*
X-20596300Y17923000I-172500J0D01*
G01*
G37*
G36*
G01*
X-17548300Y18893000D02*
X-17943300Y18893000D01*
G75*
G02*
X-18115800Y19065500I0J172500D01*
G01*
X-18115800Y19410500D01*
G75*
G02*
X-17943300Y19583000I172500J0D01*
G01*
X-17548300Y19583000D01*
G75*
G02*
X-17375800Y19410500I0J-172500D01*
G01*
X-17375800Y19065500D01*
G75*
G02*
X-17548300Y18893000I-172500J0D01*
G01*
G37*
G36*
G01*
X-17548300Y17923000D02*
X-17943300Y17923000D01*
G75*
G02*
X-18115800Y18095500I0J172500D01*
G01*
X-18115800Y18440500D01*
G75*
G02*
X-17943300Y18613000I172500J0D01*
G01*
X-17548300Y18613000D01*
G75*
G02*
X-17375800Y18440500I0J-172500D01*
G01*
X-17375800Y18095500D01*
G75*
G02*
X-17548300Y17923000I-172500J0D01*
G01*
G37*
D12*
X-18519600Y41245600D03*
X-19519600Y41245600D03*
X-20519600Y41245600D03*
X-21519600Y41245600D03*
X-22519600Y41245600D03*
X-23519600Y41245600D03*
X-24519600Y41245600D03*
X-25519600Y41245600D03*
X-26519600Y41245600D03*
X-27519600Y41245600D03*
X-28519600Y41245600D03*
X-29519600Y41245600D03*
X-18519600Y40245600D03*
X-18519600Y39245600D03*
X-18519600Y38245600D03*
X-18519600Y37245600D03*
X-18519600Y36245600D03*
X-18519600Y35245600D03*
X-18519600Y34245600D03*
X-18519600Y33245600D03*
X-29519600Y40245600D03*
X-28519600Y40245600D03*
X-27519600Y40245600D03*
X-26519600Y40245600D03*
X-25519600Y40245600D03*
X-24519600Y40245600D03*
X-23519600Y40245600D03*
X-22519600Y40245600D03*
X-19519600Y40245600D03*
X-20519600Y40245600D03*
X-21519600Y40245600D03*
X-19519600Y39245600D03*
X-20519600Y39245600D03*
X-21519600Y39245600D03*
X-22519600Y39245600D03*
X-23519600Y39245600D03*
X-24519600Y39245600D03*
X-25519600Y39245600D03*
X-26519600Y39245600D03*
X-19519600Y38245600D03*
X-20519600Y38245600D03*
X-21519600Y38245600D03*
X-22519600Y38245600D03*
X-23519600Y38245600D03*
X-24519600Y38245600D03*
X-25519600Y38245600D03*
X-26519600Y38245600D03*
X-19519600Y37245600D03*
X-20519600Y37245600D03*
X-21519600Y37245600D03*
X-27519600Y39245600D03*
X-27519600Y38245600D03*
X-28519600Y39245600D03*
X-28519600Y38245600D03*
X-29519600Y38245600D03*
X-29519600Y39245600D03*
X-19519600Y36245600D03*
X-20519600Y36245600D03*
X-21519600Y36245600D03*
X-21519600Y35245600D03*
X-20519600Y35245600D03*
X-19519600Y35245600D03*
X-19519600Y34245600D03*
X-20519600Y34245600D03*
X-21519600Y34245600D03*
X-21519600Y33245600D03*
X-20519600Y33245600D03*
X-19519600Y33245600D03*
X-18519600Y32245600D03*
X-19519600Y32245600D03*
X-20519600Y32245600D03*
X-21519600Y32245600D03*
X-21519600Y31245600D03*
X-20519600Y31245600D03*
X-19519600Y31245600D03*
X-18519600Y31245600D03*
X-18519600Y30245600D03*
X-19519600Y30245600D03*
X-20519600Y30245600D03*
X-21519600Y30245600D03*
X-25519600Y37245600D03*
X-24519600Y37245600D03*
X-23519600Y37245600D03*
X-22519600Y37245600D03*
X-22519600Y36245600D03*
X-23519600Y36245600D03*
X-24519600Y36245600D03*
X-25519600Y36245600D03*
X-22519600Y35245600D03*
X-23519600Y35245600D03*
X-24519600Y35245600D03*
X-25519600Y35245600D03*
X-22519600Y34245600D03*
X-23519600Y34245600D03*
X-24519600Y34245600D03*
X-25519600Y34245600D03*
X-22519600Y33245600D03*
X-23519600Y33245600D03*
X-24519600Y33245600D03*
X-25519600Y33245600D03*
X-22519600Y32245600D03*
X-23519600Y32245600D03*
X-24519600Y32245600D03*
X-25519600Y32245600D03*
X-22519600Y31245600D03*
X-23519600Y31245600D03*
X-24519600Y31245600D03*
X-25519600Y31245600D03*
X-22519600Y30245600D03*
X-23519600Y30245600D03*
X-24519600Y30245600D03*
X-25519600Y30245600D03*
X-26519600Y37245600D03*
X-27519600Y37245600D03*
X-28519600Y37245600D03*
X-29519600Y37245600D03*
X-26519600Y36245600D03*
X-27519600Y36245600D03*
X-28519600Y36245600D03*
X-29519600Y36245600D03*
X-26519600Y33245600D03*
X-29519600Y35245600D03*
X-28519600Y35245600D03*
X-27519600Y35245600D03*
X-26519600Y35245600D03*
X-26519600Y34245600D03*
X-27519600Y34245600D03*
X-28519600Y34245600D03*
X-29519600Y34245600D03*
X-27519600Y33245600D03*
X-28519600Y33245600D03*
X-29519600Y33245600D03*
X-26519600Y30245600D03*
X-26519600Y31245600D03*
X-26519600Y32245600D03*
X-27519600Y32245600D03*
X-27519600Y31245600D03*
X-27519600Y30245600D03*
X-28519600Y30245600D03*
X-28519600Y31245600D03*
X-28519600Y32245600D03*
X-29519600Y32245600D03*
X-29519600Y31245600D03*
X-29519600Y30245600D03*
D13*
X-23310400Y10413200D03*
D14*
X-21880400Y14063200D03*
D13*
X-14670400Y10413200D03*
D14*
X-16100400Y14063200D03*
D15*
X-14670400Y14593200D03*
X-23310400Y14593200D03*
G36*
G01*
X-18540400Y16216533D02*
X-18540400Y14799867D01*
G75*
G02*
X-18607067Y14733200I-66667J0D01*
G01*
X-18873733Y14733200D01*
G75*
G02*
X-18940400Y14799867I0J66667D01*
G01*
X-18940400Y16216533D01*
G75*
G02*
X-18873733Y16283200I66667J0D01*
G01*
X-18607067Y16283200D01*
G75*
G02*
X-18540400Y16216533I0J-66667D01*
G01*
G37*
G36*
G01*
X-20540400Y16216533D02*
X-20540400Y14799867D01*
G75*
G02*
X-20607067Y14733200I-66667J0D01*
G01*
X-20873733Y14733200D01*
G75*
G02*
X-20940400Y14799867I0J66667D01*
G01*
X-20940400Y16216533D01*
G75*
G02*
X-20873733Y16283200I66667J0D01*
G01*
X-20607067Y16283200D01*
G75*
G02*
X-20540400Y16216533I0J-66667D01*
G01*
G37*
G36*
G01*
X-20040400Y16216533D02*
X-20040400Y14799867D01*
G75*
G02*
X-20107067Y14733200I-66667J0D01*
G01*
X-20373733Y14733200D01*
G75*
G02*
X-20440400Y14799867I0J66667D01*
G01*
X-20440400Y16216533D01*
G75*
G02*
X-20373733Y16283200I66667J0D01*
G01*
X-20107067Y16283200D01*
G75*
G02*
X-20040400Y16216533I0J-66667D01*
G01*
G37*
G36*
G01*
X-19540400Y16216533D02*
X-19540400Y14799867D01*
G75*
G02*
X-19607067Y14733200I-66667J0D01*
G01*
X-19873733Y14733200D01*
G75*
G02*
X-19940400Y14799867I0J66667D01*
G01*
X-19940400Y16216533D01*
G75*
G02*
X-19873733Y16283200I66667J0D01*
G01*
X-19607067Y16283200D01*
G75*
G02*
X-19540400Y16216533I0J-66667D01*
G01*
G37*
G36*
G01*
X-19040400Y16216533D02*
X-19040400Y14799867D01*
G75*
G02*
X-19107067Y14733200I-66667J0D01*
G01*
X-19373733Y14733200D01*
G75*
G02*
X-19440400Y14799867I0J66667D01*
G01*
X-19440400Y16216533D01*
G75*
G02*
X-19373733Y16283200I66667J0D01*
G01*
X-19107067Y16283200D01*
G75*
G02*
X-19040400Y16216533I0J-66667D01*
G01*
G37*
G36*
G01*
X-18040400Y16216533D02*
X-18040400Y14799867D01*
G75*
G02*
X-18107067Y14733200I-66667J0D01*
G01*
X-18373733Y14733200D01*
G75*
G02*
X-18440400Y14799867I0J66667D01*
G01*
X-18440400Y16216533D01*
G75*
G02*
X-18373733Y16283200I66667J0D01*
G01*
X-18107067Y16283200D01*
G75*
G02*
X-18040400Y16216533I0J-66667D01*
G01*
G37*
G36*
G01*
X-17540400Y16216533D02*
X-17540400Y14799867D01*
G75*
G02*
X-17607067Y14733200I-66667J0D01*
G01*
X-17873733Y14733200D01*
G75*
G02*
X-17940400Y14799867I0J66667D01*
G01*
X-17940400Y16216533D01*
G75*
G02*
X-17873733Y16283200I66667J0D01*
G01*
X-17607067Y16283200D01*
G75*
G02*
X-17540400Y16216533I0J-66667D01*
G01*
G37*
G36*
G01*
X-17040400Y16216533D02*
X-17040400Y14799867D01*
G75*
G02*
X-17107067Y14733200I-66667J0D01*
G01*
X-17373733Y14733200D01*
G75*
G02*
X-17440400Y14799867I0J66667D01*
G01*
X-17440400Y16216533D01*
G75*
G02*
X-17373733Y16283200I66667J0D01*
G01*
X-17107067Y16283200D01*
G75*
G02*
X-17040400Y16216533I0J-66667D01*
G01*
G37*
G36*
G01*
X-21890400Y16224867D02*
X-21890400Y14791533D01*
G75*
G02*
X-21948733Y14733200I-58333J0D01*
G01*
X-22532067Y14733200D01*
G75*
G02*
X-22590400Y14791533I0J58333D01*
G01*
X-22590400Y16224867D01*
G75*
G02*
X-22532067Y16283200I58333J0D01*
G01*
X-21948733Y16283200D01*
G75*
G02*
X-21890400Y16224867I0J-58333D01*
G01*
G37*
G36*
G01*
X-21090400Y16224867D02*
X-21090400Y14791533D01*
G75*
G02*
X-21148733Y14733200I-58333J0D01*
G01*
X-21732067Y14733200D01*
G75*
G02*
X-21790400Y14791533I0J58333D01*
G01*
X-21790400Y16224867D01*
G75*
G02*
X-21732067Y16283200I58333J0D01*
G01*
X-21148733Y16283200D01*
G75*
G02*
X-21090400Y16224867I0J-58333D01*
G01*
G37*
G36*
G01*
X-16190400Y16224867D02*
X-16190400Y14791533D01*
G75*
G02*
X-16248733Y14733200I-58333J0D01*
G01*
X-16832067Y14733200D01*
G75*
G02*
X-16890400Y14791533I0J58333D01*
G01*
X-16890400Y16224867D01*
G75*
G02*
X-16832067Y16283200I58333J0D01*
G01*
X-16248733Y16283200D01*
G75*
G02*
X-16190400Y16224867I0J-58333D01*
G01*
G37*
G36*
G01*
X-15390400Y16224867D02*
X-15390400Y14791533D01*
G75*
G02*
X-15448733Y14733200I-58333J0D01*
G01*
X-16032067Y14733200D01*
G75*
G02*
X-16090400Y14791533I0J58333D01*
G01*
X-16090400Y16224867D01*
G75*
G02*
X-16032067Y16283200I58333J0D01*
G01*
X-15448733Y16283200D01*
G75*
G02*
X-15390400Y16224867I0J-58333D01*
G01*
G37*
G36*
G01*
X-15390400Y16224867D02*
X-15390400Y14791533D01*
G75*
G02*
X-15448733Y14733200I-58333J0D01*
G01*
X-16032067Y14733200D01*
G75*
G02*
X-16090400Y14791533I0J58333D01*
G01*
X-16090400Y16224867D01*
G75*
G02*
X-16032067Y16283200I58333J0D01*
G01*
X-15448733Y16283200D01*
G75*
G02*
X-15390400Y16224867I0J-58333D01*
G01*
G37*
G36*
G01*
X-16190400Y16224867D02*
X-16190400Y14791533D01*
G75*
G02*
X-16248733Y14733200I-58333J0D01*
G01*
X-16832067Y14733200D01*
G75*
G02*
X-16890400Y14791533I0J58333D01*
G01*
X-16890400Y16224867D01*
G75*
G02*
X-16832067Y16283200I58333J0D01*
G01*
X-16248733Y16283200D01*
G75*
G02*
X-16190400Y16224867I0J-58333D01*
G01*
G37*
G36*
G01*
X-21090400Y16224867D02*
X-21090400Y14791533D01*
G75*
G02*
X-21148733Y14733200I-58333J0D01*
G01*
X-21732067Y14733200D01*
G75*
G02*
X-21790400Y14791533I0J58333D01*
G01*
X-21790400Y16224867D01*
G75*
G02*
X-21732067Y16283200I58333J0D01*
G01*
X-21148733Y16283200D01*
G75*
G02*
X-21090400Y16224867I0J-58333D01*
G01*
G37*
G36*
G01*
X-21890400Y16224867D02*
X-21890400Y14791533D01*
G75*
G02*
X-21948733Y14733200I-58333J0D01*
G01*
X-22532067Y14733200D01*
G75*
G02*
X-22590400Y14791533I0J58333D01*
G01*
X-22590400Y16224867D01*
G75*
G02*
X-22532067Y16283200I58333J0D01*
G01*
X-21948733Y16283200D01*
G75*
G02*
X-21890400Y16224867I0J-58333D01*
G01*
G37*
D16*
X-33463400Y47734600D03*
X-32198400Y47734600D03*
X-30933400Y47734600D03*
D17*
X-33463400Y51140600D03*
X-30933400Y51140600D03*
D16*
X-16089800Y47734600D03*
X-14824800Y47734600D03*
X-13559800Y47734600D03*
D17*
X-16089800Y51140600D03*
X-13559800Y51140600D03*
D18*
X-38610000Y14003200D03*
X-31610000Y14003200D03*
G36*
G01*
X-31763000Y40975308D02*
X-31763000Y40340692D01*
G75*
G02*
X-31820692Y40283000I-57692J0D01*
G01*
X-32865308Y40283000D01*
G75*
G02*
X-32923000Y40340692I0J57692D01*
G01*
X-32923000Y40975308D01*
G75*
G02*
X-32865308Y41033000I57692J0D01*
G01*
X-31820692Y41033000D01*
G75*
G02*
X-31763000Y40975308I0J-57692D01*
G01*
G37*
G36*
G01*
X-31763000Y40025308D02*
X-31763000Y39390692D01*
G75*
G02*
X-31820692Y39333000I-57692J0D01*
G01*
X-32865308Y39333000D01*
G75*
G02*
X-32923000Y39390692I0J57692D01*
G01*
X-32923000Y40025308D01*
G75*
G02*
X-32865308Y40083000I57692J0D01*
G01*
X-31820692Y40083000D01*
G75*
G02*
X-31763000Y40025308I0J-57692D01*
G01*
G37*
G36*
G01*
X-31763000Y39075308D02*
X-31763000Y38440692D01*
G75*
G02*
X-31820692Y38383000I-57692J0D01*
G01*
X-32865308Y38383000D01*
G75*
G02*
X-32923000Y38440692I0J57692D01*
G01*
X-32923000Y39075308D01*
G75*
G02*
X-32865308Y39133000I57692J0D01*
G01*
X-31820692Y39133000D01*
G75*
G02*
X-31763000Y39075308I0J-57692D01*
G01*
G37*
G36*
G01*
X-33963000Y39075308D02*
X-33963000Y38440692D01*
G75*
G02*
X-34020692Y38383000I-57692J0D01*
G01*
X-35065308Y38383000D01*
G75*
G02*
X-35123000Y38440692I0J57692D01*
G01*
X-35123000Y39075308D01*
G75*
G02*
X-35065308Y39133000I57692J0D01*
G01*
X-34020692Y39133000D01*
G75*
G02*
X-33963000Y39075308I0J-57692D01*
G01*
G37*
G36*
G01*
X-33963000Y40975308D02*
X-33963000Y40340692D01*
G75*
G02*
X-34020692Y40283000I-57692J0D01*
G01*
X-35065308Y40283000D01*
G75*
G02*
X-35123000Y40340692I0J57692D01*
G01*
X-35123000Y40975308D01*
G75*
G02*
X-35065308Y41033000I57692J0D01*
G01*
X-34020692Y41033000D01*
G75*
G02*
X-33963000Y40975308I0J-57692D01*
G01*
G37*
G36*
G01*
X-22752292Y22711800D02*
X-23386908Y22711800D01*
G75*
G02*
X-23444600Y22769492I0J57692D01*
G01*
X-23444600Y23814108D01*
G75*
G02*
X-23386908Y23871800I57692J0D01*
G01*
X-22752292Y23871800D01*
G75*
G02*
X-22694600Y23814108I0J-57692D01*
G01*
X-22694600Y22769492D01*
G75*
G02*
X-22752292Y22711800I-57692J0D01*
G01*
G37*
G36*
G01*
X-23702292Y22711800D02*
X-24336908Y22711800D01*
G75*
G02*
X-24394600Y22769492I0J57692D01*
G01*
X-24394600Y23814108D01*
G75*
G02*
X-24336908Y23871800I57692J0D01*
G01*
X-23702292Y23871800D01*
G75*
G02*
X-23644600Y23814108I0J-57692D01*
G01*
X-23644600Y22769492D01*
G75*
G02*
X-23702292Y22711800I-57692J0D01*
G01*
G37*
G36*
G01*
X-24652292Y22711800D02*
X-25286908Y22711800D01*
G75*
G02*
X-25344600Y22769492I0J57692D01*
G01*
X-25344600Y23814108D01*
G75*
G02*
X-25286908Y23871800I57692J0D01*
G01*
X-24652292Y23871800D01*
G75*
G02*
X-24594600Y23814108I0J-57692D01*
G01*
X-24594600Y22769492D01*
G75*
G02*
X-24652292Y22711800I-57692J0D01*
G01*
G37*
G36*
G01*
X-24652292Y24911800D02*
X-25286908Y24911800D01*
G75*
G02*
X-25344600Y24969492I0J57692D01*
G01*
X-25344600Y26014108D01*
G75*
G02*
X-25286908Y26071800I57692J0D01*
G01*
X-24652292Y26071800D01*
G75*
G02*
X-24594600Y26014108I0J-57692D01*
G01*
X-24594600Y24969492D01*
G75*
G02*
X-24652292Y24911800I-57692J0D01*
G01*
G37*
G36*
G01*
X-22752292Y24911800D02*
X-23386908Y24911800D01*
G75*
G02*
X-23444600Y24969492I0J57692D01*
G01*
X-23444600Y26014108D01*
G75*
G02*
X-23386908Y26071800I57692J0D01*
G01*
X-22752292Y26071800D01*
G75*
G02*
X-22694600Y26014108I0J-57692D01*
G01*
X-22694600Y24969492D01*
G75*
G02*
X-22752292Y24911800I-57692J0D01*
G01*
G37*
G36*
G01*
X-10434794Y24998494D02*
X-10434794Y24998494D01*
G75*
G02*
X-9704750Y26041104I886327J156283D01*
G01*
X-9704750Y26041104D01*
G75*
G02*
X-8662140Y25311060I156283J-886327D01*
G01*
X-8662140Y25311060D01*
G75*
G02*
X-9392184Y24268450I-886327J-156283D01*
G01*
X-9392184Y24268450D01*
G75*
G02*
X-10434794Y24998494I-156283J886327D01*
G01*
G37*
G36*
G01*
X-10875861Y27499905D02*
X-10875861Y27499905D01*
G75*
G02*
X-10145817Y28542515I886327J156283D01*
G01*
X-10145817Y28542515D01*
G75*
G02*
X-9103207Y27812471I156283J-886327D01*
G01*
X-9103207Y27812471D01*
G75*
G02*
X-9833251Y26769861I-886327J-156283D01*
G01*
X-9833251Y26769861D01*
G75*
G02*
X-10875861Y27499905I-156283J886327D01*
G01*
G37*
G36*
G01*
X-11169837Y29167126D02*
X-11464018Y30835507D01*
G75*
G02*
X-11421074Y30896837I52137J9193D01*
G01*
X-9752693Y31191018D01*
G75*
G02*
X-9691363Y31148074I9193J-52137D01*
G01*
X-9397182Y29479693D01*
G75*
G02*
X-9440126Y29418363I-52137J-9193D01*
G01*
X-11108507Y29124182D01*
G75*
G02*
X-11169837Y29167126I-9193J52137D01*
G01*
G37*
G36*
G01*
X-27436200Y9400100D02*
X-27436200Y9005100D01*
G75*
G02*
X-27608700Y8832600I-172500J0D01*
G01*
X-27953700Y8832600D01*
G75*
G02*
X-28126200Y9005100I0J172500D01*
G01*
X-28126200Y9400100D01*
G75*
G02*
X-27953700Y9572600I172500J0D01*
G01*
X-27608700Y9572600D01*
G75*
G02*
X-27436200Y9400100I0J-172500D01*
G01*
G37*
G36*
G01*
X-26466200Y9400100D02*
X-26466200Y9005100D01*
G75*
G02*
X-26638700Y8832600I-172500J0D01*
G01*
X-26983700Y8832600D01*
G75*
G02*
X-27156200Y9005100I0J172500D01*
G01*
X-27156200Y9400100D01*
G75*
G02*
X-26983700Y9572600I172500J0D01*
G01*
X-26638700Y9572600D01*
G75*
G02*
X-26466200Y9400100I0J-172500D01*
G01*
G37*
G36*
G01*
X-27436200Y8333300D02*
X-27436200Y7938300D01*
G75*
G02*
X-27608700Y7765800I-172500J0D01*
G01*
X-27953700Y7765800D01*
G75*
G02*
X-28126200Y7938300I0J172500D01*
G01*
X-28126200Y8333300D01*
G75*
G02*
X-27953700Y8505800I172500J0D01*
G01*
X-27608700Y8505800D01*
G75*
G02*
X-27436200Y8333300I0J-172500D01*
G01*
G37*
G36*
G01*
X-26466200Y8333300D02*
X-26466200Y7938300D01*
G75*
G02*
X-26638700Y7765800I-172500J0D01*
G01*
X-26983700Y7765800D01*
G75*
G02*
X-27156200Y7938300I0J172500D01*
G01*
X-27156200Y8333300D01*
G75*
G02*
X-26983700Y8505800I172500J0D01*
G01*
X-26638700Y8505800D01*
G75*
G02*
X-26466200Y8333300I0J-172500D01*
G01*
G37*
G36*
G01*
X-29773000Y8333300D02*
X-29773000Y7938300D01*
G75*
G02*
X-29945500Y7765800I-172500J0D01*
G01*
X-30290500Y7765800D01*
G75*
G02*
X-30463000Y7938300I0J172500D01*
G01*
X-30463000Y8333300D01*
G75*
G02*
X-30290500Y8505800I172500J0D01*
G01*
X-29945500Y8505800D01*
G75*
G02*
X-29773000Y8333300I0J-172500D01*
G01*
G37*
G36*
G01*
X-28803000Y8333300D02*
X-28803000Y7938300D01*
G75*
G02*
X-28975500Y7765800I-172500J0D01*
G01*
X-29320500Y7765800D01*
G75*
G02*
X-29493000Y7938300I0J172500D01*
G01*
X-29493000Y8333300D01*
G75*
G02*
X-29320500Y8505800I172500J0D01*
G01*
X-28975500Y8505800D01*
G75*
G02*
X-28803000Y8333300I0J-172500D01*
G01*
G37*
G36*
G01*
X-13973600Y22009900D02*
X-13973600Y22404900D01*
G75*
G02*
X-13801100Y22577400I172500J0D01*
G01*
X-13456100Y22577400D01*
G75*
G02*
X-13283600Y22404900I0J-172500D01*
G01*
X-13283600Y22009900D01*
G75*
G02*
X-13456100Y21837400I-172500J0D01*
G01*
X-13801100Y21837400D01*
G75*
G02*
X-13973600Y22009900I0J172500D01*
G01*
G37*
G36*
G01*
X-14943600Y22009900D02*
X-14943600Y22404900D01*
G75*
G02*
X-14771100Y22577400I172500J0D01*
G01*
X-14426100Y22577400D01*
G75*
G02*
X-14253600Y22404900I0J-172500D01*
G01*
X-14253600Y22009900D01*
G75*
G02*
X-14426100Y21837400I-172500J0D01*
G01*
X-14771100Y21837400D01*
G75*
G02*
X-14943600Y22009900I0J172500D01*
G01*
G37*
G36*
G01*
X-13973600Y23025900D02*
X-13973600Y23420900D01*
G75*
G02*
X-13801100Y23593400I172500J0D01*
G01*
X-13456100Y23593400D01*
G75*
G02*
X-13283600Y23420900I0J-172500D01*
G01*
X-13283600Y23025900D01*
G75*
G02*
X-13456100Y22853400I-172500J0D01*
G01*
X-13801100Y22853400D01*
G75*
G02*
X-13973600Y23025900I0J172500D01*
G01*
G37*
G36*
G01*
X-14943600Y23025900D02*
X-14943600Y23420900D01*
G75*
G02*
X-14771100Y23593400I172500J0D01*
G01*
X-14426100Y23593400D01*
G75*
G02*
X-14253600Y23420900I0J-172500D01*
G01*
X-14253600Y23025900D01*
G75*
G02*
X-14426100Y22853400I-172500J0D01*
G01*
X-14771100Y22853400D01*
G75*
G02*
X-14943600Y23025900I0J172500D01*
G01*
G37*
G36*
G01*
X-13973600Y20993900D02*
X-13973600Y21388900D01*
G75*
G02*
X-13801100Y21561400I172500J0D01*
G01*
X-13456100Y21561400D01*
G75*
G02*
X-13283600Y21388900I0J-172500D01*
G01*
X-13283600Y20993900D01*
G75*
G02*
X-13456100Y20821400I-172500J0D01*
G01*
X-13801100Y20821400D01*
G75*
G02*
X-13973600Y20993900I0J172500D01*
G01*
G37*
G36*
G01*
X-14943600Y20993900D02*
X-14943600Y21388900D01*
G75*
G02*
X-14771100Y21561400I172500J0D01*
G01*
X-14426100Y21561400D01*
G75*
G02*
X-14253600Y21388900I0J-172500D01*
G01*
X-14253600Y20993900D01*
G75*
G02*
X-14426100Y20821400I-172500J0D01*
G01*
X-14771100Y20821400D01*
G75*
G02*
X-14943600Y20993900I0J172500D01*
G01*
G37*
G36*
G01*
X-21854900Y25217000D02*
X-21459900Y25217000D01*
G75*
G02*
X-21287400Y25044500I0J-172500D01*
G01*
X-21287400Y24699500D01*
G75*
G02*
X-21459900Y24527000I-172500J0D01*
G01*
X-21854900Y24527000D01*
G75*
G02*
X-22027400Y24699500I0J172500D01*
G01*
X-22027400Y25044500D01*
G75*
G02*
X-21854900Y25217000I172500J0D01*
G01*
G37*
G36*
G01*
X-21854900Y26187000D02*
X-21459900Y26187000D01*
G75*
G02*
X-21287400Y26014500I0J-172500D01*
G01*
X-21287400Y25669500D01*
G75*
G02*
X-21459900Y25497000I-172500J0D01*
G01*
X-21854900Y25497000D01*
G75*
G02*
X-22027400Y25669500I0J172500D01*
G01*
X-22027400Y26014500D01*
G75*
G02*
X-21854900Y26187000I172500J0D01*
G01*
G37*
G36*
G01*
X-21459900Y23566600D02*
X-21854900Y23566600D01*
G75*
G02*
X-22027400Y23739100I0J172500D01*
G01*
X-22027400Y24084100D01*
G75*
G02*
X-21854900Y24256600I172500J0D01*
G01*
X-21459900Y24256600D01*
G75*
G02*
X-21287400Y24084100I0J-172500D01*
G01*
X-21287400Y23739100D01*
G75*
G02*
X-21459900Y23566600I-172500J0D01*
G01*
G37*
G36*
G01*
X-21459900Y22596600D02*
X-21854900Y22596600D01*
G75*
G02*
X-22027400Y22769100I0J172500D01*
G01*
X-22027400Y23114100D01*
G75*
G02*
X-21854900Y23286600I172500J0D01*
G01*
X-21459900Y23286600D01*
G75*
G02*
X-21287400Y23114100I0J-172500D01*
G01*
X-21287400Y22769100D01*
G75*
G02*
X-21459900Y22596600I-172500J0D01*
G01*
G37*
G36*
G01*
X-15881000Y18098300D02*
X-15881000Y18493300D01*
G75*
G02*
X-15708500Y18665800I172500J0D01*
G01*
X-15363500Y18665800D01*
G75*
G02*
X-15191000Y18493300I0J-172500D01*
G01*
X-15191000Y18098300D01*
G75*
G02*
X-15363500Y17925800I-172500J0D01*
G01*
X-15708500Y17925800D01*
G75*
G02*
X-15881000Y18098300I0J172500D01*
G01*
G37*
G36*
G01*
X-16851000Y18098300D02*
X-16851000Y18493300D01*
G75*
G02*
X-16678500Y18665800I172500J0D01*
G01*
X-16333500Y18665800D01*
G75*
G02*
X-16161000Y18493300I0J-172500D01*
G01*
X-16161000Y18098300D01*
G75*
G02*
X-16333500Y17925800I-172500J0D01*
G01*
X-16678500Y17925800D01*
G75*
G02*
X-16851000Y18098300I0J172500D01*
G01*
G37*
G36*
G01*
X-28833200Y50522700D02*
X-28833200Y50127700D01*
G75*
G02*
X-29005700Y49955200I-172500J0D01*
G01*
X-29350700Y49955200D01*
G75*
G02*
X-29523200Y50127700I0J172500D01*
G01*
X-29523200Y50522700D01*
G75*
G02*
X-29350700Y50695200I172500J0D01*
G01*
X-29005700Y50695200D01*
G75*
G02*
X-28833200Y50522700I0J-172500D01*
G01*
G37*
G36*
G01*
X-27863200Y50522700D02*
X-27863200Y50127700D01*
G75*
G02*
X-28035700Y49955200I-172500J0D01*
G01*
X-28380700Y49955200D01*
G75*
G02*
X-28553200Y50127700I0J172500D01*
G01*
X-28553200Y50522700D01*
G75*
G02*
X-28380700Y50695200I172500J0D01*
G01*
X-28035700Y50695200D01*
G75*
G02*
X-27863200Y50522700I0J-172500D01*
G01*
G37*
G36*
G01*
X-27224200Y28835633D02*
X-27224200Y27643967D01*
G75*
G02*
X-27278367Y27589800I-54167J0D01*
G01*
X-28670033Y27589800D01*
G75*
G02*
X-28724200Y27643967I0J54167D01*
G01*
X-28724200Y28835633D01*
G75*
G02*
X-28670033Y28889800I54167J0D01*
G01*
X-27278367Y28889800D01*
G75*
G02*
X-27224200Y28835633I0J-54167D01*
G01*
G37*
G36*
G01*
X-29424200Y28835633D02*
X-29424200Y27643967D01*
G75*
G02*
X-29478367Y27589800I-54167J0D01*
G01*
X-30870033Y27589800D01*
G75*
G02*
X-30924200Y27643967I0J54167D01*
G01*
X-30924200Y28835633D01*
G75*
G02*
X-30870033Y28889800I54167J0D01*
G01*
X-29478367Y28889800D01*
G75*
G02*
X-29424200Y28835633I0J-54167D01*
G01*
G37*
G36*
G01*
X-29424200Y27235633D02*
X-29424200Y26043967D01*
G75*
G02*
X-29478367Y25989800I-54167J0D01*
G01*
X-30870033Y25989800D01*
G75*
G02*
X-30924200Y26043967I0J54167D01*
G01*
X-30924200Y27235633D01*
G75*
G02*
X-30870033Y27289800I54167J0D01*
G01*
X-29478367Y27289800D01*
G75*
G02*
X-29424200Y27235633I0J-54167D01*
G01*
G37*
G36*
G01*
X-27224200Y27235633D02*
X-27224200Y26043967D01*
G75*
G02*
X-27278367Y25989800I-54167J0D01*
G01*
X-28670033Y25989800D01*
G75*
G02*
X-28724200Y26043967I0J54167D01*
G01*
X-28724200Y27235633D01*
G75*
G02*
X-28670033Y27289800I54167J0D01*
G01*
X-27278367Y27289800D01*
G75*
G02*
X-27224200Y27235633I0J-54167D01*
G01*
G37*
G36*
G01*
X-24517200Y28715455D02*
X-24517200Y26824545D01*
G75*
G02*
X-24571745Y26770000I-54545J0D01*
G01*
X-25662655Y26770000D01*
G75*
G02*
X-25717200Y26824545I0J54545D01*
G01*
X-25717200Y28715455D01*
G75*
G02*
X-25662655Y28770000I54545J0D01*
G01*
X-24571745Y28770000D01*
G75*
G02*
X-24517200Y28715455I0J-54545D01*
G01*
G37*
G36*
G01*
X-22017200Y28715455D02*
X-22017200Y26824545D01*
G75*
G02*
X-22071745Y26770000I-54545J0D01*
G01*
X-23162655Y26770000D01*
G75*
G02*
X-23217200Y26824545I0J54545D01*
G01*
X-23217200Y28715455D01*
G75*
G02*
X-23162655Y28770000I54545J0D01*
G01*
X-22071745Y28770000D01*
G75*
G02*
X-22017200Y28715455I0J-54545D01*
G01*
G37*
G36*
G01*
X-35557380Y12687012D02*
X-35557380Y11095346D01*
G75*
G02*
X-35611547Y11041179I-54167J0D01*
G01*
X-36803213Y11041179D01*
G75*
G02*
X-36857380Y11095346I0J54167D01*
G01*
X-36857380Y12687012D01*
G75*
G02*
X-36803213Y12741179I54167J0D01*
G01*
X-35611547Y12741179D01*
G75*
G02*
X-35557380Y12687012I0J-54167D01*
G01*
G37*
G36*
G01*
X-35557380Y9487012D02*
X-35557380Y7895346D01*
G75*
G02*
X-35611547Y7841179I-54167J0D01*
G01*
X-36803213Y7841179D01*
G75*
G02*
X-36857380Y7895346I0J54167D01*
G01*
X-36857380Y9487012D01*
G75*
G02*
X-36803213Y9541179I54167J0D01*
G01*
X-35611547Y9541179D01*
G75*
G02*
X-35557380Y9487012I0J-54167D01*
G01*
G37*
G36*
G01*
X-38057380Y12687012D02*
X-38057380Y11095346D01*
G75*
G02*
X-38111547Y11041179I-54167J0D01*
G01*
X-39303213Y11041179D01*
G75*
G02*
X-39357380Y11095346I0J54167D01*
G01*
X-39357380Y12687012D01*
G75*
G02*
X-39303213Y12741179I54167J0D01*
G01*
X-38111547Y12741179D01*
G75*
G02*
X-38057380Y12687012I0J-54167D01*
G01*
G37*
G36*
G01*
X-38057380Y9487012D02*
X-38057380Y7895346D01*
G75*
G02*
X-38111547Y7841179I-54167J0D01*
G01*
X-39303213Y7841179D01*
G75*
G02*
X-39357380Y7895346I0J54167D01*
G01*
X-39357380Y9487012D01*
G75*
G02*
X-39303213Y9541179I54167J0D01*
G01*
X-38111547Y9541179D01*
G75*
G02*
X-38057380Y9487012I0J-54167D01*
G01*
G37*
G36*
G01*
X-33057380Y9487012D02*
X-33057380Y7895346D01*
G75*
G02*
X-33111547Y7841179I-54167J0D01*
G01*
X-34303213Y7841179D01*
G75*
G02*
X-34357380Y7895346I0J54167D01*
G01*
X-34357380Y9487012D01*
G75*
G02*
X-34303213Y9541179I54167J0D01*
G01*
X-33111547Y9541179D01*
G75*
G02*
X-33057380Y9487012I0J-54167D01*
G01*
G37*
G36*
G01*
X-33057380Y12687012D02*
X-33057380Y11095346D01*
G75*
G02*
X-33111547Y11041179I-54167J0D01*
G01*
X-34303213Y11041179D01*
G75*
G02*
X-34357380Y11095346I0J54167D01*
G01*
X-34357380Y12687012D01*
G75*
G02*
X-34303213Y12741179I54167J0D01*
G01*
X-33111547Y12741179D01*
G75*
G02*
X-33057380Y12687012I0J-54167D01*
G01*
G37*
G36*
G01*
X-15159800Y19386150D02*
X-15159800Y19948650D01*
G75*
G02*
X-14916050Y20192400I243750J0D01*
G01*
X-14428550Y20192400D01*
G75*
G02*
X-14184800Y19948650I0J-243750D01*
G01*
X-14184800Y19386150D01*
G75*
G02*
X-14428550Y19142400I-243750J0D01*
G01*
X-14916050Y19142400D01*
G75*
G02*
X-15159800Y19386150I0J243750D01*
G01*
G37*
G36*
G01*
X-16734800Y19386150D02*
X-16734800Y19948650D01*
G75*
G02*
X-16491050Y20192400I243750J0D01*
G01*
X-16003550Y20192400D01*
G75*
G02*
X-15759800Y19948650I0J-243750D01*
G01*
X-15759800Y19386150D01*
G75*
G02*
X-16003550Y19142400I-243750J0D01*
G01*
X-16491050Y19142400D01*
G75*
G02*
X-16734800Y19386150I0J243750D01*
G01*
G37*
G36*
G01*
X-29339800Y16421600D02*
X-29339800Y17731600D01*
G75*
G02*
X-29069800Y18001600I270000J0D01*
G01*
X-28259800Y18001600D01*
G75*
G02*
X-27989800Y17731600I0J-270000D01*
G01*
X-27989800Y16421600D01*
G75*
G02*
X-28259800Y16151600I-270000J0D01*
G01*
X-29069800Y16151600D01*
G75*
G02*
X-29339800Y16421600I0J270000D01*
G01*
G37*
G36*
G01*
X-32139800Y16421600D02*
X-32139800Y17731600D01*
G75*
G02*
X-31869800Y18001600I270000J0D01*
G01*
X-31059800Y18001600D01*
G75*
G02*
X-30789800Y17731600I0J-270000D01*
G01*
X-30789800Y16421600D01*
G75*
G02*
X-31059800Y16151600I-270000J0D01*
G01*
X-31869800Y16151600D01*
G75*
G02*
X-32139800Y16421600I0J270000D01*
G01*
G37*
G36*
G01*
X-29234063Y11557947D02*
X-29234063Y10570447D01*
G75*
G02*
X-29290313Y10514197I-56250J0D01*
G01*
X-30077813Y10514197D01*
G75*
G02*
X-30134063Y10570447I0J56250D01*
G01*
X-30134063Y11557947D01*
G75*
G02*
X-30077813Y11614197I56250J0D01*
G01*
X-29290313Y11614197D01*
G75*
G02*
X-29234063Y11557947I0J-56250D01*
G01*
G37*
G36*
G01*
X-29234063Y10057947D02*
X-29234063Y9070447D01*
G75*
G02*
X-29290313Y9014197I-56250J0D01*
G01*
X-30077813Y9014197D01*
G75*
G02*
X-30134063Y9070447I0J56250D01*
G01*
X-30134063Y10057947D01*
G75*
G02*
X-30077813Y10114197I56250J0D01*
G01*
X-29290313Y10114197D01*
G75*
G02*
X-29234063Y10057947I0J-56250D01*
G01*
G37*
G36*
G01*
X-30334063Y10057947D02*
X-30334063Y9070447D01*
G75*
G02*
X-30390313Y9014197I-56250J0D01*
G01*
X-31177813Y9014197D01*
G75*
G02*
X-31234063Y9070447I0J56250D01*
G01*
X-31234063Y10057947D01*
G75*
G02*
X-31177813Y10114197I56250J0D01*
G01*
X-30390313Y10114197D01*
G75*
G02*
X-30334063Y10057947I0J-56250D01*
G01*
G37*
G36*
G01*
X-30334063Y11557947D02*
X-30334063Y10570447D01*
G75*
G02*
X-30390313Y10514197I-56250J0D01*
G01*
X-31177813Y10514197D01*
G75*
G02*
X-31234063Y10570447I0J56250D01*
G01*
X-31234063Y11557947D01*
G75*
G02*
X-31177813Y11614197I56250J0D01*
G01*
X-30390313Y11614197D01*
G75*
G02*
X-30334063Y11557947I0J-56250D01*
G01*
G37*
G36*
G01*
X-34323141Y24253600D02*
X-36017259Y24253600D01*
G75*
G02*
X-36070200Y24306541I0J52941D01*
G01*
X-36070200Y26800659D01*
G75*
G02*
X-36017259Y26853600I52941J0D01*
G01*
X-34323141Y26853600D01*
G75*
G02*
X-34270200Y26800659I0J-52941D01*
G01*
X-34270200Y24306541D01*
G75*
G02*
X-34323141Y24253600I-52941J0D01*
G01*
G37*
G36*
G01*
X-34323141Y20253600D02*
X-36017259Y20253600D01*
G75*
G02*
X-36070200Y20306541I0J52941D01*
G01*
X-36070200Y22800659D01*
G75*
G02*
X-36017259Y22853600I52941J0D01*
G01*
X-34323141Y22853600D01*
G75*
G02*
X-34270200Y22800659I0J-52941D01*
G01*
X-34270200Y20306541D01*
G75*
G02*
X-34323141Y20253600I-52941J0D01*
G01*
G37*
G36*
G01*
X-29142800Y19988741D02*
X-29142800Y21682859D01*
G75*
G02*
X-29089859Y21735800I52941J0D01*
G01*
X-26595741Y21735800D01*
G75*
G02*
X-26542800Y21682859I0J-52941D01*
G01*
X-26542800Y19988741D01*
G75*
G02*
X-26595741Y19935800I-52941J0D01*
G01*
X-29089859Y19935800D01*
G75*
G02*
X-29142800Y19988741I0J52941D01*
G01*
G37*
G36*
G01*
X-33142800Y19988741D02*
X-33142800Y21682859D01*
G75*
G02*
X-33089859Y21735800I52941J0D01*
G01*
X-30595741Y21735800D01*
G75*
G02*
X-30542800Y21682859I0J-52941D01*
G01*
X-30542800Y19988741D01*
G75*
G02*
X-30595741Y19935800I-52941J0D01*
G01*
X-33089859Y19935800D01*
G75*
G02*
X-33142800Y19988741I0J52941D01*
G01*
G37*
M02*
