G04 #@! TF.GenerationSoftware,KiCad,Pcbnew,(5.99.0-2290-gd34f8fd4b)*
G04 #@! TF.CreationDate,2020-11-06T19:29:50+01:00*
G04 #@! TF.ProjectId,Tympan-Nya,54796d70-616e-42d4-9e79-612e6b696361,rev?*
G04 #@! TF.SameCoordinates,PX6d878d0PY72e6100*
G04 #@! TF.FileFunction,Legend,Bot*
G04 #@! TF.FilePolarity,Positive*
%FSLAX46Y46*%
G04 Gerber Fmt 4.6, Leading zero omitted, Abs format (unit mm)*
G04 Created by KiCad (PCBNEW (5.99.0-2290-gd34f8fd4b)) date 2020-11-06 19:29:50*
%MOMM*%
%LPD*%
G01*
G04 APERTURE LIST*
%ADD10C,0.150000*%
%ADD11C,0.127000*%
%ADD12C,0.120000*%
%ADD13C,0.100000*%
%ADD14C,0.300000*%
G04 APERTURE END LIST*
D10*
X-22773505Y43985220D02*
X-22773505Y44985220D01*
X-23011600Y44985220D01*
X-23154458Y44937600D01*
X-23249696Y44842362D01*
X-23297315Y44747124D01*
X-23344934Y44556648D01*
X-23344934Y44413791D01*
X-23297315Y44223315D01*
X-23249696Y44128077D01*
X-23154458Y44032839D01*
X-23011600Y43985220D01*
X-22773505Y43985220D01*
X-23678267Y44985220D02*
X-24344934Y44985220D01*
X-23916362Y43985220D01*
X-20277943Y51090420D02*
X-19944610Y51566610D01*
X-19706515Y51090420D02*
X-19706515Y52090420D01*
X-20087467Y52090420D01*
X-20182705Y52042800D01*
X-20230324Y51995181D01*
X-20277943Y51899943D01*
X-20277943Y51757086D01*
X-20230324Y51661848D01*
X-20182705Y51614229D01*
X-20087467Y51566610D01*
X-19706515Y51566610D01*
X-21230324Y51090420D02*
X-20658896Y51090420D01*
X-20944610Y51090420D02*
X-20944610Y52090420D01*
X-20849372Y51947562D01*
X-20754134Y51852324D01*
X-20658896Y51804705D01*
X-22135086Y52090420D02*
X-21658896Y52090420D01*
X-21611277Y51614229D01*
X-21658896Y51661848D01*
X-21754134Y51709467D01*
X-21992229Y51709467D01*
X-22087467Y51661848D01*
X-22135086Y51614229D01*
X-22182705Y51518991D01*
X-22182705Y51280896D01*
X-22135086Y51185658D01*
X-22087467Y51138039D01*
X-21992229Y51090420D01*
X-21754134Y51090420D01*
X-21658896Y51138039D01*
X-21611277Y51185658D01*
X-32955724Y35908820D02*
X-32622391Y36385010D01*
X-32384296Y35908820D02*
X-32384296Y36908820D01*
X-32765248Y36908820D01*
X-32860486Y36861200D01*
X-32908105Y36813581D01*
X-32955724Y36718343D01*
X-32955724Y36575486D01*
X-32908105Y36480248D01*
X-32860486Y36432629D01*
X-32765248Y36385010D01*
X-32384296Y36385010D01*
X-33384296Y35908820D02*
X-33384296Y36908820D01*
X-33955724Y35908820D01*
X-33955724Y36908820D01*
X-34955724Y35908820D02*
X-34384296Y35908820D01*
X-34670010Y35908820D02*
X-34670010Y36908820D01*
X-34574772Y36765962D01*
X-34479534Y36670724D01*
X-34384296Y36623105D01*
X-18155420Y19398258D02*
X-18631610Y19731591D01*
X-18155420Y19969686D02*
X-19155420Y19969686D01*
X-19155420Y19588734D01*
X-19107800Y19493496D01*
X-19060181Y19445877D01*
X-18964943Y19398258D01*
X-18822086Y19398258D01*
X-18726848Y19445877D01*
X-18679229Y19493496D01*
X-18631610Y19588734D01*
X-18631610Y19969686D01*
X-18155420Y18445877D02*
X-18155420Y19017305D01*
X-18155420Y18731591D02*
X-19155420Y18731591D01*
X-19012562Y18826829D01*
X-18917324Y18922067D01*
X-18869705Y19017305D01*
X-19155420Y17588734D02*
X-19155420Y17779210D01*
X-19107800Y17874448D01*
X-19060181Y17922067D01*
X-18917324Y18017305D01*
X-18726848Y18064924D01*
X-18345896Y18064924D01*
X-18250658Y18017305D01*
X-18203039Y17969686D01*
X-18155420Y17874448D01*
X-18155420Y17683972D01*
X-18203039Y17588734D01*
X-18250658Y17541115D01*
X-18345896Y17493496D01*
X-18583991Y17493496D01*
X-18679229Y17541115D01*
X-18726848Y17588734D01*
X-18774467Y17683972D01*
X-18774467Y17874448D01*
X-18726848Y17969686D01*
X-18679229Y18017305D01*
X-18583991Y18064924D01*
X-17139420Y19395858D02*
X-17615610Y19729191D01*
X-17139420Y19967286D02*
X-18139420Y19967286D01*
X-18139420Y19586334D01*
X-18091800Y19491096D01*
X-18044181Y19443477D01*
X-17948943Y19395858D01*
X-17806086Y19395858D01*
X-17710848Y19443477D01*
X-17663229Y19491096D01*
X-17615610Y19586334D01*
X-17615610Y19967286D01*
X-17139420Y18443477D02*
X-17139420Y19014905D01*
X-17139420Y18729191D02*
X-18139420Y18729191D01*
X-17996562Y18824429D01*
X-17901324Y18919667D01*
X-17853705Y19014905D01*
X-17806086Y17586334D02*
X-17139420Y17586334D01*
X-18187039Y17824429D02*
X-17472753Y18062524D01*
X-17472753Y17443477D01*
X-19171420Y19395858D02*
X-19647610Y19729191D01*
X-19171420Y19967286D02*
X-20171420Y19967286D01*
X-20171420Y19586334D01*
X-20123800Y19491096D01*
X-20076181Y19443477D01*
X-19980943Y19395858D01*
X-19838086Y19395858D01*
X-19742848Y19443477D01*
X-19695229Y19491096D01*
X-19647610Y19586334D01*
X-19647610Y19967286D01*
X-19171420Y18443477D02*
X-19171420Y19014905D01*
X-19171420Y18729191D02*
X-20171420Y18729191D01*
X-20028562Y18824429D01*
X-19933324Y18919667D01*
X-19885705Y19014905D01*
X-20171420Y18110143D02*
X-20171420Y17491096D01*
X-19790467Y17824429D01*
X-19790467Y17681572D01*
X-19742848Y17586334D01*
X-19695229Y17538715D01*
X-19599991Y17491096D01*
X-19361896Y17491096D01*
X-19266658Y17538715D01*
X-19219039Y17586334D01*
X-19171420Y17681572D01*
X-19171420Y17967286D01*
X-19219039Y18062524D01*
X-19266658Y18110143D01*
X-16123420Y19395858D02*
X-16599610Y19729191D01*
X-16123420Y19967286D02*
X-17123420Y19967286D01*
X-17123420Y19586334D01*
X-17075800Y19491096D01*
X-17028181Y19443477D01*
X-16932943Y19395858D01*
X-16790086Y19395858D01*
X-16694848Y19443477D01*
X-16647229Y19491096D01*
X-16599610Y19586334D01*
X-16599610Y19967286D01*
X-16123420Y18443477D02*
X-16123420Y19014905D01*
X-16123420Y18729191D02*
X-17123420Y18729191D01*
X-16980562Y18824429D01*
X-16885324Y18919667D01*
X-16837705Y19014905D01*
X-17028181Y18062524D02*
X-17075800Y18014905D01*
X-17123420Y17919667D01*
X-17123420Y17681572D01*
X-17075800Y17586334D01*
X-17028181Y17538715D01*
X-16932943Y17491096D01*
X-16837705Y17491096D01*
X-16694848Y17538715D01*
X-16123420Y18110143D01*
X-16123420Y17491096D01*
X-23043410Y42793220D02*
X-23043410Y43793220D01*
X-24091029Y42888458D02*
X-24043410Y42840839D01*
X-23900553Y42793220D01*
X-23805315Y42793220D01*
X-23662458Y42840839D01*
X-23567220Y42936077D01*
X-23519600Y43031315D01*
X-23471981Y43221791D01*
X-23471981Y43364648D01*
X-23519600Y43555124D01*
X-23567220Y43650362D01*
X-23662458Y43745600D01*
X-23805315Y43793220D01*
X-23900553Y43793220D01*
X-24043410Y43745600D01*
X-24091029Y43697981D01*
X-25043410Y42793220D02*
X-24471981Y42793220D01*
X-24757696Y42793220D02*
X-24757696Y43793220D01*
X-24662458Y43650362D01*
X-24567220Y43555124D01*
X-24471981Y43507505D01*
X-18657067Y17655820D02*
X-18657067Y16941534D01*
X-18609448Y16798677D01*
X-18514210Y16703439D01*
X-18371353Y16655820D01*
X-18276115Y16655820D01*
X-19657067Y16655820D02*
X-19085639Y16655820D01*
X-19371353Y16655820D02*
X-19371353Y17655820D01*
X-19276115Y17512962D01*
X-19180877Y17417724D01*
X-19085639Y17370105D01*
X-30650781Y44666220D02*
X-30650781Y45666220D01*
X-30984115Y44951934D01*
X-31317448Y45666220D01*
X-31317448Y44666220D01*
X-31793639Y44666220D02*
X-31793639Y45666220D01*
X-32841258Y44761458D02*
X-32793639Y44713839D01*
X-32650781Y44666220D01*
X-32555543Y44666220D01*
X-32412686Y44713839D01*
X-32317448Y44809077D01*
X-32269829Y44904315D01*
X-32222210Y45094791D01*
X-32222210Y45237648D01*
X-32269829Y45428124D01*
X-32317448Y45523362D01*
X-32412686Y45618600D01*
X-32555543Y45666220D01*
X-32650781Y45666220D01*
X-32793639Y45618600D01*
X-32841258Y45570981D01*
X-33222210Y45570981D02*
X-33269829Y45618600D01*
X-33365067Y45666220D01*
X-33603162Y45666220D01*
X-33698400Y45618600D01*
X-33746020Y45570981D01*
X-33793639Y45475743D01*
X-33793639Y45380505D01*
X-33746020Y45237648D01*
X-33174591Y44666220D01*
X-33793639Y44666220D01*
X-13277181Y44666220D02*
X-13277181Y45666220D01*
X-13610515Y44951934D01*
X-13943848Y45666220D01*
X-13943848Y44666220D01*
X-14420039Y44666220D02*
X-14420039Y45666220D01*
X-15467658Y44761458D02*
X-15420039Y44713839D01*
X-15277181Y44666220D01*
X-15181943Y44666220D01*
X-15039086Y44713839D01*
X-14943848Y44809077D01*
X-14896229Y44904315D01*
X-14848610Y45094791D01*
X-14848610Y45237648D01*
X-14896229Y45428124D01*
X-14943848Y45523362D01*
X-15039086Y45618600D01*
X-15181943Y45666220D01*
X-15277181Y45666220D01*
X-15420039Y45618600D01*
X-15467658Y45570981D01*
X-16420039Y44666220D02*
X-15848610Y44666220D01*
X-16134324Y44666220D02*
X-16134324Y45666220D01*
X-16039086Y45523362D01*
X-15943848Y45428124D01*
X-15848610Y45380505D01*
X-32681096Y43155620D02*
X-32681096Y42346096D01*
X-32728715Y42250858D01*
X-32776334Y42203239D01*
X-32871572Y42155620D01*
X-33062048Y42155620D01*
X-33157286Y42203239D01*
X-33204905Y42250858D01*
X-33252524Y42346096D01*
X-33252524Y43155620D01*
X-34157286Y42822286D02*
X-34157286Y42155620D01*
X-33919191Y43203239D02*
X-33681096Y42488953D01*
X-34300143Y42488953D01*
X-21667220Y25153705D02*
X-20857696Y25153705D01*
X-20762458Y25106086D01*
X-20714839Y25058467D01*
X-20667220Y24963229D01*
X-20667220Y24772753D01*
X-20714839Y24677515D01*
X-20762458Y24629896D01*
X-20857696Y24582277D01*
X-21667220Y24582277D01*
X-20667220Y23582277D02*
X-20667220Y24153705D01*
X-20667220Y23867991D02*
X-21667220Y23867991D01*
X-21524362Y23963229D01*
X-21429124Y24058467D01*
X-21381505Y24153705D01*
X-26653343Y9920220D02*
X-26320010Y10396410D01*
X-26081915Y9920220D02*
X-26081915Y10920220D01*
X-26462867Y10920220D01*
X-26558105Y10872600D01*
X-26605724Y10824981D01*
X-26653343Y10729743D01*
X-26653343Y10586886D01*
X-26605724Y10491648D01*
X-26558105Y10444029D01*
X-26462867Y10396410D01*
X-26081915Y10396410D01*
X-26986677Y10920220D02*
X-27605724Y10920220D01*
X-27272391Y10539267D01*
X-27415248Y10539267D01*
X-27510486Y10491648D01*
X-27558105Y10444029D01*
X-27605724Y10348791D01*
X-27605724Y10110696D01*
X-27558105Y10015458D01*
X-27510486Y9967839D01*
X-27415248Y9920220D01*
X-27129534Y9920220D01*
X-27034296Y9967839D01*
X-26986677Y10015458D01*
X-28462867Y10920220D02*
X-28272391Y10920220D01*
X-28177153Y10872600D01*
X-28129534Y10824981D01*
X-28034296Y10682124D01*
X-27986677Y10491648D01*
X-27986677Y10110696D01*
X-28034296Y10015458D01*
X-28081915Y9967839D01*
X-28177153Y9920220D01*
X-28367629Y9920220D01*
X-28462867Y9967839D01*
X-28510486Y10015458D01*
X-28558105Y10110696D01*
X-28558105Y10348791D01*
X-28510486Y10444029D01*
X-28462867Y10491648D01*
X-28367629Y10539267D01*
X-28177153Y10539267D01*
X-28081915Y10491648D01*
X-28034296Y10444029D01*
X-27986677Y10348791D01*
X-26653343Y8853420D02*
X-26320010Y9329610D01*
X-26081915Y8853420D02*
X-26081915Y9853420D01*
X-26462867Y9853420D01*
X-26558105Y9805800D01*
X-26605724Y9758181D01*
X-26653343Y9662943D01*
X-26653343Y9520086D01*
X-26605724Y9424848D01*
X-26558105Y9377229D01*
X-26462867Y9329610D01*
X-26081915Y9329610D01*
X-26986677Y9853420D02*
X-27605724Y9853420D01*
X-27272391Y9472467D01*
X-27415248Y9472467D01*
X-27510486Y9424848D01*
X-27558105Y9377229D01*
X-27605724Y9281991D01*
X-27605724Y9043896D01*
X-27558105Y8948658D01*
X-27510486Y8901039D01*
X-27415248Y8853420D01*
X-27129534Y8853420D01*
X-27034296Y8901039D01*
X-26986677Y8948658D01*
X-28510486Y9853420D02*
X-28034296Y9853420D01*
X-27986677Y9377229D01*
X-28034296Y9424848D01*
X-28129534Y9472467D01*
X-28367629Y9472467D01*
X-28462867Y9424848D01*
X-28510486Y9377229D01*
X-28558105Y9281991D01*
X-28558105Y9043896D01*
X-28510486Y8948658D01*
X-28462867Y8901039D01*
X-28367629Y8853420D01*
X-28129534Y8853420D01*
X-28034296Y8901039D01*
X-27986677Y8948658D01*
X-28990143Y8853420D02*
X-28656810Y9329610D01*
X-28418715Y8853420D02*
X-28418715Y9853420D01*
X-28799667Y9853420D01*
X-28894905Y9805800D01*
X-28942524Y9758181D01*
X-28990143Y9662943D01*
X-28990143Y9520086D01*
X-28942524Y9424848D01*
X-28894905Y9377229D01*
X-28799667Y9329610D01*
X-28418715Y9329610D01*
X-29323477Y9853420D02*
X-29942524Y9853420D01*
X-29609191Y9472467D01*
X-29752048Y9472467D01*
X-29847286Y9424848D01*
X-29894905Y9377229D01*
X-29942524Y9281991D01*
X-29942524Y9043896D01*
X-29894905Y8948658D01*
X-29847286Y8901039D01*
X-29752048Y8853420D01*
X-29466334Y8853420D01*
X-29371096Y8901039D01*
X-29323477Y8948658D01*
X-30799667Y9520086D02*
X-30799667Y8853420D01*
X-30561572Y9901039D02*
X-30323477Y9186753D01*
X-30942524Y9186753D01*
X-13470743Y20680258D02*
X-13423124Y20632639D01*
X-13280267Y20585020D01*
X-13185029Y20585020D01*
X-13042172Y20632639D01*
X-12946934Y20727877D01*
X-12899315Y20823115D01*
X-12851696Y21013591D01*
X-12851696Y21156448D01*
X-12899315Y21346924D01*
X-12946934Y21442162D01*
X-13042172Y21537400D01*
X-13185029Y21585020D01*
X-13280267Y21585020D01*
X-13423124Y21537400D01*
X-13470743Y21489781D01*
X-14327886Y21251686D02*
X-14327886Y20585020D01*
X-14089791Y21632639D02*
X-13851696Y20918353D01*
X-14470743Y20918353D01*
X-15375505Y20585020D02*
X-14804077Y20585020D01*
X-15089791Y20585020D02*
X-15089791Y21585020D01*
X-14994553Y21442162D01*
X-14899315Y21346924D01*
X-14804077Y21299305D01*
X-13470743Y21696258D02*
X-13423124Y21648639D01*
X-13280267Y21601020D01*
X-13185029Y21601020D01*
X-13042172Y21648639D01*
X-12946934Y21743877D01*
X-12899315Y21839115D01*
X-12851696Y22029591D01*
X-12851696Y22172448D01*
X-12899315Y22362924D01*
X-12946934Y22458162D01*
X-13042172Y22553400D01*
X-13185029Y22601020D01*
X-13280267Y22601020D01*
X-13423124Y22553400D01*
X-13470743Y22505781D01*
X-14327886Y22267686D02*
X-14327886Y21601020D01*
X-14089791Y22648639D02*
X-13851696Y21934353D01*
X-14470743Y21934353D01*
X-15042172Y22601020D02*
X-15137410Y22601020D01*
X-15232648Y22553400D01*
X-15280267Y22505781D01*
X-15327886Y22410543D01*
X-15375505Y22220067D01*
X-15375505Y21981972D01*
X-15327886Y21791496D01*
X-15280267Y21696258D01*
X-15232648Y21648639D01*
X-15137410Y21601020D01*
X-15042172Y21601020D01*
X-14946934Y21648639D01*
X-14899315Y21696258D01*
X-14851696Y21791496D01*
X-14804077Y21981972D01*
X-14804077Y22220067D01*
X-14851696Y22410543D01*
X-14899315Y22505781D01*
X-14946934Y22553400D01*
X-15042172Y22601020D01*
X-13470743Y19664258D02*
X-13423124Y19616639D01*
X-13280267Y19569020D01*
X-13185029Y19569020D01*
X-13042172Y19616639D01*
X-12946934Y19711877D01*
X-12899315Y19807115D01*
X-12851696Y19997591D01*
X-12851696Y20140448D01*
X-12899315Y20330924D01*
X-12946934Y20426162D01*
X-13042172Y20521400D01*
X-13185029Y20569020D01*
X-13280267Y20569020D01*
X-13423124Y20521400D01*
X-13470743Y20473781D01*
X-13804077Y20569020D02*
X-14423124Y20569020D01*
X-14089791Y20188067D01*
X-14232648Y20188067D01*
X-14327886Y20140448D01*
X-14375505Y20092829D01*
X-14423124Y19997591D01*
X-14423124Y19759496D01*
X-14375505Y19664258D01*
X-14327886Y19616639D01*
X-14232648Y19569020D01*
X-13946934Y19569020D01*
X-13851696Y19616639D01*
X-13804077Y19664258D01*
X-15327886Y20569020D02*
X-14851696Y20569020D01*
X-14804077Y20092829D01*
X-14851696Y20140448D01*
X-14946934Y20188067D01*
X-15185029Y20188067D01*
X-15280267Y20140448D01*
X-15327886Y20092829D01*
X-15375505Y19997591D01*
X-15375505Y19759496D01*
X-15327886Y19664258D01*
X-15280267Y19616639D01*
X-15185029Y19569020D01*
X-14946934Y19569020D01*
X-14851696Y19616639D01*
X-14804077Y19664258D01*
X-23184543Y24714143D02*
X-23232162Y24666524D01*
X-23279781Y24523667D01*
X-23279781Y24428429D01*
X-23232162Y24285572D01*
X-23136924Y24190334D01*
X-23041686Y24142715D01*
X-22851210Y24095096D01*
X-22708353Y24095096D01*
X-22517877Y24142715D01*
X-22422639Y24190334D01*
X-22327400Y24285572D01*
X-22279781Y24428429D01*
X-22279781Y24523667D01*
X-22327400Y24666524D01*
X-22375020Y24714143D01*
X-22279781Y25047477D02*
X-22279781Y25666524D01*
X-22660734Y25333191D01*
X-22660734Y25476048D01*
X-22708353Y25571286D01*
X-22755972Y25618905D01*
X-22851210Y25666524D01*
X-23089305Y25666524D01*
X-23184543Y25618905D01*
X-23232162Y25571286D01*
X-23279781Y25476048D01*
X-23279781Y25190334D01*
X-23232162Y25095096D01*
X-23184543Y25047477D01*
X-22613115Y26523667D02*
X-23279781Y26523667D01*
X-22232162Y26285572D02*
X-22946448Y26047477D01*
X-22946448Y26666524D01*
X-20130258Y24069458D02*
X-20082639Y24117077D01*
X-20035020Y24259934D01*
X-20035020Y24355172D01*
X-20082639Y24498029D01*
X-20177877Y24593267D01*
X-20273115Y24640886D01*
X-20463591Y24688505D01*
X-20606448Y24688505D01*
X-20796924Y24640886D01*
X-20892162Y24593267D01*
X-20987400Y24498029D01*
X-21035020Y24355172D01*
X-21035020Y24259934D01*
X-20987400Y24117077D01*
X-20939781Y24069458D01*
X-20939781Y23688505D02*
X-20987400Y23640886D01*
X-21035020Y23545648D01*
X-21035020Y23307553D01*
X-20987400Y23212315D01*
X-20939781Y23164696D01*
X-20844543Y23117077D01*
X-20749305Y23117077D01*
X-20606448Y23164696D01*
X-20035020Y23736124D01*
X-20035020Y23117077D01*
X-20035020Y22164696D02*
X-20035020Y22736124D01*
X-20035020Y22450410D02*
X-21035020Y22450410D01*
X-20892162Y22545648D01*
X-20796924Y22640886D01*
X-20749305Y22736124D01*
X-15378143Y16768658D02*
X-15330524Y16721039D01*
X-15187667Y16673420D01*
X-15092429Y16673420D01*
X-14949572Y16721039D01*
X-14854334Y16816277D01*
X-14806715Y16911515D01*
X-14759096Y17101991D01*
X-14759096Y17244848D01*
X-14806715Y17435324D01*
X-14854334Y17530562D01*
X-14949572Y17625800D01*
X-15092429Y17673420D01*
X-15187667Y17673420D01*
X-15330524Y17625800D01*
X-15378143Y17578181D01*
X-16330524Y16673420D02*
X-15759096Y16673420D01*
X-16044810Y16673420D02*
X-16044810Y17673420D01*
X-15949572Y17530562D01*
X-15854334Y17435324D01*
X-15759096Y17387705D01*
X-17235286Y17673420D02*
X-16759096Y17673420D01*
X-16711477Y17197229D01*
X-16759096Y17244848D01*
X-16854334Y17292467D01*
X-17092429Y17292467D01*
X-17187667Y17244848D01*
X-17235286Y17197229D01*
X-17282905Y17101991D01*
X-17282905Y16863896D01*
X-17235286Y16768658D01*
X-17187667Y16721039D01*
X-17092429Y16673420D01*
X-16854334Y16673420D01*
X-16759096Y16721039D01*
X-16711477Y16768658D01*
X-28526534Y51138058D02*
X-28478915Y51090439D01*
X-28336058Y51042820D01*
X-28240820Y51042820D01*
X-28097962Y51090439D01*
X-28002724Y51185677D01*
X-27955105Y51280915D01*
X-27907486Y51471391D01*
X-27907486Y51614248D01*
X-27955105Y51804724D01*
X-28002724Y51899962D01*
X-28097962Y51995200D01*
X-28240820Y52042820D01*
X-28336058Y52042820D01*
X-28478915Y51995200D01*
X-28526534Y51947581D01*
X-29383677Y52042820D02*
X-29193200Y52042820D01*
X-29097962Y51995200D01*
X-29050343Y51947581D01*
X-28955105Y51804724D01*
X-28907486Y51614248D01*
X-28907486Y51233296D01*
X-28955105Y51138058D01*
X-29002724Y51090439D01*
X-29097962Y51042820D01*
X-29288439Y51042820D01*
X-29383677Y51090439D01*
X-29431296Y51138058D01*
X-29478915Y51233296D01*
X-29478915Y51471391D01*
X-29431296Y51566629D01*
X-29383677Y51614248D01*
X-29288439Y51661867D01*
X-29097962Y51661867D01*
X-29002724Y51614248D01*
X-28955105Y51566629D01*
X-28907486Y51471391D01*
X-28598010Y25063610D02*
X-28598010Y24587420D01*
X-28264677Y25587420D02*
X-28598010Y25063610D01*
X-28931343Y25587420D01*
X-29217058Y25492181D02*
X-29264677Y25539800D01*
X-29359915Y25587420D01*
X-29598010Y25587420D01*
X-29693248Y25539800D01*
X-29740867Y25492181D01*
X-29788486Y25396943D01*
X-29788486Y25301705D01*
X-29740867Y25158848D01*
X-29169439Y24587420D01*
X-29788486Y24587420D01*
X-22141010Y25393810D02*
X-22141010Y24917620D01*
X-21807677Y25917620D02*
X-22141010Y25393810D01*
X-22474343Y25917620D01*
X-23331486Y24917620D02*
X-22760058Y24917620D01*
X-23045772Y24917620D02*
X-23045772Y25917620D01*
X-22950534Y25774762D01*
X-22855296Y25679524D01*
X-22760058Y25631905D01*
D11*
X-36860714Y6784156D02*
X-36951428Y6753918D01*
X-37102619Y6753918D01*
X-37163095Y6784156D01*
X-37193333Y6814394D01*
X-37223571Y6874870D01*
X-37223571Y6935346D01*
X-37193333Y6995822D01*
X-37163095Y7026060D01*
X-37102619Y7056299D01*
X-36981666Y7086537D01*
X-36921190Y7116775D01*
X-36890952Y7147013D01*
X-36860714Y7207489D01*
X-36860714Y7267965D01*
X-36890952Y7328441D01*
X-36921190Y7358679D01*
X-36981666Y7388918D01*
X-37132857Y7388918D01*
X-37223571Y7358679D01*
X-37435238Y7388918D02*
X-37586428Y6753918D01*
X-37707380Y7207489D01*
X-37828333Y6753918D01*
X-37979523Y7388918D01*
X-38554047Y6753918D02*
X-38191190Y6753918D01*
X-38372619Y6753918D02*
X-38372619Y7388918D01*
X-38312142Y7298203D01*
X-38251666Y7237727D01*
X-38191190Y7207489D01*
D10*
X-15293134Y17785020D02*
X-14816943Y17785020D01*
X-14816943Y18785020D01*
X-15531229Y18785020D02*
X-16150277Y18785020D01*
X-15816943Y18404067D01*
X-15959800Y18404067D01*
X-16055039Y18356448D01*
X-16102658Y18308829D01*
X-16150277Y18213591D01*
X-16150277Y17975496D01*
X-16102658Y17880258D01*
X-16055039Y17832639D01*
X-15959800Y17785020D01*
X-15674086Y17785020D01*
X-15578848Y17832639D01*
X-15531229Y17880258D01*
X-29731467Y15328029D02*
X-29398134Y15328029D01*
X-29398134Y14804220D02*
X-29398134Y15804220D01*
X-29874324Y15804220D01*
X-30779086Y14804220D02*
X-30207658Y14804220D01*
X-30493372Y14804220D02*
X-30493372Y15804220D01*
X-30398134Y15661362D01*
X-30302896Y15566124D01*
X-30207658Y15518505D01*
X-31672778Y11528169D02*
X-32422778Y11528169D01*
X-32422778Y11349597D01*
X-32387063Y11242455D01*
X-32315635Y11171026D01*
X-32244206Y11135312D01*
X-32101349Y11099597D01*
X-31994206Y11099597D01*
X-31851349Y11135312D01*
X-31779921Y11171026D01*
X-31708492Y11242455D01*
X-31672778Y11349597D01*
X-31672778Y11528169D01*
X-32422778Y10456740D02*
X-32422778Y10599597D01*
X-32387063Y10671026D01*
X-32351349Y10706740D01*
X-32244206Y10778169D01*
X-32101349Y10813883D01*
X-31815635Y10813883D01*
X-31744206Y10778169D01*
X-31708492Y10742455D01*
X-31672778Y10671026D01*
X-31672778Y10528169D01*
X-31708492Y10456740D01*
X-31744206Y10421026D01*
X-31815635Y10385312D01*
X-31994206Y10385312D01*
X-32065635Y10421026D01*
X-32101349Y10456740D01*
X-32137063Y10528169D01*
X-32137063Y10671026D01*
X-32101349Y10742455D01*
X-32065635Y10778169D01*
X-31994206Y10813883D01*
X-32217820Y22291696D02*
X-33217820Y22291696D01*
X-33217820Y22053600D01*
X-33170200Y21910743D01*
X-33074962Y21815505D01*
X-32979724Y21767886D01*
X-32789248Y21720267D01*
X-32646391Y21720267D01*
X-32455915Y21767886D01*
X-32360677Y21815505D01*
X-32265439Y21910743D01*
X-32217820Y22053600D01*
X-32217820Y22291696D01*
X-33217820Y20815505D02*
X-33217820Y21291696D01*
X-32741629Y21339315D01*
X-32789248Y21291696D01*
X-32836867Y21196458D01*
X-32836867Y20958362D01*
X-32789248Y20863124D01*
X-32741629Y20815505D01*
X-32646391Y20767886D01*
X-32408296Y20767886D01*
X-32313058Y20815505D01*
X-32265439Y20863124D01*
X-32217820Y20958362D01*
X-32217820Y21196458D01*
X-32265439Y21291696D01*
X-32313058Y21339315D01*
X-31104705Y17883420D02*
X-31104705Y18883420D01*
X-31342800Y18883420D01*
X-31485658Y18835800D01*
X-31580896Y18740562D01*
X-31628515Y18645324D01*
X-31676134Y18454848D01*
X-31676134Y18311991D01*
X-31628515Y18121515D01*
X-31580896Y18026277D01*
X-31485658Y17931039D01*
X-31342800Y17883420D01*
X-31104705Y17883420D01*
X-32533277Y18550086D02*
X-32533277Y17883420D01*
X-32295181Y18931039D02*
X-32057086Y18216753D01*
X-32676134Y18216753D01*
D12*
X-19861600Y50687600D02*
X-19861600Y49537600D01*
X-27161600Y50687600D02*
X-19861600Y50687600D01*
X-27161600Y45187600D02*
X-19861600Y45187600D01*
X-34146200Y35241200D02*
X-33146200Y35241200D01*
X-34146200Y31881200D02*
X-33146200Y31881200D01*
X-17219600Y41845600D02*
X-17219600Y42545600D01*
X-17219600Y42545600D02*
X-17919600Y42545600D01*
X-30619600Y42345600D02*
X-30619600Y29145600D01*
X-30619600Y29145600D02*
X-17419600Y29145600D01*
X-17419600Y29145600D02*
X-17419600Y42345600D01*
X-17419600Y42345600D02*
X-30619600Y42345600D01*
X-14290400Y9463200D02*
X-14290400Y7563200D01*
X-14290400Y13363200D02*
X-14290400Y11363200D01*
X-23690400Y9463200D02*
X-23690400Y7563200D01*
X-23690400Y13363200D02*
X-23690400Y11363200D01*
X-14290400Y7563200D02*
X-23690400Y7563200D01*
D13*
X-34198400Y51850600D02*
X-34198400Y47100600D01*
X-34198400Y47100600D02*
X-30198400Y47100600D01*
X-30198400Y47100600D02*
X-30198400Y51850600D01*
X-30198400Y51850600D02*
X-34198400Y51850600D01*
X-16824800Y51850600D02*
X-16824800Y47100600D01*
X-16824800Y47100600D02*
X-12824800Y47100600D01*
X-12824800Y47100600D02*
X-12824800Y51850600D01*
X-12824800Y51850600D02*
X-16824800Y51850600D01*
D12*
X-32543000Y38098000D02*
X-34343000Y38098000D01*
X-34343000Y41318000D02*
X-31893000Y41318000D01*
X-25629600Y23491800D02*
X-25629600Y25291800D01*
X-22409600Y25291800D02*
X-22409600Y22841800D01*
D14*
X-35957380Y8541179D02*
X-35957380Y6541179D01*
X-35957380Y6541179D02*
X-34457380Y6541179D01*
X-34457380Y6541179D02*
X-34457380Y8541179D01*
X-31957380Y12041179D02*
X-40457380Y12041179D01*
X-40457380Y12041179D02*
X-40457380Y8541179D01*
X-40457380Y8541179D02*
X-31957380Y8541179D01*
X-31957380Y8541179D02*
X-31957380Y12041179D01*
D12*
X-15622579Y20177400D02*
X-15297021Y20177400D01*
X-15622579Y19157400D02*
X-15297021Y19157400D01*
X-30666864Y17986600D02*
X-29462736Y17986600D01*
X-30666864Y16166600D02*
X-29462736Y16166600D01*
D13*
X-29034063Y9314197D02*
X-29034063Y11314197D01*
X-31234063Y9114197D02*
X-29234063Y9114197D01*
X-31434063Y11314197D02*
X-31434063Y9314197D01*
X-29234063Y11514197D02*
X-31234063Y11514197D01*
X-31234063Y11514197D02*
G75*
G03*
X-31234063Y11514197I-200000J0D01*
G01*
X-36670200Y25553600D02*
X-36670200Y21553600D01*
X-33670200Y21553600D02*
X-33670200Y25553600D01*
X-27842800Y22335800D02*
X-31842800Y22335800D01*
X-31842800Y19335800D02*
X-27842800Y19335800D01*
M02*
