M48
; DRILL file {KiCad (5.99.0-2290-gd34f8fd4b)} date Fri Nov  6 19:29:53 2020
; FORMAT={-:-/ absolute / inch / decimal}
; #@! TF.CreationDate,2020-11-06T19:29:53+01:00
; #@! TF.GenerationSoftware,Kicad,Pcbnew,(5.99.0-2290-gd34f8fd4b)
; #@! TF.FileFunction,Plated,1,4,PTH
FMAT,2
INCH
T1C0.0079
T2C0.0118
T3C0.0138
T4C0.0157
T5C0.0236
T6C0.0394
%
G90
G05
T1
X-1.3957Y1.2313
X-1.3241Y1.2849
X-1.3057Y1.3993
X-1.2487Y1.0103
X-1.2467Y1.3533
X-1.2237Y0.4863
X-1.2079Y1.9178
X-1.1927Y1.3703
X-1.1907Y1.5643
X-1.1824Y1.5243
X-1.178Y1.4844
X-1.1444Y1.2105
X-1.144Y1.407
X-1.1427Y1.5641
X-1.1416Y1.6033
X-1.1387Y1.7883
X-1.1345Y1.9215
X-1.1221Y0.313
X-1.1037Y1.4463
X-1.1027Y1.6043
X-1.0917Y1.9294
X-1.0832Y1.9713
X-1.0637Y1.4463
X-1.0571Y1.1188
X-1.0427Y1.7368
X-1.0236Y1.4063
X-0.9857Y1.2493
X-0.9835Y1.5648
X-0.9748Y1.4085
X-0.9657Y1.6504
X-0.9457Y1.248
X-0.9455Y1.4053
X-0.9065Y1.1474
X-0.9057Y2.0193
X-0.9052Y1.3279
X-0.8927Y0.3693
X-0.8817Y2.0713
X-0.8693Y1.2897
X-0.8677Y0.3863
X-0.8597Y2.0393
X-0.8347Y0.3683
X-0.8267Y0.9953
X-0.8157Y0.4493
X-0.7787Y0.6853
X-0.7747Y1.8666
X-0.7582Y0.5588
X-0.7497Y1.3283
X-0.7487Y1.8933
X-0.7257Y1.9113
X-0.7177Y1.9613
X-0.6957Y1.3733
X-0.6947Y0.9521
X-0.6917Y0.9213
X-0.6859Y1.2513
X-0.667Y1.8663
X-0.6417Y0.9743
X-0.6267Y0.8223
X-0.6177Y1.3913
X-0.6117Y1.2873
X-0.6097Y1.1133
X-0.581Y1.05
X-0.5597Y1.2213
X-0.5417Y1.1173
X-0.5397Y1.3433
X-0.4737Y1.4113
T2
X-1.3947Y1.3883
X-1.3137Y0.5393
X-1.2877Y1.4923
X-1.2627Y1.4003
X-1.2097Y1.4013
X-1.1905Y1.3253
X-1.0437Y0.7103
X-1.0437Y0.5533
X-1.0431Y0.6671
X-0.9197Y2.0777
X-0.779Y0.3683
X-0.7687Y0.4143
X-0.7167Y0.3886
T3
X-1.3793Y1.8265
X-1.1425Y1.525
X-1.1077Y2.0193
X-1.1027Y1.2498
X-1.1017Y2.0793
X-1.0638Y1.6038
X-1.0517Y1.7869
X-1.0237Y1.4866
X-0.9898Y0.7754
X-0.985Y1.2896
X-0.9844Y1.4871
X-0.9677Y1.9253
X-0.9677Y1.8453
X-0.9661Y2.0807
X-0.9506Y2.0382
X-0.9457Y1.2893
X-0.9062Y1.2887
X-0.9058Y1.4072
X-0.9043Y1.3663
X-0.8977Y0.9573
X-0.8897Y1.9253
X-0.8897Y1.8453
X-0.8847Y1.6933
X-0.8271Y1.2498
X-0.8102Y1.1633
X-0.8101Y1.7818
X-0.7886Y1.3679
X-0.7885Y1.3285
X-0.7877Y1.2102
X-0.7597Y1.9793
X-0.7538Y1.1561
X-0.7488Y1.2494
X-0.7117Y1.7343
X-0.6854Y1.4313
X-0.6717Y0.3873
X-0.6624Y1.1465
X-0.6577Y1.2133
X-0.5977Y1.1537
X-0.5137Y1.0393
X-0.5097Y1.2173
T4
X-1.4846Y0.7803
X-1.3417Y1.6993
X-1.3317Y1.9133
X-1.3197Y1.5633
X-1.3168Y1.6208
X-1.3107Y1.8353
X-1.3027Y1.7333
X-1.2757Y1.0603
X-1.2687Y2.0333
X-1.2197Y1.8353
X-1.0657Y0.8763
X-1.0267Y0.8623
X-1.0117Y1.7493
X-0.9457Y1.0043
X-0.9457Y0.9643
X-0.9457Y0.8603
X-0.8417Y1.7033
X-0.6247Y0.9333
X-0.6077Y1.8453
X-0.5847Y2.0333
X-0.5377Y1.8333
X-0.5277Y1.9313
T6
X-0.4107Y1.1873
X-0.3933Y1.0888
X-0.3759Y0.9903
T5
G00X-0.9177Y0.5529
M15
G01X-0.9177Y0.5962
M16
G05
G00X-0.9177Y0.3982
M15
G01X-0.9177Y0.4218
M16
G05
G00X-0.5776Y0.5529
M15
G01X-0.5776Y0.5962
M16
G05
G00X-0.5776Y0.3982
M15
G01X-0.5776Y0.4218
M16
G05
T0
M30
